<?xml version="1.0" encoding="utf-8" standalone="no"?>
<!DOCTYPE svg PUBLIC "-//W3C//DTD SVG 1.1//EN"
  "http://www.w3.org/Graphics/SVG/1.1/DTD/svg11.dtd">
<svg xmlns:xlink="http://www.w3.org/1999/xlink" width="1000.745625pt" height="356.078437pt" viewBox="0 0 1000.745625 356.078437" xmlns="http://www.w3.org/2000/svg" version="1.1">
 <metadata>
  <rdf:RDF xmlns:dc="http://purl.org/dc/elements/1.1/" xmlns:cc="http://creativecommons.org/ns#" xmlns:rdf="http://www.w3.org/1999/02/22-rdf-syntax-ns#">
   <cc:Work>
    <dc:type rdf:resource="http://purl.org/dc/dcmitype/StillImage"/>
    <dc:date>2026-07-22T09:22:47.353774</dc:date>
    <dc:format>image/svg+xml</dc:format>
    <dc:creator>
     <cc:Agent>
      <dc:title>Matplotlib v3.11.1, https://matplotlib.org/</dc:title>
     </cc:Agent>
    </dc:creator>
   </cc:Work>
  </rdf:RDF>
 </metadata>
 <defs>
  <style type="text/css">*{stroke-linejoin: round; stroke-linecap: butt}</style>
 </defs>
 <g id="figure_1">
  <g id="patch_1">
   <path d="M 0 356.078437 
L 1000.745625 356.078437 
L 1000.745625 0 
L 0 0 
z
" style="fill: #ffffff"/>
  </g>
  <g id="axes_1">
   <g id="patch_2">
    <path d="M 50.465625 317.877656 
L 494.945625 317.877656 
L 494.945625 50.96 
L 50.465625 50.96 
z
" style="fill: #ffffff"/>
   </g>
   <g id="FillBetweenPolyCollection_1">
    <defs>
     <path id="m358ebae3e8" d="M 70.669261 -292.985817 
L 70.669261 -163.822548 
L 74.750804 -181.040095 
L 78.832347 -175.47073 
L 82.913889 -129.377662 
L 86.995432 -94.46362 
L 91.076975 -85.297415 
L 95.158518 -74.317993 
L 99.24006 -79.621243 
L 103.321603 -70.15586 
L 107.403146 -66.507634 
L 111.484688 -63.839059 
L 115.566231 -62.18142 
L 119.647774 -62.438109 
L 123.729316 -61.064294 
L 127.810859 -59.689612 
L 131.892402 -59.219142 
L 135.973945 -58.479994 
L 140.055487 -57.239373 
L 144.13703 -57.781207 
L 148.218573 -57.318081 
L 152.300115 -57.155047 
L 156.381658 -56.684426 
L 160.463201 -56.146143 
L 164.544743 -55.438928 
L 168.626286 -55.683995 
L 172.707829 -55.245561 
L 176.789372 -54.990765 
L 180.870914 -54.535418 
L 184.952457 -54.560285 
L 189.034 -54.284957 
L 193.115542 -54.160211 
L 197.197085 -55.836438 
L 201.278628 -66.067929 
L 205.36017 -58.800341 
L 209.441713 -57.473296 
L 213.523256 -56.26988 
L 217.604799 -55.051362 
L 221.686341 -53.907772 
L 225.767884 -53.913453 
L 229.849427 -53.692073 
L 233.930969 -54.415312 
L 238.012512 -53.659244 
L 242.094055 -53.482264 
L 246.175597 -53.240858 
L 250.25714 -53.064333 
L 254.338683 -53.068714 
L 258.420226 -52.942408 
L 262.501768 -52.793931 
L 266.583311 -52.610464 
L 270.664854 -52.412831 
L 274.746396 -62.005208 
L 278.827939 -57.351507 
L 282.909482 -54.934893 
L 286.991024 -53.659199 
L 291.072567 -53.244706 
L 295.15411 -52.69482 
L 299.235653 -52.760706 
L 303.317195 -52.68194 
L 307.398738 -52.457477 
L 311.480281 -53.064463 
L 315.561823 -53.127726 
L 319.643366 -52.560949 
L 323.724909 -52.053773 
L 327.806451 -52.002581 
L 331.887994 -51.975525 
L 335.969537 -51.586399 
L 340.05108 -51.65109 
L 344.132622 -51.732462 
L 348.214165 -51.426075 
L 352.295708 -51.537087 
L 356.37725 -51.213506 
L 360.458793 -51.352274 
L 364.540336 -51.444173 
L 368.621878 -51.356239 
L 372.703421 -51.170985 
L 376.784964 -51.253223 
L 380.866507 -51.099977 
L 384.948049 -51.38283 
L 389.029592 -51.417068 
L 393.111135 -51.196986 
L 397.192677 -51.03082 
L 401.27422 -51.016684 
L 405.355763 -50.984971 
L 409.437305 -51.057278 
L 413.518848 -51.108067 
L 417.600391 -51.163306 
L 421.681934 -52.973705 
L 425.763476 -51.768848 
L 429.845019 -51.304764 
L 433.926562 -50.937545 
L 438.008104 -50.782847 
L 442.089647 -50.675877 
L 446.17119 -50.76078 
L 450.252732 -50.637905 
L 454.334275 -50.48895 
L 458.415818 -50.54041 
L 462.497361 -50.333402 
L 466.578903 -50.62211 
L 470.660446 -50.668035 
L 474.741989 -50.390053 
L 474.741989 -53.484615 
L 474.741989 -53.484615 
L 470.660446 -53.610526 
L 466.578903 -53.257113 
L 462.497361 -53.487209 
L 458.415818 -53.513555 
L 454.334275 -53.246006 
L 450.252732 -53.445734 
L 446.17119 -53.642533 
L 442.089647 -53.743476 
L 438.008104 -53.671926 
L 433.926562 -53.835174 
L 429.845019 -54.159111 
L 425.763476 -55.403021 
L 421.681934 -56.093688 
L 417.600391 -53.450484 
L 413.518848 -52.990704 
L 409.437305 -52.966151 
L 405.355763 -52.814752 
L 401.27422 -52.905187 
L 397.192677 -52.93004 
L 393.111135 -53.012259 
L 389.029592 -53.371022 
L 384.948049 -53.241064 
L 380.866507 -52.921056 
L 376.784964 -53.399829 
L 372.703421 -53.336763 
L 368.621878 -53.163452 
L 364.540336 -53.12656 
L 360.458793 -53.244789 
L 356.37725 -53.174477 
L 352.295708 -53.360453 
L 348.214165 -53.329871 
L 344.132622 -53.954426 
L 340.05108 -53.607934 
L 335.969537 -53.605865 
L 331.887994 -54.102657 
L 327.806451 -54.106288 
L 323.724909 -54.084468 
L 319.643366 -54.392949 
L 315.561823 -55.3264 
L 311.480281 -56.270389 
L 307.398738 -54.370822 
L 303.317195 -54.803632 
L 299.235653 -55.123288 
L 295.15411 -54.638666 
L 291.072567 -55.365984 
L 286.991024 -56.04989 
L 282.909482 -58.155884 
L 278.827939 -61.93114 
L 274.746396 -73.489751 
L 270.664854 -54.426337 
L 266.583311 -54.509653 
L 262.501768 -54.788065 
L 258.420226 -56.003791 
L 254.338683 -55.075817 
L 250.25714 -54.918367 
L 246.175597 -55.518972 
L 242.094055 -55.726692 
L 238.012512 -56.272899 
L 233.930969 -56.913922 
L 229.849427 -56.289994 
L 225.767884 -56.528423 
L 221.686341 -56.547338 
L 217.604799 -57.865791 
L 213.523256 -59.229221 
L 209.441713 -62.102012 
L 205.36017 -65.031161 
L 201.278628 -74.707887 
L 197.197085 -66.132568 
L 193.115542 -57.309277 
L 189.034 -57.079537 
L 184.952457 -57.178158 
L 180.870914 -57.610976 
L 176.789372 -58.326598 
L 172.707829 -58.627835 
L 168.626286 -58.432786 
L 164.544743 -58.634732 
L 160.463201 -59.984053 
L 156.381658 -59.687073 
L 152.300115 -61.157768 
L 148.218573 -61.482179 
L 144.13703 -61.401816 
L 140.055487 -61.942988 
L 135.973945 -62.597861 
L 131.892402 -63.292772 
L 127.810859 -63.91815 
L 123.729316 -64.535565 
L 119.647774 -67.439758 
L 115.566231 -66.201951 
L 111.484688 -68.508639 
L 107.403146 -71.181421 
L 103.321603 -78.818117 
L 99.24006 -91.650855 
L 95.158518 -92.746177 
L 91.076975 -92.170082 
L 86.995432 -111.580216 
L 82.913889 -163.985582 
L 78.832347 -187.964442 
L 74.750804 -192.366913 
L 70.669261 -292.985817 
z
" style="stroke: #4682b4; stroke-opacity: 0.2"/>
    </defs>
    <g clip-path="url(#p682e34340c)">
     <use xlink:href="#m358ebae3e8" x="0" y="356.078437" style="fill: #4682b4; fill-opacity: 0.2; stroke: #4682b4; stroke-opacity: 0.2"/>
    </g>
   </g>
   <g id="FillBetweenPolyCollection_2">
    <defs>
     <path id="m09126fdea9" d="M 70.669261 -218.962577 
L 70.669261 -163.405023 
L 74.750804 -162.146857 
L 78.832347 -162.753258 
L 82.913889 -141.057704 
L 86.995432 -134.670122 
L 91.076975 -127.788159 
L 95.158518 -152.653061 
L 99.24006 -123.555314 
L 103.321603 -123.612764 
L 107.403146 -129.669881 
L 111.484688 -119.076978 
L 115.566231 -117.585025 
L 119.647774 -116.438628 
L 123.729316 -115.417915 
L 127.810859 -121.674695 
L 131.892402 -123.071208 
L 135.973945 -117.859311 
L 140.055487 -116.468151 
L 144.13703 -116.357965 
L 148.218573 -129.399403 
L 152.300115 -117.724428 
L 156.381658 -119.003648 
L 160.463201 -123.558715 
L 164.544743 -121.208332 
L 168.626286 -123.110962 
L 172.707829 -125.315023 
L 176.789372 -122.233946 
L 180.870914 -126.98964 
L 184.952457 -128.598832 
L 189.034 -125.005895 
L 193.115542 -139.921455 
L 197.197085 -146.625713 
L 201.278628 -146.944772 
L 205.36017 -136.665018 
L 209.441713 -132.314056 
L 213.523256 -117.699557 
L 217.604799 -124.650731 
L 221.686341 -122.758141 
L 225.767884 -126.882929 
L 229.849427 -119.247472 
L 233.930969 -122.256331 
L 238.012512 -124.518113 
L 242.094055 -122.468752 
L 246.175597 -124.845594 
L 250.25714 -129.920766 
L 254.338683 -132.948635 
L 258.420226 -125.497447 
L 262.501768 -125.343493 
L 266.583311 -125.918722 
L 270.664854 -142.448454 
L 274.746396 -128.284871 
L 278.827939 -130.425695 
L 282.909482 -132.098153 
L 286.991024 -128.282843 
L 291.072567 -130.429739 
L 295.15411 -125.961732 
L 299.235653 -124.937131 
L 303.317195 -130.421496 
L 307.398738 -132.529113 
L 311.480281 -134.609503 
L 315.561823 -132.670436 
L 319.643366 -138.008386 
L 323.724909 -137.208055 
L 327.806451 -135.195511 
L 331.887994 -137.83739 
L 335.969537 -136.627775 
L 340.05108 -138.059166 
L 344.132622 -136.754446 
L 348.214165 -133.669271 
L 352.295708 -134.909371 
L 356.37725 -132.373026 
L 360.458793 -133.894097 
L 364.540336 -133.218979 
L 368.621878 -134.561711 
L 372.703421 -133.190309 
L 376.784964 -133.511884 
L 380.866507 -135.260737 
L 384.948049 -136.067001 
L 389.029592 -132.682627 
L 393.111135 -136.580063 
L 397.192677 -139.295988 
L 401.27422 -135.41836 
L 405.355763 -135.186927 
L 409.437305 -136.80358 
L 413.518848 -135.343266 
L 417.600391 -149.59956 
L 421.681934 -147.537715 
L 425.763476 -139.632418 
L 429.845019 -138.801063 
L 433.926562 -139.568515 
L 438.008104 -141.557012 
L 442.089647 -139.60224 
L 446.17119 -140.348647 
L 450.252732 -140.572851 
L 454.334275 -140.275127 
L 458.415818 -141.715746 
L 462.497361 -140.975154 
L 466.578903 -141.426394 
L 470.660446 -140.144222 
L 474.741989 -140.825144 
L 474.741989 -184.107761 
L 474.741989 -184.107761 
L 470.660446 -183.705965 
L 466.578903 -184.333655 
L 462.497361 -184.333723 
L 458.415818 -184.748944 
L 454.334275 -183.7977 
L 450.252732 -183.687303 
L 446.17119 -183.741591 
L 442.089647 -183.89541 
L 438.008104 -184.145846 
L 433.926562 -183.281417 
L 429.845019 -182.727829 
L 425.763476 -185.522371 
L 421.681934 -189.652076 
L 417.600391 -194.359869 
L 413.518848 -186.225738 
L 409.437305 -188.558549 
L 405.355763 -187.514571 
L 401.27422 -186.712524 
L 397.192677 -191.533897 
L 393.111135 -188.856472 
L 389.029592 -183.189778 
L 384.948049 -186.707845 
L 380.866507 -185.664523 
L 376.784964 -182.592945 
L 372.703421 -182.812595 
L 368.621878 -184.008362 
L 364.540336 -184.453885 
L 360.458793 -184.938775 
L 356.37725 -183.400548 
L 352.295708 -183.623564 
L 348.214165 -185.345902 
L 344.132622 -186.631919 
L 340.05108 -185.858411 
L 335.969537 -188.367348 
L 331.887994 -188.599524 
L 327.806451 -187.391218 
L 323.724909 -186.905006 
L 319.643366 -190.156084 
L 315.561823 -185.588631 
L 311.480281 -192.088548 
L 307.398738 -186.885536 
L 303.317195 -182.966581 
L 299.235653 -179.822115 
L 295.15411 -183.375458 
L 291.072567 -193.407245 
L 286.991024 -191.37159 
L 282.909482 -196.167015 
L 278.827939 -193.765638 
L 274.746396 -192.640403 
L 270.664854 -205.326548 
L 266.583311 -178.299572 
L 262.501768 -178.63028 
L 258.420226 -181.391921 
L 254.338683 -191.870081 
L 250.25714 -181.869187 
L 246.175597 -173.658162 
L 242.094055 -169.356299 
L 238.012512 -179.847372 
L 233.930969 -179.719005 
L 229.849427 -181.965427 
L 225.767884 -178.346014 
L 221.686341 -176.404665 
L 217.604799 -180.263483 
L 213.523256 -178.397814 
L 209.441713 -192.383973 
L 205.36017 -190.95586 
L 201.278628 -210.444161 
L 197.197085 -234.508764 
L 193.115542 -183.407035 
L 189.034 -179.224474 
L 184.952457 -176.838175 
L 180.870914 -170.129431 
L 176.789372 -179.058936 
L 172.707829 -178.485926 
L 168.626286 -169.913751 
L 164.544743 -170.674698 
L 160.463201 -174.690924 
L 156.381658 -173.152582 
L 152.300115 -175.554242 
L 148.218573 -177.064389 
L 144.13703 -173.507644 
L 140.055487 -170.395356 
L 135.973945 -172.300885 
L 131.892402 -177.541659 
L 127.810859 -187.974529 
L 123.729316 -172.326516 
L 119.647774 -178.400927 
L 115.566231 -180.501461 
L 111.484688 -180.028131 
L 107.403146 -187.99209 
L 103.321603 -189.654703 
L 99.24006 -188.383213 
L 95.158518 -221.341849 
L 91.076975 -194.015328 
L 86.995432 -204.997693 
L 82.913889 -207.933032 
L 78.832347 -215.896237 
L 74.750804 -218.283317 
L 70.669261 -218.962577 
z
" style="stroke: #ff4500; stroke-opacity: 0.2"/>
    </defs>
    <g clip-path="url(#p682e34340c)">
     <use xlink:href="#m09126fdea9" x="0" y="356.078437" style="fill: #ff4500; fill-opacity: 0.2; stroke: #ff4500; stroke-opacity: 0.2"/>
    </g>
   </g>
   <g id="matplotlib.axis_1">
    <g id="xtick_1">
     <g id="line2d_1">
      <path d="M 70.669261 317.877656 
L 70.669261 50.96 
" clip-path="url(#p682e34340c)" style="fill: none; stroke: #b0b0b0; stroke-opacity: 0.3; stroke-width: 0.8; stroke-linecap: square"/>
     </g>
     <g id="line2d_2">
      <defs>
       <path id="m782f7f396e" d="M 0 0 
L 0 3.5 
" style="stroke: #000000; stroke-width: 0.8"/>
      </defs>
      <g>
       <use xlink:href="#m782f7f396e" x="70.669261" y="317.877656" style="stroke: #000000; stroke-width: 0.8"/>
      </g>
     </g>
     <g id="text_1">
      <!-- 0 -->
      <g transform="translate(67.488011 332.475312) scale(0.1 -0.1)">
       <defs>
        <path id="DejaVuSans-13" d="M 2034 4250 
Q 1547 4250 1301 3770 
Q 1056 3291 1056 2328 
Q 1056 1369 1301 889 
Q 1547 409 2034 409 
Q 2525 409 2770 889 
Q 3016 1369 3016 2328 
Q 3016 3291 2770 3770 
Q 2525 4250 2034 4250 
z
M 2034 4750 
Q 2819 4750 3233 4129 
Q 3647 3509 3647 2328 
Q 3647 1150 3233 529 
Q 2819 -91 2034 -91 
Q 1250 -91 836 529 
Q 422 1150 422 2328 
Q 422 3509 836 4129 
Q 1250 4750 2034 4750 
z
" transform="scale(0.015625)"/>
       </defs>
       <use xlink:href="#DejaVuSans-13"/>
      </g>
     </g>
    </g>
    <g id="xtick_2">
     <g id="line2d_3">
      <path d="M 152.300115 317.877656 
L 152.300115 50.96 
" clip-path="url(#p682e34340c)" style="fill: none; stroke: #b0b0b0; stroke-opacity: 0.3; stroke-width: 0.8; stroke-linecap: square"/>
     </g>
     <g id="line2d_4">
      <g>
       <use xlink:href="#m782f7f396e" x="152.300115" y="317.877656" style="stroke: #000000; stroke-width: 0.8"/>
      </g>
     </g>
     <g id="text_2">
      <!-- 20 -->
      <g transform="translate(145.937615 332.475312) scale(0.1 -0.1)">
       <defs>
        <path id="DejaVuSans-15" d="M 1228 531 
L 3431 531 
L 3431 0 
L 469 0 
L 469 531 
Q 828 903 1448 1529 
Q 2069 2156 2228 2338 
Q 2531 2678 2651 2914 
Q 2772 3150 2772 3378 
Q 2772 3750 2511 3984 
Q 2250 4219 1831 4219 
Q 1534 4219 1204 4116 
Q 875 4013 500 3803 
L 500 4441 
Q 881 4594 1212 4672 
Q 1544 4750 1819 4750 
Q 2544 4750 2975 4387 
Q 3406 4025 3406 3419 
Q 3406 3131 3298 2873 
Q 3191 2616 2906 2266 
Q 2828 2175 2409 1742 
Q 1991 1309 1228 531 
z
" transform="scale(0.015625)"/>
       </defs>
       <use xlink:href="#DejaVuSans-15"/>
       <use xlink:href="#DejaVuSans-13" transform="translate(63.625 0)"/>
      </g>
     </g>
    </g>
    <g id="xtick_3">
     <g id="line2d_5">
      <path d="M 233.930969 317.877656 
L 233.930969 50.96 
" clip-path="url(#p682e34340c)" style="fill: none; stroke: #b0b0b0; stroke-opacity: 0.3; stroke-width: 0.8; stroke-linecap: square"/>
     </g>
     <g id="line2d_6">
      <g>
       <use xlink:href="#m782f7f396e" x="233.930969" y="317.877656" style="stroke: #000000; stroke-width: 0.8"/>
      </g>
     </g>
     <g id="text_3">
      <!-- 40 -->
      <g transform="translate(227.568469 332.475312) scale(0.1 -0.1)">
       <defs>
        <path id="DejaVuSans-17" d="M 2419 4116 
L 825 1625 
L 2419 1625 
L 2419 4116 
z
M 2253 4666 
L 3047 4666 
L 3047 1625 
L 3713 1625 
L 3713 1100 
L 3047 1100 
L 3047 0 
L 2419 0 
L 2419 1100 
L 313 1100 
L 313 1709 
L 2253 4666 
z
" transform="scale(0.015625)"/>
       </defs>
       <use xlink:href="#DejaVuSans-17"/>
       <use xlink:href="#DejaVuSans-13" transform="translate(63.625 0)"/>
      </g>
     </g>
    </g>
    <g id="xtick_4">
     <g id="line2d_7">
      <path d="M 315.561823 317.877656 
L 315.561823 50.96 
" clip-path="url(#p682e34340c)" style="fill: none; stroke: #b0b0b0; stroke-opacity: 0.3; stroke-width: 0.8; stroke-linecap: square"/>
     </g>
     <g id="line2d_8">
      <g>
       <use xlink:href="#m782f7f396e" x="315.561823" y="317.877656" style="stroke: #000000; stroke-width: 0.8"/>
      </g>
     </g>
     <g id="text_4">
      <!-- 60 -->
      <g transform="translate(309.199323 332.475312) scale(0.1 -0.1)">
       <defs>
        <path id="DejaVuSans-19" d="M 2113 2584 
Q 1688 2584 1439 2293 
Q 1191 2003 1191 1497 
Q 1191 994 1439 701 
Q 1688 409 2113 409 
Q 2538 409 2786 701 
Q 3034 994 3034 1497 
Q 3034 2003 2786 2293 
Q 2538 2584 2113 2584 
z
M 3366 4563 
L 3366 3988 
Q 3128 4100 2886 4159 
Q 2644 4219 2406 4219 
Q 1781 4219 1451 3797 
Q 1122 3375 1075 2522 
Q 1259 2794 1537 2939 
Q 1816 3084 2150 3084 
Q 2853 3084 3261 2657 
Q 3669 2231 3669 1497 
Q 3669 778 3244 343 
Q 2819 -91 2113 -91 
Q 1303 -91 875 529 
Q 447 1150 447 2328 
Q 447 3434 972 4092 
Q 1497 4750 2381 4750 
Q 2619 4750 2861 4703 
Q 3103 4656 3366 4563 
z
" transform="scale(0.015625)"/>
       </defs>
       <use xlink:href="#DejaVuSans-19"/>
       <use xlink:href="#DejaVuSans-13" transform="translate(63.625 0)"/>
      </g>
     </g>
    </g>
    <g id="xtick_5">
     <g id="line2d_9">
      <path d="M 397.192677 317.877656 
L 397.192677 50.96 
" clip-path="url(#p682e34340c)" style="fill: none; stroke: #b0b0b0; stroke-opacity: 0.3; stroke-width: 0.8; stroke-linecap: square"/>
     </g>
     <g id="line2d_10">
      <g>
       <use xlink:href="#m782f7f396e" x="397.192677" y="317.877656" style="stroke: #000000; stroke-width: 0.8"/>
      </g>
     </g>
     <g id="text_5">
      <!-- 80 -->
      <g transform="translate(390.830177 332.475312) scale(0.1 -0.1)">
       <defs>
        <path id="DejaVuSans-1b" d="M 2034 2216 
Q 1584 2216 1326 1975 
Q 1069 1734 1069 1313 
Q 1069 891 1326 650 
Q 1584 409 2034 409 
Q 2484 409 2743 651 
Q 3003 894 3003 1313 
Q 3003 1734 2745 1975 
Q 2488 2216 2034 2216 
z
M 1403 2484 
Q 997 2584 770 2862 
Q 544 3141 544 3541 
Q 544 4100 942 4425 
Q 1341 4750 2034 4750 
Q 2731 4750 3128 4425 
Q 3525 4100 3525 3541 
Q 3525 3141 3298 2862 
Q 3072 2584 2669 2484 
Q 3125 2378 3379 2068 
Q 3634 1759 3634 1313 
Q 3634 634 3220 271 
Q 2806 -91 2034 -91 
Q 1263 -91 848 271 
Q 434 634 434 1313 
Q 434 1759 690 2068 
Q 947 2378 1403 2484 
z
M 1172 3481 
Q 1172 3119 1398 2916 
Q 1625 2713 2034 2713 
Q 2441 2713 2670 2916 
Q 2900 3119 2900 3481 
Q 2900 3844 2670 4047 
Q 2441 4250 2034 4250 
Q 1625 4250 1398 4047 
Q 1172 3844 1172 3481 
z
" transform="scale(0.015625)"/>
       </defs>
       <use xlink:href="#DejaVuSans-1b"/>
       <use xlink:href="#DejaVuSans-13" transform="translate(63.625 0)"/>
      </g>
     </g>
    </g>
    <g id="xtick_6">
     <g id="line2d_11">
      <path d="M 478.823531 317.877656 
L 478.823531 50.96 
" clip-path="url(#p682e34340c)" style="fill: none; stroke: #b0b0b0; stroke-opacity: 0.3; stroke-width: 0.8; stroke-linecap: square"/>
     </g>
     <g id="line2d_12">
      <g>
       <use xlink:href="#m782f7f396e" x="478.823531" y="317.877656" style="stroke: #000000; stroke-width: 0.8"/>
      </g>
     </g>
     <g id="text_6">
      <!-- 100 -->
      <g transform="translate(469.279781 332.475312) scale(0.1 -0.1)">
       <defs>
        <path id="DejaVuSans-14" d="M 794 531 
L 1825 531 
L 1825 4091 
L 703 3866 
L 703 4441 
L 1819 4666 
L 2450 4666 
L 2450 531 
L 3481 531 
L 3481 0 
L 794 0 
L 794 531 
z
" transform="scale(0.015625)"/>
       </defs>
       <use xlink:href="#DejaVuSans-14"/>
       <use xlink:href="#DejaVuSans-13" transform="translate(63.625 0)"/>
       <use xlink:href="#DejaVuSans-13" transform="translate(127.25 0)"/>
      </g>
     </g>
    </g>
    <g id="text_7">
     <!-- Epoch -->
     <g transform="translate(257.394687 346.476094) scale(0.1 -0.1)">
      <defs>
       <path id="DejaVuSans-28" d="M 628 4666 
L 3578 4666 
L 3578 4134 
L 1259 4134 
L 1259 2753 
L 3481 2753 
L 3481 2222 
L 1259 2222 
L 1259 531 
L 3634 531 
L 3634 0 
L 628 0 
L 628 4666 
z
" transform="scale(0.015625)"/>
       <path id="DejaVuSans-53" d="M 1159 525 
L 1159 -1331 
L 581 -1331 
L 581 3500 
L 1159 3500 
L 1159 2969 
Q 1341 3281 1617 3432 
Q 1894 3584 2278 3584 
Q 2916 3584 3314 3078 
Q 3713 2572 3713 1747 
Q 3713 922 3314 415 
Q 2916 -91 2278 -91 
Q 1894 -91 1617 61 
Q 1341 213 1159 525 
z
M 3116 1747 
Q 3116 2381 2855 2742 
Q 2594 3103 2138 3103 
Q 1681 3103 1420 2742 
Q 1159 2381 1159 1747 
Q 1159 1113 1420 752 
Q 1681 391 2138 391 
Q 2594 391 2855 752 
Q 3116 1113 3116 1747 
z
" transform="scale(0.015625)"/>
       <path id="DejaVuSans-52" d="M 1959 3097 
Q 1497 3097 1228 2736 
Q 959 2375 959 1747 
Q 959 1119 1226 758 
Q 1494 397 1959 397 
Q 2419 397 2687 759 
Q 2956 1122 2956 1747 
Q 2956 2369 2687 2733 
Q 2419 3097 1959 3097 
z
M 1959 3584 
Q 2709 3584 3137 3096 
Q 3566 2609 3566 1747 
Q 3566 888 3137 398 
Q 2709 -91 1959 -91 
Q 1206 -91 779 398 
Q 353 888 353 1747 
Q 353 2609 779 3096 
Q 1206 3584 1959 3584 
z
" transform="scale(0.015625)"/>
       <path id="DejaVuSans-46" d="M 3122 3366 
L 3122 2828 
Q 2878 2963 2633 3030 
Q 2388 3097 2138 3097 
Q 1578 3097 1268 2742 
Q 959 2388 959 1747 
Q 959 1106 1268 751 
Q 1578 397 2138 397 
Q 2388 397 2633 464 
Q 2878 531 3122 666 
L 3122 134 
Q 2881 22 2623 -34 
Q 2366 -91 2075 -91 
Q 1284 -91 818 406 
Q 353 903 353 1747 
Q 353 2603 823 3093 
Q 1294 3584 2113 3584 
Q 2378 3584 2631 3529 
Q 2884 3475 3122 3366 
z
" transform="scale(0.015625)"/>
       <path id="DejaVuSans-4b" d="M 3513 2113 
L 3513 0 
L 2938 0 
L 2938 2094 
Q 2938 2591 2744 2837 
Q 2550 3084 2163 3084 
Q 1697 3084 1428 2787 
Q 1159 2491 1159 1978 
L 1159 0 
L 581 0 
L 581 4863 
L 1159 4863 
L 1159 2956 
Q 1366 3272 1645 3428 
Q 1925 3584 2291 3584 
Q 2894 3584 3203 3211 
Q 3513 2838 3513 2113 
z
" transform="scale(0.015625)"/>
      </defs>
      <use xlink:href="#DejaVuSans-28"/>
      <use xlink:href="#DejaVuSans-53" transform="translate(63.1875 0)"/>
      <use xlink:href="#DejaVuSans-52" transform="translate(126.671875 0)"/>
      <use xlink:href="#DejaVuSans-46" transform="translate(187.859375 0)"/>
      <use xlink:href="#DejaVuSans-4b" transform="translate(242.84375 0)"/>
     </g>
    </g>
   </g>
   <g id="matplotlib.axis_2">
    <g id="ytick_1">
     <g id="line2d_13">
      <path d="M 50.465625 313.437869 
L 494.945625 313.437869 
" clip-path="url(#p682e34340c)" style="fill: none; stroke: #b0b0b0; stroke-opacity: 0.3; stroke-width: 0.8; stroke-linecap: square"/>
     </g>
     <g id="line2d_14">
      <defs>
       <path id="m5b712fb08a" d="M 0 0 
L -3.5 0 
" style="stroke: #000000; stroke-width: 0.8"/>
      </defs>
      <g>
       <use xlink:href="#m5b712fb08a" x="50.465625" y="313.437869" style="stroke: #000000; stroke-width: 0.8"/>
      </g>
     </g>
     <g id="text_8">
      <!-- 0.00 -->
      <g transform="translate(21.2 317.236697) scale(0.1 -0.1)">
       <defs>
        <path id="DejaVuSans-11" d="M 684 794 
L 1344 794 
L 1344 0 
L 684 0 
L 684 794 
z
" transform="scale(0.015625)"/>
       </defs>
       <use xlink:href="#DejaVuSans-13"/>
       <use xlink:href="#DejaVuSans-11" transform="translate(63.625 0)"/>
       <use xlink:href="#DejaVuSans-13" transform="translate(95.40625 0)"/>
       <use xlink:href="#DejaVuSans-13" transform="translate(159.03125 0)"/>
      </g>
     </g>
    </g>
    <g id="ytick_2">
     <g id="line2d_15">
      <path d="M 50.465625 255.934276 
L 494.945625 255.934276 
" clip-path="url(#p682e34340c)" style="fill: none; stroke: #b0b0b0; stroke-opacity: 0.3; stroke-width: 0.8; stroke-linecap: square"/>
     </g>
     <g id="line2d_16">
      <g>
       <use xlink:href="#m5b712fb08a" x="50.465625" y="255.934276" style="stroke: #000000; stroke-width: 0.8"/>
      </g>
     </g>
     <g id="text_9">
      <!-- 0.02 -->
      <g transform="translate(21.2 259.733104) scale(0.1 -0.1)">
       <use xlink:href="#DejaVuSans-13"/>
       <use xlink:href="#DejaVuSans-11" transform="translate(63.625 0)"/>
       <use xlink:href="#DejaVuSans-13" transform="translate(95.40625 0)"/>
       <use xlink:href="#DejaVuSans-15" transform="translate(159.03125 0)"/>
      </g>
     </g>
    </g>
    <g id="ytick_3">
     <g id="line2d_17">
      <path d="M 50.465625 198.430683 
L 494.945625 198.430683 
" clip-path="url(#p682e34340c)" style="fill: none; stroke: #b0b0b0; stroke-opacity: 0.3; stroke-width: 0.8; stroke-linecap: square"/>
     </g>
     <g id="line2d_18">
      <g>
       <use xlink:href="#m5b712fb08a" x="50.465625" y="198.430683" style="stroke: #000000; stroke-width: 0.8"/>
      </g>
     </g>
     <g id="text_10">
      <!-- 0.04 -->
      <g transform="translate(21.2 202.229511) scale(0.1 -0.1)">
       <use xlink:href="#DejaVuSans-13"/>
       <use xlink:href="#DejaVuSans-11" transform="translate(63.625 0)"/>
       <use xlink:href="#DejaVuSans-13" transform="translate(95.40625 0)"/>
       <use xlink:href="#DejaVuSans-17" transform="translate(159.03125 0)"/>
      </g>
     </g>
    </g>
    <g id="ytick_4">
     <g id="line2d_19">
      <path d="M 50.465625 140.92709 
L 494.945625 140.92709 
" clip-path="url(#p682e34340c)" style="fill: none; stroke: #b0b0b0; stroke-opacity: 0.3; stroke-width: 0.8; stroke-linecap: square"/>
     </g>
     <g id="line2d_20">
      <g>
       <use xlink:href="#m5b712fb08a" x="50.465625" y="140.92709" style="stroke: #000000; stroke-width: 0.8"/>
      </g>
     </g>
     <g id="text_11">
      <!-- 0.06 -->
      <g transform="translate(21.2 144.725918) scale(0.1 -0.1)">
       <use xlink:href="#DejaVuSans-13"/>
       <use xlink:href="#DejaVuSans-11" transform="translate(63.625 0)"/>
       <use xlink:href="#DejaVuSans-13" transform="translate(95.40625 0)"/>
       <use xlink:href="#DejaVuSans-19" transform="translate(159.03125 0)"/>
      </g>
     </g>
    </g>
    <g id="ytick_5">
     <g id="line2d_21">
      <path d="M 50.465625 83.423497 
L 494.945625 83.423497 
" clip-path="url(#p682e34340c)" style="fill: none; stroke: #b0b0b0; stroke-opacity: 0.3; stroke-width: 0.8; stroke-linecap: square"/>
     </g>
     <g id="line2d_22">
      <g>
       <use xlink:href="#m5b712fb08a" x="50.465625" y="83.423497" style="stroke: #000000; stroke-width: 0.8"/>
      </g>
     </g>
     <g id="text_12">
      <!-- 0.08 -->
      <g transform="translate(21.2 87.222325) scale(0.1 -0.1)">
       <use xlink:href="#DejaVuSans-13"/>
       <use xlink:href="#DejaVuSans-11" transform="translate(63.625 0)"/>
       <use xlink:href="#DejaVuSans-13" transform="translate(95.40625 0)"/>
       <use xlink:href="#DejaVuSans-1b" transform="translate(159.03125 0)"/>
      </g>
     </g>
    </g>
    <g id="text_13">
     <!-- Loss -->
     <g transform="translate(14.797656 195.386016) rotate(-90) scale(0.1 -0.1)">
      <defs>
       <path id="DejaVuSans-2f" d="M 628 4666 
L 1259 4666 
L 1259 531 
L 3531 531 
L 3531 0 
L 628 0 
L 628 4666 
z
" transform="scale(0.015625)"/>
       <path id="DejaVuSans-56" d="M 2834 3397 
L 2834 2853 
Q 2591 2978 2328 3040 
Q 2066 3103 1784 3103 
Q 1356 3103 1142 2972 
Q 928 2841 928 2578 
Q 928 2378 1081 2264 
Q 1234 2150 1697 2047 
L 1894 2003 
Q 2506 1872 2764 1633 
Q 3022 1394 3022 966 
Q 3022 478 2636 193 
Q 2250 -91 1575 -91 
Q 1294 -91 989 -36 
Q 684 19 347 128 
L 347 722 
Q 666 556 975 473 
Q 1284 391 1588 391 
Q 1994 391 2212 530 
Q 2431 669 2431 922 
Q 2431 1156 2273 1281 
Q 2116 1406 1581 1522 
L 1381 1569 
Q 847 1681 609 1914 
Q 372 2147 372 2553 
Q 372 3047 722 3315 
Q 1072 3584 1716 3584 
Q 2034 3584 2315 3537 
Q 2597 3491 2834 3397 
z
" transform="scale(0.015625)"/>
      </defs>
      <use xlink:href="#DejaVuSans-2f"/>
      <use xlink:href="#DejaVuSans-52" transform="translate(53.96875 0)"/>
      <use xlink:href="#DejaVuSans-56" transform="translate(115.15625 0)"/>
      <use xlink:href="#DejaVuSans-56" transform="translate(167.25 0)"/>
     </g>
    </g>
   </g>
   <g id="line2d_23">
    <path d="M 70.669261 127.674255 
L 74.750804 169.374933 
L 78.832347 174.360852 
L 82.913889 209.396816 
L 86.995432 253.056519 
L 91.076975 267.344689 
L 95.158518 272.546352 
L 99.24006 270.442388 
L 103.321603 281.591449 
L 107.403146 287.23391 
L 111.484688 289.904589 
L 115.566231 291.886752 
L 119.647774 291.139504 
L 123.729316 293.278508 
L 127.810859 294.274557 
L 131.892402 294.82248 
L 135.973945 295.53951 
L 140.055487 296.487257 
L 144.13703 296.486926 
L 148.218573 296.678307 
L 152.300115 296.92203 
L 156.381658 297.892688 
L 160.463201 298.013339 
L 164.544743 299.041607 
L 168.626286 299.020047 
L 172.707829 299.141739 
L 176.789372 299.419756 
L 180.870914 300.005241 
L 184.952457 300.209216 
L 189.034 300.39619 
L 193.115542 300.343694 
L 197.197085 295.093935 
L 201.278628 285.690529 
L 205.36017 294.162686 
L 209.441713 296.290783 
L 213.523256 298.328887 
L 217.604799 299.619861 
L 221.686341 300.850882 
L 225.767884 300.857499 
L 229.849427 301.087404 
L 233.930969 300.41382 
L 238.012512 301.112366 
L 242.094055 301.47396 
L 246.175597 301.698523 
L 250.25714 302.087087 
L 254.338683 302.006172 
L 258.420226 301.605338 
L 262.501768 302.287439 
L 266.583311 302.518379 
L 270.664854 302.658853 
L 274.746396 288.330958 
L 278.827939 296.437114 
L 282.909482 299.533049 
L 286.991024 301.223893 
L 291.072567 301.773092 
L 295.15411 302.411695 
L 299.235653 302.136441 
L 303.317195 302.335651 
L 307.398738 302.664288 
L 311.480281 301.411012 
L 315.561823 301.851375 
L 319.643366 302.601488 
L 323.724909 303.009317 
L 327.806451 303.024003 
L 331.887994 303.039346 
L 335.969537 303.482305 
L 340.05108 303.448925 
L 344.132622 303.234993 
L 348.214165 303.700465 
L 352.295708 303.629668 
L 356.37725 303.884446 
L 360.458793 303.779906 
L 364.540336 303.793071 
L 368.621878 303.818592 
L 372.703421 303.824563 
L 376.784964 303.751911 
L 380.866507 304.067921 
L 384.948049 303.766491 
L 389.029592 303.684393 
L 393.111135 303.973815 
L 397.192677 304.098007 
L 401.27422 304.117502 
L 405.355763 304.178576 
L 409.437305 304.066723 
L 413.518848 304.029052 
L 417.600391 303.771542 
L 421.681934 301.544741 
L 425.763476 302.492503 
L 429.845019 303.3465 
L 433.926562 303.692078 
L 438.008104 303.851051 
L 442.089647 303.868761 
L 446.17119 303.876781 
L 450.252732 304.036618 
L 454.334275 304.210959 
L 458.415818 304.051455 
L 462.497361 304.168132 
L 466.578903 304.138826 
L 470.660446 303.939157 
L 474.741989 304.141104 
" clip-path="url(#p682e34340c)" style="fill: none; stroke: #4682b4; stroke-width: 2; stroke-linecap: square"/>
   </g>
   <g id="line2d_24">
    <path d="M 70.669261 164.894637 
L 74.750804 165.86335 
L 78.832347 166.75369 
L 82.913889 181.58307 
L 86.995432 186.24453 
L 91.076975 195.176694 
L 95.158518 169.080983 
L 99.24006 200.109174 
L 103.321603 199.444704 
L 107.403146 197.247452 
L 111.484688 206.525883 
L 115.566231 207.035194 
L 119.647774 208.65866 
L 123.729316 212.206222 
L 127.810859 201.253826 
L 131.892402 205.772004 
L 135.973945 210.99834 
L 140.055487 212.646684 
L 144.13703 211.145633 
L 148.218573 202.846542 
L 152.300115 209.439102 
L 156.381658 210.000323 
L 160.463201 206.953618 
L 164.544743 210.136923 
L 168.626286 209.566081 
L 172.707829 204.177963 
L 176.789372 205.431997 
L 180.870914 207.518902 
L 184.952457 203.359934 
L 189.034 203.963253 
L 193.115542 194.414193 
L 197.197085 165.511199 
L 201.278628 177.383971 
L 205.36017 192.267998 
L 209.441713 193.729423 
L 213.523256 208.029752 
L 217.604799 203.62133 
L 221.686341 206.497035 
L 225.767884 203.463966 
L 229.849427 205.471988 
L 233.930969 205.090769 
L 238.012512 203.895695 
L 242.094055 210.165912 
L 246.175597 206.826559 
L 250.25714 200.183461 
L 254.338683 193.66908 
L 258.420226 202.633753 
L 262.501768 204.091551 
L 266.583311 203.96929 
L 270.664854 182.190937 
L 274.746396 195.6158 
L 278.827939 193.982771 
L 282.909482 191.945853 
L 286.991024 196.251221 
L 291.072567 194.159946 
L 295.15411 201.409843 
L 299.235653 203.698815 
L 303.317195 199.384399 
L 307.398738 196.371113 
L 311.480281 192.729412 
L 315.561823 196.948904 
L 319.643366 191.996202 
L 323.724909 194.021907 
L 327.806451 194.785073 
L 331.887994 192.85998 
L 335.969537 193.580876 
L 340.05108 194.119649 
L 344.132622 194.385255 
L 348.214165 196.570851 
L 352.295708 196.81197 
L 356.37725 198.19165 
L 360.458793 196.662002 
L 364.540336 197.242006 
L 368.621878 196.793401 
L 372.703421 198.076986 
L 376.784964 198.026023 
L 380.866507 195.615808 
L 384.948049 194.691014 
L 389.029592 198.142235 
L 393.111135 193.36017 
L 397.192677 190.663495 
L 401.27422 195.012995 
L 405.355763 194.727689 
L 409.437305 193.397373 
L 413.518848 195.293935 
L 417.600391 184.098723 
L 421.681934 187.483542 
L 425.763476 193.501043 
L 429.845019 195.313992 
L 433.926562 194.653471 
L 438.008104 193.227008 
L 442.089647 194.329612 
L 446.17119 194.033319 
L 450.252732 193.94836 
L 454.334275 194.042024 
L 458.415818 192.846092 
L 462.497361 193.423999 
L 466.578903 193.198413 
L 470.660446 194.153344 
L 474.741989 193.611985 
" clip-path="url(#p682e34340c)" style="fill: none; stroke: #ff4500; stroke-width: 2; stroke-linecap: square"/>
   </g>
   <g id="line2d_25">
    <path d="M 140.055487 317.877656 
L 140.055487 50.96 
" clip-path="url(#p682e34340c)" style="fill: none; stroke-dasharray: 1.5,2.475; stroke-dashoffset: 0; stroke: #ff4500; stroke-width: 1.5"/>
   </g>
   <g id="patch_3">
    <path d="M 50.465625 317.877656 
L 50.465625 50.96 
" style="fill: none; stroke: #000000; stroke-width: 0.8; stroke-linejoin: miter; stroke-linecap: square"/>
   </g>
   <g id="patch_4">
    <path d="M 494.945625 317.877656 
L 494.945625 50.96 
" style="fill: none; stroke: #000000; stroke-width: 0.8; stroke-linejoin: miter; stroke-linecap: square"/>
   </g>
   <g id="patch_5">
    <path d="M 50.465625 317.877656 
L 494.945625 317.877656 
" style="fill: none; stroke: #000000; stroke-width: 0.8; stroke-linejoin: miter; stroke-linecap: square"/>
   </g>
   <g id="patch_6">
    <path d="M 50.465625 50.96 
L 494.945625 50.96 
" style="fill: none; stroke: #000000; stroke-width: 0.8; stroke-linejoin: miter; stroke-linecap: square"/>
   </g>
   <g id="text_14">
    <!-- Per-epoch Loss ± Batch Std -->
    <g transform="translate(190.054688 44.96) scale(0.12 -0.12)">
     <defs>
      <path id="DejaVuSans-33" d="M 1259 4147 
L 1259 2394 
L 2053 2394 
Q 2494 2394 2734 2622 
Q 2975 2850 2975 3272 
Q 2975 3691 2734 3919 
Q 2494 4147 2053 4147 
L 1259 4147 
z
M 628 4666 
L 2053 4666 
Q 2838 4666 3239 4311 
Q 3641 3956 3641 3272 
Q 3641 2581 3239 2228 
Q 2838 1875 2053 1875 
L 1259 1875 
L 1259 0 
L 628 0 
L 628 4666 
z
" transform="scale(0.015625)"/>
      <path id="DejaVuSans-48" d="M 3597 1894 
L 3597 1613 
L 953 1613 
Q 991 1019 1311 708 
Q 1631 397 2203 397 
Q 2534 397 2845 478 
Q 3156 559 3463 722 
L 3463 178 
Q 3153 47 2828 -22 
Q 2503 -91 2169 -91 
Q 1331 -91 842 396 
Q 353 884 353 1716 
Q 353 2575 817 3079 
Q 1281 3584 2069 3584 
Q 2775 3584 3186 3129 
Q 3597 2675 3597 1894 
z
M 3022 2063 
Q 3016 2534 2758 2815 
Q 2500 3097 2075 3097 
Q 1594 3097 1305 2825 
Q 1016 2553 972 2059 
L 3022 2063 
z
" transform="scale(0.015625)"/>
      <path id="DejaVuSans-55" d="M 2631 2963 
Q 2534 3019 2420 3045 
Q 2306 3072 2169 3072 
Q 1681 3072 1420 2755 
Q 1159 2438 1159 1844 
L 1159 0 
L 581 0 
L 581 3500 
L 1159 3500 
L 1159 2956 
Q 1341 3275 1631 3429 
Q 1922 3584 2338 3584 
Q 2397 3584 2469 3576 
Q 2541 3569 2628 3553 
L 2631 2963 
z
" transform="scale(0.015625)"/>
      <path id="DejaVuSans-10" d="M 313 2009 
L 1997 2009 
L 1997 1497 
L 313 1497 
L 313 2009 
z
" transform="scale(0.015625)"/>
      <path id="DejaVuSans-3" transform="scale(0.015625)"/>
      <path id="DejaVuSans-73" d="M 2944 4013 
L 2944 2803 
L 4684 2803 
L 4684 2272 
L 2944 2272 
L 2944 1063 
L 2419 1063 
L 2419 2272 
L 678 2272 
L 678 2803 
L 2419 2803 
L 2419 4013 
L 2944 4013 
z
M 678 531 
L 4684 531 
L 4684 0 
L 678 0 
L 678 531 
z
" transform="scale(0.015625)"/>
      <path id="DejaVuSans-25" d="M 1259 2228 
L 1259 519 
L 2272 519 
Q 2781 519 3026 730 
Q 3272 941 3272 1375 
Q 3272 1813 3026 2020 
Q 2781 2228 2272 2228 
L 1259 2228 
z
M 1259 4147 
L 1259 2741 
L 2194 2741 
Q 2656 2741 2882 2914 
Q 3109 3088 3109 3444 
Q 3109 3797 2882 3972 
Q 2656 4147 2194 4147 
L 1259 4147 
z
M 628 4666 
L 2241 4666 
Q 2963 4666 3353 4366 
Q 3744 4066 3744 3513 
Q 3744 3084 3544 2831 
Q 3344 2578 2956 2516 
Q 3422 2416 3680 2098 
Q 3938 1781 3938 1306 
Q 3938 681 3513 340 
Q 3088 0 2303 0 
L 628 0 
L 628 4666 
z
" transform="scale(0.015625)"/>
      <path id="DejaVuSans-44" d="M 2194 1759 
Q 1497 1759 1228 1600 
Q 959 1441 959 1056 
Q 959 750 1161 570 
Q 1363 391 1709 391 
Q 2188 391 2477 730 
Q 2766 1069 2766 1631 
L 2766 1759 
L 2194 1759 
z
M 3341 1997 
L 3341 0 
L 2766 0 
L 2766 531 
Q 2569 213 2275 61 
Q 1981 -91 1556 -91 
Q 1019 -91 701 211 
Q 384 513 384 1019 
Q 384 1609 779 1909 
Q 1175 2209 1959 2209 
L 2766 2209 
L 2766 2266 
Q 2766 2663 2505 2880 
Q 2244 3097 1772 3097 
Q 1472 3097 1187 3025 
Q 903 2953 641 2809 
L 641 3341 
Q 956 3463 1253 3523 
Q 1550 3584 1831 3584 
Q 2591 3584 2966 3190 
Q 3341 2797 3341 1997 
z
" transform="scale(0.015625)"/>
      <path id="DejaVuSans-57" d="M 1172 4494 
L 1172 3500 
L 2356 3500 
L 2356 3053 
L 1172 3053 
L 1172 1153 
Q 1172 725 1289 603 
Q 1406 481 1766 481 
L 2356 481 
L 2356 0 
L 1766 0 
Q 1100 0 847 248 
Q 594 497 594 1153 
L 594 3053 
L 172 3053 
L 172 3500 
L 594 3500 
L 594 4494 
L 1172 4494 
z
" transform="scale(0.015625)"/>
      <path id="DejaVuSans-36" d="M 3425 4513 
L 3425 3897 
Q 3066 4069 2747 4153 
Q 2428 4238 2131 4238 
Q 1616 4238 1336 4038 
Q 1056 3838 1056 3469 
Q 1056 3159 1242 3001 
Q 1428 2844 1947 2747 
L 2328 2669 
Q 3034 2534 3370 2195 
Q 3706 1856 3706 1288 
Q 3706 609 3251 259 
Q 2797 -91 1919 -91 
Q 1588 -91 1214 -16 
Q 841 59 441 206 
L 441 856 
Q 825 641 1194 531 
Q 1563 422 1919 422 
Q 2459 422 2753 634 
Q 3047 847 3047 1241 
Q 3047 1584 2836 1778 
Q 2625 1972 2144 2069 
L 1759 2144 
Q 1053 2284 737 2584 
Q 422 2884 422 3419 
Q 422 4038 858 4394 
Q 1294 4750 2059 4750 
Q 2388 4750 2728 4690 
Q 3069 4631 3425 4513 
z
" transform="scale(0.015625)"/>
      <path id="DejaVuSans-47" d="M 2906 2969 
L 2906 4863 
L 3481 4863 
L 3481 0 
L 2906 0 
L 2906 525 
Q 2725 213 2448 61 
Q 2172 -91 1784 -91 
Q 1150 -91 751 415 
Q 353 922 353 1747 
Q 353 2572 751 3078 
Q 1150 3584 1784 3584 
Q 2172 3584 2448 3432 
Q 2725 3281 2906 2969 
z
M 947 1747 
Q 947 1113 1208 752 
Q 1469 391 1925 391 
Q 2381 391 2643 752 
Q 2906 1113 2906 1747 
Q 2906 2381 2643 2742 
Q 2381 3103 1925 3103 
Q 1469 3103 1208 2742 
Q 947 2381 947 1747 
z
" transform="scale(0.015625)"/>
     </defs>
     <use xlink:href="#DejaVuSans-33"/>
     <use xlink:href="#DejaVuSans-48" transform="translate(56.734375 0)"/>
     <use xlink:href="#DejaVuSans-55" transform="translate(118.265625 0)"/>
     <use xlink:href="#DejaVuSans-10" transform="translate(152.984375 0)"/>
     <use xlink:href="#DejaVuSans-48" transform="translate(189.0625 0)"/>
     <use xlink:href="#DejaVuSans-53" transform="translate(250.59375 0)"/>
     <use xlink:href="#DejaVuSans-52" transform="translate(314.078125 0)"/>
     <use xlink:href="#DejaVuSans-46" transform="translate(375.265625 0)"/>
     <use xlink:href="#DejaVuSans-4b" transform="translate(430.25 0)"/>
     <use xlink:href="#DejaVuSans-3" transform="translate(493.625 0)"/>
     <use xlink:href="#DejaVuSans-2f" transform="translate(525.40625 0)"/>
     <use xlink:href="#DejaVuSans-52" transform="translate(579.375 0)"/>
     <use xlink:href="#DejaVuSans-56" transform="translate(640.5625 0)"/>
     <use xlink:href="#DejaVuSans-56" transform="translate(692.65625 0)"/>
     <use xlink:href="#DejaVuSans-3" transform="translate(744.75 0)"/>
     <use xlink:href="#DejaVuSans-73" transform="translate(776.53125 0)"/>
     <use xlink:href="#DejaVuSans-3" transform="translate(860.328125 0)"/>
     <use xlink:href="#DejaVuSans-25" transform="translate(892.109375 0)"/>
     <use xlink:href="#DejaVuSans-44" transform="translate(960.71875 0)"/>
     <use xlink:href="#DejaVuSans-57" transform="translate(1022 0)"/>
     <use xlink:href="#DejaVuSans-46" transform="translate(1061.203125 0)"/>
     <use xlink:href="#DejaVuSans-4b" transform="translate(1116.1875 0)"/>
     <use xlink:href="#DejaVuSans-3" transform="translate(1179.5625 0)"/>
     <use xlink:href="#DejaVuSans-36" transform="translate(1211.34375 0)"/>
     <use xlink:href="#DejaVuSans-57" transform="translate(1274.828125 0)"/>
     <use xlink:href="#DejaVuSans-47" transform="translate(1314.03125 0)"/>
    </g>
   </g>
   <g id="legend_1">
    <g id="patch_7">
     <path d="M 363.892969 98.662109 
L 488.645625 98.662109 
Q 490.445625 98.662109 490.445625 96.862109 
L 490.445625 57.26 
Q 490.445625 55.46 488.645625 55.46 
L 363.892969 55.46 
Q 362.092969 55.46 362.092969 57.26 
L 362.092969 96.862109 
Q 362.092969 98.662109 363.892969 98.662109 
z
" style="fill: #ffffff; opacity: 0.8; stroke: #cccccc; stroke-linejoin: miter"/>
    </g>
    <g id="line2d_26">
     <path d="M 365.692969 62.748594 
L 374.692969 62.748594 
L 383.692969 62.748594 
" style="fill: none; stroke: #4682b4; stroke-width: 2; stroke-linecap: square"/>
    </g>
    <g id="text_15">
     <!-- Train -->
     <g transform="translate(390.892969 65.898594) scale(0.09 -0.09)">
      <defs>
       <path id="DejaVuSans-37" d="M -19 4666 
L 3928 4666 
L 3928 4134 
L 2272 4134 
L 2272 0 
L 1638 0 
L 1638 4134 
L -19 4134 
L -19 4666 
z
" transform="scale(0.015625)"/>
       <path id="DejaVuSans-4c" d="M 603 3500 
L 1178 3500 
L 1178 0 
L 603 0 
L 603 3500 
z
M 603 4863 
L 1178 4863 
L 1178 4134 
L 603 4134 
L 603 4863 
z
" transform="scale(0.015625)"/>
       <path id="DejaVuSans-51" d="M 3513 2113 
L 3513 0 
L 2938 0 
L 2938 2094 
Q 2938 2591 2744 2837 
Q 2550 3084 2163 3084 
Q 1697 3084 1428 2787 
Q 1159 2491 1159 1978 
L 1159 0 
L 581 0 
L 581 3500 
L 1159 3500 
L 1159 2956 
Q 1366 3272 1645 3428 
Q 1925 3584 2291 3584 
Q 2894 3584 3203 3211 
Q 3513 2838 3513 2113 
z
" transform="scale(0.015625)"/>
      </defs>
      <use xlink:href="#DejaVuSans-37"/>
      <use xlink:href="#DejaVuSans-55" transform="translate(46.375 0)"/>
      <use xlink:href="#DejaVuSans-44" transform="translate(87.484375 0)"/>
      <use xlink:href="#DejaVuSans-4c" transform="translate(148.765625 0)"/>
      <use xlink:href="#DejaVuSans-51" transform="translate(176.546875 0)"/>
     </g>
    </g>
    <g id="line2d_27">
     <path d="M 365.692969 76.249297 
L 374.692969 76.249297 
L 383.692969 76.249297 
" style="fill: none; stroke: #ff4500; stroke-width: 2; stroke-linecap: square"/>
    </g>
    <g id="text_16">
     <!-- Valid -->
     <g transform="translate(390.892969 79.399297) scale(0.09 -0.09)">
      <defs>
       <path id="DejaVuSans-39" d="M 1831 0 
L 50 4666 
L 709 4666 
L 2188 738 
L 3669 4666 
L 4325 4666 
L 2547 0 
L 1831 0 
z
" transform="scale(0.015625)"/>
       <path id="DejaVuSans-4f" d="M 603 4863 
L 1178 4863 
L 1178 0 
L 603 0 
L 603 4863 
z
" transform="scale(0.015625)"/>
      </defs>
      <use xlink:href="#DejaVuSans-39"/>
      <use xlink:href="#DejaVuSans-44" transform="translate(60.640625 0)"/>
      <use xlink:href="#DejaVuSans-4f" transform="translate(121.921875 0)"/>
      <use xlink:href="#DejaVuSans-4c" transform="translate(149.703125 0)"/>
      <use xlink:href="#DejaVuSans-47" transform="translate(177.484375 0)"/>
     </g>
    </g>
    <g id="line2d_28">
     <path d="M 365.692969 89.75 
L 374.692969 89.75 
L 383.692969 89.75 
" style="fill: none; stroke-dasharray: 1.5,2.475; stroke-dashoffset: 0; stroke: #ff4500; stroke-width: 1.5"/>
    </g>
    <g id="text_17">
     <!-- Best valid epoch (17) -->
     <g transform="translate(390.892969 92.9) scale(0.09 -0.09)">
      <defs>
       <path id="DejaVuSans-59" d="M 191 3500 
L 800 3500 
L 1894 563 
L 2988 3500 
L 3597 3500 
L 2284 0 
L 1503 0 
L 191 3500 
z
" transform="scale(0.015625)"/>
       <path id="DejaVuSans-b" d="M 1984 4856 
Q 1566 4138 1362 3434 
Q 1159 2731 1159 2009 
Q 1159 1288 1364 580 
Q 1569 -128 1984 -844 
L 1484 -844 
Q 1016 -109 783 600 
Q 550 1309 550 2009 
Q 550 2706 781 3412 
Q 1013 4119 1484 4856 
L 1984 4856 
z
" transform="scale(0.015625)"/>
       <path id="DejaVuSans-1a" d="M 525 4666 
L 3525 4666 
L 3525 4397 
L 1831 0 
L 1172 0 
L 2766 4134 
L 525 4134 
L 525 4666 
z
" transform="scale(0.015625)"/>
       <path id="DejaVuSans-c" d="M 513 4856 
L 1013 4856 
Q 1481 4119 1714 3412 
Q 1947 2706 1947 2009 
Q 1947 1309 1714 600 
Q 1481 -109 1013 -844 
L 513 -844 
Q 928 -128 1133 580 
Q 1338 1288 1338 2009 
Q 1338 2731 1133 3434 
Q 928 4138 513 4856 
z
" transform="scale(0.015625)"/>
      </defs>
      <use xlink:href="#DejaVuSans-25"/>
      <use xlink:href="#DejaVuSans-48" transform="translate(68.609375 0)"/>
      <use xlink:href="#DejaVuSans-56" transform="translate(130.140625 0)"/>
      <use xlink:href="#DejaVuSans-57" transform="translate(182.234375 0)"/>
      <use xlink:href="#DejaVuSans-3" transform="translate(221.4375 0)"/>
      <use xlink:href="#DejaVuSans-59" transform="translate(253.21875 0)"/>
      <use xlink:href="#DejaVuSans-44" transform="translate(312.40625 0)"/>
      <use xlink:href="#DejaVuSans-4f" transform="translate(373.6875 0)"/>
      <use xlink:href="#DejaVuSans-4c" transform="translate(401.46875 0)"/>
      <use xlink:href="#DejaVuSans-47" transform="translate(429.25 0)"/>
      <use xlink:href="#DejaVuSans-3" transform="translate(492.734375 0)"/>
      <use xlink:href="#DejaVuSans-48" transform="translate(524.515625 0)"/>
      <use xlink:href="#DejaVuSans-53" transform="translate(586.046875 0)"/>
      <use xlink:href="#DejaVuSans-52" transform="translate(649.53125 0)"/>
      <use xlink:href="#DejaVuSans-46" transform="translate(710.71875 0)"/>
      <use xlink:href="#DejaVuSans-4b" transform="translate(765.703125 0)"/>
      <use xlink:href="#DejaVuSans-3" transform="translate(829.078125 0)"/>
      <use xlink:href="#DejaVuSans-b" transform="translate(860.859375 0)"/>
      <use xlink:href="#DejaVuSans-14" transform="translate(899.875 0)"/>
      <use xlink:href="#DejaVuSans-1a" transform="translate(963.5 0)"/>
      <use xlink:href="#DejaVuSans-c" transform="translate(1027.125 0)"/>
     </g>
    </g>
   </g>
  </g>
  <g id="axes_2">
   <g id="patch_8">
    <path d="M 549.065625 317.877656 
L 993.545625 317.877656 
L 993.545625 50.96 
L 549.065625 50.96 
z
" style="fill: #ffffff"/>
   </g>
   <g id="matplotlib.axis_3">
    <g id="xtick_7">
     <g id="line2d_29">
      <path d="M 569.269261 317.877656 
L 569.269261 50.96 
" clip-path="url(#pe40391d4df)" style="fill: none; stroke: #b0b0b0; stroke-opacity: 0.3; stroke-width: 0.8; stroke-linecap: square"/>
     </g>
     <g id="line2d_30">
      <g>
       <use xlink:href="#m782f7f396e" x="569.269261" y="317.877656" style="stroke: #000000; stroke-width: 0.8"/>
      </g>
     </g>
     <g id="text_18">
      <!-- 0 -->
      <g transform="translate(566.088011 332.475312) scale(0.1 -0.1)">
       <use xlink:href="#DejaVuSans-13"/>
      </g>
     </g>
    </g>
    <g id="xtick_8">
     <g id="line2d_31">
      <path d="M 650.900115 317.877656 
L 650.900115 50.96 
" clip-path="url(#pe40391d4df)" style="fill: none; stroke: #b0b0b0; stroke-opacity: 0.3; stroke-width: 0.8; stroke-linecap: square"/>
     </g>
     <g id="line2d_32">
      <g>
       <use xlink:href="#m782f7f396e" x="650.900115" y="317.877656" style="stroke: #000000; stroke-width: 0.8"/>
      </g>
     </g>
     <g id="text_19">
      <!-- 20 -->
      <g transform="translate(644.537615 332.475312) scale(0.1 -0.1)">
       <use xlink:href="#DejaVuSans-15"/>
       <use xlink:href="#DejaVuSans-13" transform="translate(63.625 0)"/>
      </g>
     </g>
    </g>
    <g id="xtick_9">
     <g id="line2d_33">
      <path d="M 732.530969 317.877656 
L 732.530969 50.96 
" clip-path="url(#pe40391d4df)" style="fill: none; stroke: #b0b0b0; stroke-opacity: 0.3; stroke-width: 0.8; stroke-linecap: square"/>
     </g>
     <g id="line2d_34">
      <g>
       <use xlink:href="#m782f7f396e" x="732.530969" y="317.877656" style="stroke: #000000; stroke-width: 0.8"/>
      </g>
     </g>
     <g id="text_20">
      <!-- 40 -->
      <g transform="translate(726.168469 332.475312) scale(0.1 -0.1)">
       <use xlink:href="#DejaVuSans-17"/>
       <use xlink:href="#DejaVuSans-13" transform="translate(63.625 0)"/>
      </g>
     </g>
    </g>
    <g id="xtick_10">
     <g id="line2d_35">
      <path d="M 814.161823 317.877656 
L 814.161823 50.96 
" clip-path="url(#pe40391d4df)" style="fill: none; stroke: #b0b0b0; stroke-opacity: 0.3; stroke-width: 0.8; stroke-linecap: square"/>
     </g>
     <g id="line2d_36">
      <g>
       <use xlink:href="#m782f7f396e" x="814.161823" y="317.877656" style="stroke: #000000; stroke-width: 0.8"/>
      </g>
     </g>
     <g id="text_21">
      <!-- 60 -->
      <g transform="translate(807.799323 332.475312) scale(0.1 -0.1)">
       <use xlink:href="#DejaVuSans-19"/>
       <use xlink:href="#DejaVuSans-13" transform="translate(63.625 0)"/>
      </g>
     </g>
    </g>
    <g id="xtick_11">
     <g id="line2d_37">
      <path d="M 895.792677 317.877656 
L 895.792677 50.96 
" clip-path="url(#pe40391d4df)" style="fill: none; stroke: #b0b0b0; stroke-opacity: 0.3; stroke-width: 0.8; stroke-linecap: square"/>
     </g>
     <g id="line2d_38">
      <g>
       <use xlink:href="#m782f7f396e" x="895.792677" y="317.877656" style="stroke: #000000; stroke-width: 0.8"/>
      </g>
     </g>
     <g id="text_22">
      <!-- 80 -->
      <g transform="translate(889.430177 332.475312) scale(0.1 -0.1)">
       <use xlink:href="#DejaVuSans-1b"/>
       <use xlink:href="#DejaVuSans-13" transform="translate(63.625 0)"/>
      </g>
     </g>
    </g>
    <g id="xtick_12">
     <g id="line2d_39">
      <path d="M 977.423531 317.877656 
L 977.423531 50.96 
" clip-path="url(#pe40391d4df)" style="fill: none; stroke: #b0b0b0; stroke-opacity: 0.3; stroke-width: 0.8; stroke-linecap: square"/>
     </g>
     <g id="line2d_40">
      <g>
       <use xlink:href="#m782f7f396e" x="977.423531" y="317.877656" style="stroke: #000000; stroke-width: 0.8"/>
      </g>
     </g>
     <g id="text_23">
      <!-- 100 -->
      <g transform="translate(967.879781 332.475312) scale(0.1 -0.1)">
       <use xlink:href="#DejaVuSans-14"/>
       <use xlink:href="#DejaVuSans-13" transform="translate(63.625 0)"/>
       <use xlink:href="#DejaVuSans-13" transform="translate(127.25 0)"/>
      </g>
     </g>
    </g>
    <g id="text_24">
     <!-- Epoch -->
     <g transform="translate(755.994688 346.476094) scale(0.1 -0.1)">
      <use xlink:href="#DejaVuSans-28"/>
      <use xlink:href="#DejaVuSans-53" transform="translate(63.1875 0)"/>
      <use xlink:href="#DejaVuSans-52" transform="translate(126.671875 0)"/>
      <use xlink:href="#DejaVuSans-46" transform="translate(187.859375 0)"/>
      <use xlink:href="#DejaVuSans-4b" transform="translate(242.84375 0)"/>
     </g>
    </g>
   </g>
   <g id="matplotlib.axis_4">
    <g id="ytick_6">
     <g id="line2d_41">
      <path d="M 549.065625 278.907778 
L 993.545625 278.907778 
" clip-path="url(#pe40391d4df)" style="fill: none; stroke: #b0b0b0; stroke-opacity: 0.3; stroke-width: 0.8; stroke-linecap: square"/>
     </g>
     <g id="line2d_42">
      <g>
       <use xlink:href="#m5b712fb08a" x="549.065625" y="278.907778" style="stroke: #000000; stroke-width: 0.8"/>
      </g>
     </g>
     <g id="text_25">
      <!-- 0.01 -->
      <g transform="translate(519.8 282.706606) scale(0.1 -0.1)">
       <use xlink:href="#DejaVuSans-13"/>
       <use xlink:href="#DejaVuSans-11" transform="translate(63.625 0)"/>
       <use xlink:href="#DejaVuSans-13" transform="translate(95.40625 0)"/>
       <use xlink:href="#DejaVuSans-14" transform="translate(159.03125 0)"/>
      </g>
     </g>
    </g>
    <g id="ytick_7">
     <g id="line2d_43">
      <path d="M 549.065625 239.387992 
L 993.545625 239.387992 
" clip-path="url(#pe40391d4df)" style="fill: none; stroke: #b0b0b0; stroke-opacity: 0.3; stroke-width: 0.8; stroke-linecap: square"/>
     </g>
     <g id="line2d_44">
      <g>
       <use xlink:href="#m5b712fb08a" x="549.065625" y="239.387992" style="stroke: #000000; stroke-width: 0.8"/>
      </g>
     </g>
     <g id="text_26">
      <!-- 0.02 -->
      <g transform="translate(519.8 243.18682) scale(0.1 -0.1)">
       <use xlink:href="#DejaVuSans-13"/>
       <use xlink:href="#DejaVuSans-11" transform="translate(63.625 0)"/>
       <use xlink:href="#DejaVuSans-13" transform="translate(95.40625 0)"/>
       <use xlink:href="#DejaVuSans-15" transform="translate(159.03125 0)"/>
      </g>
     </g>
    </g>
    <g id="ytick_8">
     <g id="line2d_45">
      <path d="M 549.065625 199.868205 
L 993.545625 199.868205 
" clip-path="url(#pe40391d4df)" style="fill: none; stroke: #b0b0b0; stroke-opacity: 0.3; stroke-width: 0.8; stroke-linecap: square"/>
     </g>
     <g id="line2d_46">
      <g>
       <use xlink:href="#m5b712fb08a" x="549.065625" y="199.868205" style="stroke: #000000; stroke-width: 0.8"/>
      </g>
     </g>
     <g id="text_27">
      <!-- 0.03 -->
      <g transform="translate(519.8 203.667033) scale(0.1 -0.1)">
       <defs>
        <path id="DejaVuSans-16" d="M 2597 2516 
Q 3050 2419 3304 2112 
Q 3559 1806 3559 1356 
Q 3559 666 3084 287 
Q 2609 -91 1734 -91 
Q 1441 -91 1130 -33 
Q 819 25 488 141 
L 488 750 
Q 750 597 1062 519 
Q 1375 441 1716 441 
Q 2309 441 2620 675 
Q 2931 909 2931 1356 
Q 2931 1769 2642 2001 
Q 2353 2234 1838 2234 
L 1294 2234 
L 1294 2753 
L 1863 2753 
Q 2328 2753 2575 2939 
Q 2822 3125 2822 3475 
Q 2822 3834 2567 4026 
Q 2313 4219 1838 4219 
Q 1578 4219 1281 4162 
Q 984 4106 628 3988 
L 628 4550 
Q 988 4650 1302 4700 
Q 1616 4750 1894 4750 
Q 2613 4750 3031 4423 
Q 3450 4097 3450 3541 
Q 3450 3153 3228 2886 
Q 3006 2619 2597 2516 
z
" transform="scale(0.015625)"/>
       </defs>
       <use xlink:href="#DejaVuSans-13"/>
       <use xlink:href="#DejaVuSans-11" transform="translate(63.625 0)"/>
       <use xlink:href="#DejaVuSans-13" transform="translate(95.40625 0)"/>
       <use xlink:href="#DejaVuSans-16" transform="translate(159.03125 0)"/>
      </g>
     </g>
    </g>
    <g id="ytick_9">
     <g id="line2d_47">
      <path d="M 549.065625 160.348419 
L 993.545625 160.348419 
" clip-path="url(#pe40391d4df)" style="fill: none; stroke: #b0b0b0; stroke-opacity: 0.3; stroke-width: 0.8; stroke-linecap: square"/>
     </g>
     <g id="line2d_48">
      <g>
       <use xlink:href="#m5b712fb08a" x="549.065625" y="160.348419" style="stroke: #000000; stroke-width: 0.8"/>
      </g>
     </g>
     <g id="text_28">
      <!-- 0.04 -->
      <g transform="translate(519.8 164.147247) scale(0.1 -0.1)">
       <use xlink:href="#DejaVuSans-13"/>
       <use xlink:href="#DejaVuSans-11" transform="translate(63.625 0)"/>
       <use xlink:href="#DejaVuSans-13" transform="translate(95.40625 0)"/>
       <use xlink:href="#DejaVuSans-17" transform="translate(159.03125 0)"/>
      </g>
     </g>
    </g>
    <g id="ytick_10">
     <g id="line2d_49">
      <path d="M 549.065625 120.828633 
L 993.545625 120.828633 
" clip-path="url(#pe40391d4df)" style="fill: none; stroke: #b0b0b0; stroke-opacity: 0.3; stroke-width: 0.8; stroke-linecap: square"/>
     </g>
     <g id="line2d_50">
      <g>
       <use xlink:href="#m5b712fb08a" x="549.065625" y="120.828633" style="stroke: #000000; stroke-width: 0.8"/>
      </g>
     </g>
     <g id="text_29">
      <!-- 0.05 -->
      <g transform="translate(519.8 124.627461) scale(0.1 -0.1)">
       <defs>
        <path id="DejaVuSans-18" d="M 691 4666 
L 3169 4666 
L 3169 4134 
L 1269 4134 
L 1269 2991 
Q 1406 3038 1543 3061 
Q 1681 3084 1819 3084 
Q 2600 3084 3056 2656 
Q 3513 2228 3513 1497 
Q 3513 744 3044 326 
Q 2575 -91 1722 -91 
Q 1428 -91 1123 -41 
Q 819 9 494 109 
L 494 744 
Q 775 591 1075 516 
Q 1375 441 1709 441 
Q 2250 441 2565 725 
Q 2881 1009 2881 1497 
Q 2881 1984 2565 2268 
Q 2250 2553 1709 2553 
Q 1456 2553 1204 2497 
Q 953 2441 691 2322 
L 691 4666 
z
" transform="scale(0.015625)"/>
       </defs>
       <use xlink:href="#DejaVuSans-13"/>
       <use xlink:href="#DejaVuSans-11" transform="translate(63.625 0)"/>
       <use xlink:href="#DejaVuSans-13" transform="translate(95.40625 0)"/>
       <use xlink:href="#DejaVuSans-18" transform="translate(159.03125 0)"/>
      </g>
     </g>
    </g>
    <g id="ytick_11">
     <g id="line2d_51">
      <path d="M 549.065625 81.308846 
L 993.545625 81.308846 
" clip-path="url(#pe40391d4df)" style="fill: none; stroke: #b0b0b0; stroke-opacity: 0.3; stroke-width: 0.8; stroke-linecap: square"/>
     </g>
     <g id="line2d_52">
      <g>
       <use xlink:href="#m5b712fb08a" x="549.065625" y="81.308846" style="stroke: #000000; stroke-width: 0.8"/>
      </g>
     </g>
     <g id="text_30">
      <!-- 0.06 -->
      <g transform="translate(519.8 85.107674) scale(0.1 -0.1)">
       <use xlink:href="#DejaVuSans-13"/>
       <use xlink:href="#DejaVuSans-11" transform="translate(63.625 0)"/>
       <use xlink:href="#DejaVuSans-13" transform="translate(95.40625 0)"/>
       <use xlink:href="#DejaVuSans-19" transform="translate(159.03125 0)"/>
      </g>
     </g>
    </g>
    <g id="text_31">
     <!-- Loss -->
     <g transform="translate(513.397656 195.386016) rotate(-90) scale(0.1 -0.1)">
      <use xlink:href="#DejaVuSans-2f"/>
      <use xlink:href="#DejaVuSans-52" transform="translate(53.96875 0)"/>
      <use xlink:href="#DejaVuSans-56" transform="translate(115.15625 0)"/>
      <use xlink:href="#DejaVuSans-56" transform="translate(167.25 0)"/>
     </g>
    </g>
   </g>
   <g id="line2d_53">
    <path d="M 569.269261 63.092621 
L 573.350804 120.410844 
L 577.432347 127.264066 
L 581.513889 175.421537 
L 585.595432 235.432471 
L 589.676975 255.07178 
L 593.758518 262.221547 
L 597.84006 259.329615 
L 601.921603 274.654171 
L 606.003146 282.40982 
L 610.084688 286.080709 
L 614.166231 288.805224 
L 618.247774 287.778119 
L 622.329316 290.718213 
L 626.410859 292.087297 
L 630.492402 292.840427 
L 634.573945 293.825995 
L 638.655487 295.128688 
L 642.73703 295.128232 
L 646.818573 295.391289 
L 650.900115 295.72629 
L 654.981658 297.060475 
L 659.063201 297.226312 
L 663.144743 298.639682 
L 667.226286 298.610046 
L 671.307829 298.777315 
L 675.389372 299.159453 
L 679.470914 299.964211 
L 683.552457 300.244578 
L 687.634 300.501577 
L 691.715542 300.429419 
L 695.797085 293.213545 
L 699.878628 280.28842 
L 703.96017 291.93353 
L 708.041713 294.858632 
L 712.123256 297.660037 
L 716.204799 299.4345 
L 720.286341 301.126558 
L 724.367884 301.135653 
L 728.449427 301.451661 
L 732.530969 300.525809 
L 736.612512 301.485972 
L 740.694055 301.982987 
L 744.775597 302.291653 
L 748.85714 302.825741 
L 752.938683 302.714521 
L 757.020226 302.163569 
L 761.101768 303.101128 
L 765.183311 303.418558 
L 769.264854 303.611642 
L 773.346396 283.917729 
L 777.427939 295.059766 
L 781.509482 299.315176 
L 785.591024 301.639268 
L 789.672567 302.39415 
L 793.75411 303.271918 
L 797.835653 302.893578 
L 801.917195 303.167396 
L 805.998738 303.619112 
L 810.080281 301.896464 
L 814.161823 302.501751 
L 818.243366 303.532793 
L 822.324909 304.09336 
L 826.406451 304.113546 
L 830.487994 304.134636 
L 834.569537 304.74349 
L 838.65108 304.697608 
L 842.732622 304.403555 
L 846.814165 305.043353 
L 850.895708 304.946041 
L 854.97725 305.296238 
L 859.058793 305.152546 
L 863.140336 305.170642 
L 867.221878 305.205721 
L 871.303421 305.213928 
L 875.384964 305.114067 
L 879.466507 305.548428 
L 883.548049 305.134107 
L 887.629592 305.021262 
L 891.711135 305.419077 
L 895.792677 305.589781 
L 899.87422 305.616577 
L 903.955763 305.700524 
L 908.037305 305.546781 
L 912.118848 305.495001 
L 916.200391 305.14105 
L 920.281934 302.080277 
L 924.363476 303.382991 
L 928.445019 304.556824 
L 932.526562 305.031825 
L 936.608104 305.250336 
L 940.689647 305.274679 
L 944.77119 305.285702 
L 948.852732 305.505401 
L 952.934275 305.745036 
L 957.015818 305.525794 
L 961.097361 305.686169 
L 965.178903 305.645887 
L 969.260446 305.371439 
L 973.341989 305.649018 
" clip-path="url(#pe40391d4df)" style="fill: none; stroke: #4682b4; stroke-opacity: 0.4; stroke-width: 0.8; stroke-linecap: square"/>
   </g>
   <g id="line2d_54">
    <path d="M 569.269261 63.092621 
L 573.350804 91.751733 
L 577.432347 103.589177 
L 581.513889 121.547267 
L 585.595432 144.324308 
L 589.676975 182.72014 
L 593.758518 211.08228 
L 597.84006 237.49539 
L 601.921603 257.341917 
L 606.003146 266.737387 
L 610.084688 272.939173 
L 614.166231 278.255908 
L 618.247774 283.945609 
L 622.329316 287.158417 
L 626.410859 289.093912 
L 630.492402 290.445856 
L 634.573945 291.45001 
L 638.655487 292.920124 
L 642.73703 293.802128 
L 646.818573 294.462926 
L 650.900115 295.040099 
L 654.981658 295.686995 
L 659.063201 296.10652 
L 663.144743 296.808809 
L 667.226286 297.452561 
L 671.307829 298.062766 
L 675.389372 298.482562 
L 679.470914 299.030141 
L 683.552457 299.351121 
L 687.634 299.729427 
L 691.715542 300.059848 
L 695.797085 298.870666 
L 699.878628 294.935508 
L 703.96017 293.273298 
L 708.041713 292.144709 
L 712.123256 291.590833 
L 716.204799 292.835024 
L 720.286341 297.002651 
L 724.367884 298.843076 
L 728.449427 300.161682 
L 732.530969 300.734836 
L 736.612512 301.145131 
L 740.694055 301.316417 
L 744.775597 301.547616 
L 748.85714 301.822432 
L 752.938683 302.260175 
L 757.020226 302.395694 
L 761.101768 302.619322 
L 765.183311 302.844703 
L 769.264854 303.001884 
L 773.346396 299.242525 
L 777.427939 297.821765 
L 781.509482 297.064574 
L 785.591024 296.708716 
L 789.672567 296.465218 
L 793.75411 300.336056 
L 797.835653 301.902818 
L 801.917195 302.673262 
L 805.998738 303.069231 
L 810.080281 302.969694 
L 814.161823 302.81566 
L 818.243366 302.943503 
L 822.324909 303.128696 
L 826.406451 303.227583 
L 830.487994 303.675217 
L 834.569537 304.123565 
L 838.65108 304.356528 
L 842.732622 304.418567 
L 846.814165 304.604528 
L 850.895708 304.766809 
L 854.97725 304.877359 
L 859.058793 304.968347 
L 863.140336 305.121764 
L 867.221878 305.154238 
L 871.303421 305.207815 
L 875.384964 305.171381 
L 879.466507 305.250557 
L 883.548049 305.24325 
L 887.629592 305.206358 
L 891.711135 305.247388 
L 895.792677 305.342531 
L 899.87422 305.356161 
L 903.955763 305.469444 
L 908.037305 305.574548 
L 912.118848 305.589733 
L 916.200391 305.499987 
L 920.281934 304.792727 
L 924.363476 304.32922 
L 928.445019 304.131229 
L 932.526562 304.038593 
L 936.608104 304.060451 
L 940.689647 304.699331 
L 944.77119 305.079873 
L 948.852732 305.269589 
L 952.934275 305.412231 
L 957.015818 305.467322 
L 961.097361 305.54962 
L 965.178903 305.621657 
L 969.260446 305.594865 
L 973.341989 305.575662 
" clip-path="url(#pe40391d4df)" style="fill: none; stroke: #4682b4; stroke-width: 2.5; stroke-linecap: square"/>
   </g>
   <g id="line2d_55">
    <path d="M 569.269261 114.252608 
L 573.350804 115.584119 
L 577.432347 116.807905 
L 581.513889 137.191115 
L 585.595432 143.598364 
L 589.676975 155.875761 
L 593.758518 120.006804 
L 597.84006 162.655531 
L 601.921603 161.742207 
L 606.003146 158.72205 
L 610.084688 171.475396 
L 614.166231 172.175452 
L 618.247774 174.406931 
L 622.329316 179.283109 
L 626.410859 164.228872 
L 630.492402 170.439178 
L 634.573945 177.622857 
L 638.655487 179.888531 
L 642.73703 177.825313 
L 646.818573 166.418085 
L 650.900115 175.479661 
L 654.981658 176.251067 
L 659.063201 172.063324 
L 663.144743 176.438826 
L 667.226286 175.654195 
L 671.307829 168.248144 
L 675.389372 169.971832 
L 679.470914 172.840316 
L 683.552457 167.12375 
L 687.634 167.953022 
L 691.715542 154.827691 
L 695.797085 115.100082 
L 699.878628 131.41939 
L 703.96017 151.877714 
L 708.041713 153.886465 
L 712.123256 173.542487 
L 716.204799 167.483044 
L 720.286341 171.435743 
L 724.367884 167.266744 
L 728.449427 170.026801 
L 732.530969 169.50281 
L 736.612512 167.860162 
L 740.694055 176.478672 
L 744.775597 171.88868 
L 748.85714 162.757639 
L 752.938683 153.803522 
L 757.020226 166.125603 
L 761.101768 168.129369 
L 765.183311 167.96132 
L 769.264854 138.026638 
L 773.346396 156.47932 
L 777.427939 154.234696 
L 781.509482 151.434921 
L 785.591024 157.352715 
L 789.672567 154.478225 
L 793.75411 164.44332 
L 797.835653 167.589547 
L 801.917195 161.659316 
L 805.998738 157.517509 
L 810.080281 152.511934 
L 814.161823 158.311691 
L 818.243366 151.504126 
L 822.324909 154.288489 
L 826.406451 155.337472 
L 830.487994 152.691402 
L 834.569537 153.682285 
L 838.65108 154.422837 
L 842.732622 154.787916 
L 846.814165 157.792051 
L 850.895708 158.123473 
L 854.97725 160.019865 
L 859.058793 157.917339 
L 863.140336 158.714564 
L 867.221878 158.09795 
L 871.303421 159.862257 
L 875.384964 159.792208 
L 879.466507 156.47933 
L 883.548049 155.208187 
L 887.629592 159.951942 
L 891.711135 153.378921 
L 895.792677 149.6723 
L 899.87422 155.650755 
L 903.955763 155.258596 
L 908.037305 153.430058 
L 912.118848 156.036911 
L 916.200391 140.64892 
L 920.281934 145.301405 
L 924.363476 153.572553 
L 928.445019 156.064479 
L 932.526562 155.156584 
L 936.608104 153.195888 
L 940.689647 154.711434 
L 944.77119 154.304174 
L 948.852732 154.187397 
L 952.934275 154.316139 
L 957.015818 152.672313 
L 961.097361 153.466655 
L 965.178903 153.156583 
L 969.260446 154.46915 
L 973.341989 153.725045 
" clip-path="url(#pe40391d4df)" style="fill: none; stroke: #ff4500; stroke-opacity: 0.4; stroke-width: 0.8; stroke-linecap: square"/>
   </g>
   <g id="line2d_56">
    <path d="M 569.269261 114.252608 
L 573.350804 114.918364 
L 577.432347 115.548211 
L 581.513889 120.958937 
L 585.595432 125.486822 
L 589.676975 133.811453 
L 593.758518 134.69599 
L 597.84006 143.865515 
L 601.921603 148.775733 
L 606.003146 151.800471 
L 610.084688 154.920398 
L 614.166231 165.354127 
L 618.247774 167.704407 
L 622.329316 171.212588 
L 626.410859 172.313952 
L 630.492402 172.106708 
L 634.573945 173.196189 
L 638.655487 174.292509 
L 642.73703 174.00095 
L 646.818573 174.438793 
L 650.900115 175.446889 
L 654.981658 175.172531 
L 659.063201 173.60749 
L 663.144743 173.330192 
L 667.226286 175.177414 
L 671.307829 173.731111 
L 675.389372 172.475264 
L 679.470914 172.630662 
L 683.552457 170.767647 
L 687.634 169.227413 
L 691.715542 166.543322 
L 695.797085 155.568972 
L 699.878628 147.284787 
L 703.96017 144.23558 
L 708.041713 141.422268 
L 712.123256 145.165228 
L 716.204799 155.64182 
L 720.286341 163.645091 
L 724.367884 166.722897 
L 728.449427 169.950964 
L 732.530969 169.143028 
L 736.612512 169.218452 
L 740.694055 170.227038 
L 744.775597 171.151425 
L 748.85714 169.697593 
L 752.938683 166.557735 
L 757.020226 166.210823 
L 761.101768 164.540963 
L 765.183311 163.755491 
L 769.264854 158.809291 
L 773.346396 159.34445 
L 777.427939 156.966268 
L 781.509482 153.627379 
L 785.591024 151.505658 
L 789.672567 154.795975 
L 793.75411 156.388775 
L 797.835653 159.059746 
L 801.917195 161.104625 
L 805.998738 161.137583 
L 810.080281 160.744325 
L 814.161823 159.517999 
L 818.243366 156.300915 
L 822.324909 154.82675 
L 826.406451 154.390742 
L 830.487994 154.426636 
L 834.569537 153.500755 
L 838.65108 154.084497 
L 842.732622 154.184382 
L 846.814165 154.675298 
L 850.895708 155.761712 
L 854.97725 157.029228 
L 859.058793 157.728129 
L 863.140336 158.513458 
L 867.221878 158.574638 
L 871.303421 158.922395 
L 875.384964 158.876863 
L 879.466507 158.589262 
L 883.548049 157.887986 
L 887.629592 158.258785 
L 891.711135 156.962118 
L 895.792677 154.938136 
L 899.87422 154.772421 
L 903.955763 154.782503 
L 908.037305 153.478126 
L 912.118848 154.009724 
L 916.200391 152.205048 
L 920.281934 150.135178 
L 924.363476 149.797969 
L 928.445019 150.324854 
L 932.526562 150.148788 
L 936.608104 152.658182 
L 940.689647 154.540188 
L 944.77119 154.686512 
L 948.852732 154.311096 
L 952.934275 154.143007 
L 957.015818 154.038292 
L 961.097361 153.789336 
L 965.178903 153.559818 
L 969.260446 153.616168 
L 973.341989 153.497949 
" clip-path="url(#pe40391d4df)" style="fill: none; stroke: #ff4500; stroke-width: 2.5; stroke-linecap: square"/>
   </g>
   <g id="patch_9">
    <path d="M 549.065625 317.877656 
L 549.065625 50.96 
" style="fill: none; stroke: #000000; stroke-width: 0.8; stroke-linejoin: miter; stroke-linecap: square"/>
   </g>
   <g id="patch_10">
    <path d="M 993.545625 317.877656 
L 993.545625 50.96 
" style="fill: none; stroke: #000000; stroke-width: 0.8; stroke-linejoin: miter; stroke-linecap: square"/>
   </g>
   <g id="patch_11">
    <path d="M 549.065625 317.877656 
L 993.545625 317.877656 
" style="fill: none; stroke: #000000; stroke-width: 0.8; stroke-linejoin: miter; stroke-linecap: square"/>
   </g>
   <g id="patch_12">
    <path d="M 549.065625 50.96 
L 993.545625 50.96 
" style="fill: none; stroke: #000000; stroke-width: 0.8; stroke-linejoin: miter; stroke-linecap: square"/>
   </g>
   <g id="text_32">
    <!-- Smoothed Loss Trend -->
    <g transform="translate(707.259375 44.96) scale(0.12 -0.12)">
     <defs>
      <path id="DejaVuSans-50" d="M 3328 2828 
Q 3544 3216 3844 3400 
Q 4144 3584 4550 3584 
Q 5097 3584 5394 3201 
Q 5691 2819 5691 2113 
L 5691 0 
L 5113 0 
L 5113 2094 
Q 5113 2597 4934 2840 
Q 4756 3084 4391 3084 
Q 3944 3084 3684 2787 
Q 3425 2491 3425 1978 
L 3425 0 
L 2847 0 
L 2847 2094 
Q 2847 2600 2669 2842 
Q 2491 3084 2119 3084 
Q 1678 3084 1418 2786 
Q 1159 2488 1159 1978 
L 1159 0 
L 581 0 
L 581 3500 
L 1159 3500 
L 1159 2956 
Q 1356 3278 1631 3431 
Q 1906 3584 2284 3584 
Q 2666 3584 2933 3390 
Q 3200 3197 3328 2828 
z
" transform="scale(0.015625)"/>
     </defs>
     <use xlink:href="#DejaVuSans-36"/>
     <use xlink:href="#DejaVuSans-50" transform="translate(63.484375 0)"/>
     <use xlink:href="#DejaVuSans-52" transform="translate(160.890625 0)"/>
     <use xlink:href="#DejaVuSans-52" transform="translate(222.078125 0)"/>
     <use xlink:href="#DejaVuSans-57" transform="translate(283.265625 0)"/>
     <use xlink:href="#DejaVuSans-4b" transform="translate(322.46875 0)"/>
     <use xlink:href="#DejaVuSans-48" transform="translate(385.84375 0)"/>
     <use xlink:href="#DejaVuSans-47" transform="translate(447.375 0)"/>
     <use xlink:href="#DejaVuSans-3" transform="translate(510.859375 0)"/>
     <use xlink:href="#DejaVuSans-2f" transform="translate(542.640625 0)"/>
     <use xlink:href="#DejaVuSans-52" transform="translate(596.609375 0)"/>
     <use xlink:href="#DejaVuSans-56" transform="translate(657.796875 0)"/>
     <use xlink:href="#DejaVuSans-56" transform="translate(709.890625 0)"/>
     <use xlink:href="#DejaVuSans-3" transform="translate(761.984375 0)"/>
     <use xlink:href="#DejaVuSans-37" transform="translate(793.765625 0)"/>
     <use xlink:href="#DejaVuSans-55" transform="translate(840.140625 0)"/>
     <use xlink:href="#DejaVuSans-48" transform="translate(879.046875 0)"/>
     <use xlink:href="#DejaVuSans-51" transform="translate(940.578125 0)"/>
     <use xlink:href="#DejaVuSans-47" transform="translate(1003.953125 0)"/>
    </g>
   </g>
   <g id="legend_2">
    <g id="patch_13">
     <path d="M 870.089531 85.161406 
L 987.245625 85.161406 
Q 989.045625 85.161406 989.045625 83.361406 
L 989.045625 57.26 
Q 989.045625 55.46 987.245625 55.46 
L 870.089531 55.46 
Q 868.289531 55.46 868.289531 57.26 
L 868.289531 83.361406 
Q 868.289531 85.161406 870.089531 85.161406 
z
" style="fill: #ffffff; opacity: 0.8; stroke: #cccccc; stroke-linejoin: miter"/>
    </g>
    <g id="line2d_57">
     <path d="M 871.889531 62.748594 
L 880.889531 62.748594 
L 889.889531 62.748594 
" style="fill: none; stroke: #4682b4; stroke-width: 2.5; stroke-linecap: square"/>
    </g>
    <g id="text_33">
     <!-- Train (5-ep smooth) -->
     <g transform="translate(897.089531 65.898594) scale(0.09 -0.09)">
      <use xlink:href="#DejaVuSans-37"/>
      <use xlink:href="#DejaVuSans-55" transform="translate(46.375 0)"/>
      <use xlink:href="#DejaVuSans-44" transform="translate(87.484375 0)"/>
      <use xlink:href="#DejaVuSans-4c" transform="translate(148.765625 0)"/>
      <use xlink:href="#DejaVuSans-51" transform="translate(176.546875 0)"/>
      <use xlink:href="#DejaVuSans-3" transform="translate(239.921875 0)"/>
      <use xlink:href="#DejaVuSans-b" transform="translate(271.703125 0)"/>
      <use xlink:href="#DejaVuSans-18" transform="translate(310.71875 0)"/>
      <use xlink:href="#DejaVuSans-10" transform="translate(374.34375 0)"/>
      <use xlink:href="#DejaVuSans-48" transform="translate(410.421875 0)"/>
      <use xlink:href="#DejaVuSans-53" transform="translate(471.953125 0)"/>
      <use xlink:href="#DejaVuSans-3" transform="translate(535.4375 0)"/>
      <use xlink:href="#DejaVuSans-56" transform="translate(567.21875 0)"/>
      <use xlink:href="#DejaVuSans-50" transform="translate(619.3125 0)"/>
      <use xlink:href="#DejaVuSans-52" transform="translate(716.71875 0)"/>
      <use xlink:href="#DejaVuSans-52" transform="translate(777.90625 0)"/>
      <use xlink:href="#DejaVuSans-57" transform="translate(839.09375 0)"/>
      <use xlink:href="#DejaVuSans-4b" transform="translate(878.296875 0)"/>
      <use xlink:href="#DejaVuSans-c" transform="translate(941.671875 0)"/>
     </g>
    </g>
    <g id="line2d_58">
     <path d="M 871.889531 76.249297 
L 880.889531 76.249297 
L 889.889531 76.249297 
" style="fill: none; stroke: #ff4500; stroke-width: 2.5; stroke-linecap: square"/>
    </g>
    <g id="text_34">
     <!-- Valid (5-ep smooth) -->
     <g transform="translate(897.089531 79.399297) scale(0.09 -0.09)">
      <use xlink:href="#DejaVuSans-39"/>
      <use xlink:href="#DejaVuSans-44" transform="translate(60.640625 0)"/>
      <use xlink:href="#DejaVuSans-4f" transform="translate(121.921875 0)"/>
      <use xlink:href="#DejaVuSans-4c" transform="translate(149.703125 0)"/>
      <use xlink:href="#DejaVuSans-47" transform="translate(177.484375 0)"/>
      <use xlink:href="#DejaVuSans-3" transform="translate(240.96875 0)"/>
      <use xlink:href="#DejaVuSans-b" transform="translate(272.75 0)"/>
      <use xlink:href="#DejaVuSans-18" transform="translate(311.765625 0)"/>
      <use xlink:href="#DejaVuSans-10" transform="translate(375.390625 0)"/>
      <use xlink:href="#DejaVuSans-48" transform="translate(411.46875 0)"/>
      <use xlink:href="#DejaVuSans-53" transform="translate(473 0)"/>
      <use xlink:href="#DejaVuSans-3" transform="translate(536.484375 0)"/>
      <use xlink:href="#DejaVuSans-56" transform="translate(568.265625 0)"/>
      <use xlink:href="#DejaVuSans-50" transform="translate(620.359375 0)"/>
      <use xlink:href="#DejaVuSans-52" transform="translate(717.765625 0)"/>
      <use xlink:href="#DejaVuSans-52" transform="translate(778.953125 0)"/>
      <use xlink:href="#DejaVuSans-57" transform="translate(840.140625 0)"/>
      <use xlink:href="#DejaVuSans-4b" transform="translate(879.34375 0)"/>
      <use xlink:href="#DejaVuSans-c" transform="translate(942.71875 0)"/>
     </g>
    </g>
   </g>
  </g>
  <g id="text_35">
   <!-- Training Loss -->
   <g transform="translate(448.34875 17.837812) scale(0.14 -0.14)">
    <defs>
     <path id="DejaVuSans-Bold-37" d="M 31 4666 
L 4331 4666 
L 4331 3756 
L 2784 3756 
L 2784 0 
L 1581 0 
L 1581 3756 
L 31 3756 
L 31 4666 
z
" transform="scale(0.015625)"/>
     <path id="DejaVuSans-Bold-55" d="M 3138 2547 
Q 2991 2616 2845 2648 
Q 2700 2681 2553 2681 
Q 2122 2681 1889 2404 
Q 1656 2128 1656 1613 
L 1656 0 
L 538 0 
L 538 3500 
L 1656 3500 
L 1656 2925 
Q 1872 3269 2151 3426 
Q 2431 3584 2822 3584 
Q 2878 3584 2943 3579 
Q 3009 3575 3134 3559 
L 3138 2547 
z
" transform="scale(0.015625)"/>
     <path id="DejaVuSans-Bold-44" d="M 2106 1575 
Q 1756 1575 1579 1456 
Q 1403 1338 1403 1106 
Q 1403 894 1545 773 
Q 1688 653 1941 653 
Q 2256 653 2472 879 
Q 2688 1106 2688 1447 
L 2688 1575 
L 2106 1575 
z
M 3816 1997 
L 3816 0 
L 2688 0 
L 2688 519 
Q 2463 200 2181 54 
Q 1900 -91 1497 -91 
Q 953 -91 614 226 
Q 275 544 275 1050 
Q 275 1666 698 1953 
Q 1122 2241 2028 2241 
L 2688 2241 
L 2688 2328 
Q 2688 2594 2478 2717 
Q 2269 2841 1825 2841 
Q 1466 2841 1156 2769 
Q 847 2697 581 2553 
L 581 3406 
Q 941 3494 1303 3539 
Q 1666 3584 2028 3584 
Q 2975 3584 3395 3211 
Q 3816 2838 3816 1997 
z
" transform="scale(0.015625)"/>
     <path id="DejaVuSans-Bold-4c" d="M 538 3500 
L 1656 3500 
L 1656 0 
L 538 0 
L 538 3500 
z
M 538 4863 
L 1656 4863 
L 1656 3950 
L 538 3950 
L 538 4863 
z
" transform="scale(0.015625)"/>
     <path id="DejaVuSans-Bold-51" d="M 4056 2131 
L 4056 0 
L 2931 0 
L 2931 347 
L 2931 1631 
Q 2931 2084 2911 2256 
Q 2891 2428 2841 2509 
Q 2775 2619 2662 2680 
Q 2550 2741 2406 2741 
Q 2056 2741 1856 2470 
Q 1656 2200 1656 1722 
L 1656 0 
L 538 0 
L 538 3500 
L 1656 3500 
L 1656 2988 
Q 1909 3294 2193 3439 
Q 2478 3584 2822 3584 
Q 3428 3584 3742 3212 
Q 4056 2841 4056 2131 
z
" transform="scale(0.015625)"/>
     <path id="DejaVuSans-Bold-4a" d="M 2919 594 
Q 2688 288 2409 144 
Q 2131 0 1766 0 
Q 1125 0 706 504 
Q 288 1009 288 1791 
Q 288 2575 706 3076 
Q 1125 3578 1766 3578 
Q 2131 3578 2409 3434 
Q 2688 3291 2919 2981 
L 2919 3500 
L 4044 3500 
L 4044 353 
Q 4044 -491 3511 -936 
Q 2978 -1381 1966 -1381 
Q 1638 -1381 1331 -1331 
Q 1025 -1281 716 -1178 
L 716 -306 
Q 1009 -475 1290 -558 
Q 1572 -641 1856 -641 
Q 2406 -641 2662 -400 
Q 2919 -159 2919 353 
L 2919 594 
z
M 2181 2772 
Q 1834 2772 1640 2515 
Q 1447 2259 1447 1791 
Q 1447 1309 1634 1061 
Q 1822 813 2181 813 
Q 2531 813 2725 1069 
Q 2919 1325 2919 1791 
Q 2919 2259 2725 2515 
Q 2531 2772 2181 2772 
z
" transform="scale(0.015625)"/>
     <path id="DejaVuSans-Bold-3" transform="scale(0.015625)"/>
     <path id="DejaVuSans-Bold-2f" d="M 588 4666 
L 1791 4666 
L 1791 909 
L 3903 909 
L 3903 0 
L 588 0 
L 588 4666 
z
" transform="scale(0.015625)"/>
     <path id="DejaVuSans-Bold-52" d="M 2203 2784 
Q 1831 2784 1636 2517 
Q 1441 2250 1441 1747 
Q 1441 1244 1636 976 
Q 1831 709 2203 709 
Q 2569 709 2762 976 
Q 2956 1244 2956 1747 
Q 2956 2250 2762 2517 
Q 2569 2784 2203 2784 
z
M 2203 3584 
Q 3106 3584 3614 3096 
Q 4122 2609 4122 1747 
Q 4122 884 3614 396 
Q 3106 -91 2203 -91 
Q 1297 -91 786 396 
Q 275 884 275 1747 
Q 275 2609 786 3096 
Q 1297 3584 2203 3584 
z
" transform="scale(0.015625)"/>
     <path id="DejaVuSans-Bold-56" d="M 3272 3391 
L 3272 2541 
Q 2913 2691 2578 2766 
Q 2244 2841 1947 2841 
Q 1628 2841 1473 2761 
Q 1319 2681 1319 2516 
Q 1319 2381 1436 2309 
Q 1553 2238 1856 2203 
L 2053 2175 
Q 2913 2066 3209 1816 
Q 3506 1566 3506 1031 
Q 3506 472 3093 190 
Q 2681 -91 1863 -91 
Q 1516 -91 1145 -36 
Q 775 19 384 128 
L 384 978 
Q 719 816 1070 734 
Q 1422 653 1784 653 
Q 2113 653 2278 743 
Q 2444 834 2444 1013 
Q 2444 1163 2330 1236 
Q 2216 1309 1875 1350 
L 1678 1375 
Q 931 1469 631 1722 
Q 331 1975 331 2491 
Q 331 3047 712 3315 
Q 1094 3584 1881 3584 
Q 2191 3584 2531 3537 
Q 2872 3491 3272 3391 
z
" transform="scale(0.015625)"/>
    </defs>
    <use xlink:href="#DejaVuSans-Bold-37"/>
    <use xlink:href="#DejaVuSans-Bold-55" transform="translate(57.234375 0)"/>
    <use xlink:href="#DejaVuSans-Bold-44" transform="translate(106.546875 0)"/>
    <use xlink:href="#DejaVuSans-Bold-4c" transform="translate(174.03125 0)"/>
    <use xlink:href="#DejaVuSans-Bold-51" transform="translate(208.3125 0)"/>
    <use xlink:href="#DejaVuSans-Bold-4c" transform="translate(279.5 0)"/>
    <use xlink:href="#DejaVuSans-Bold-51" transform="translate(313.78125 0)"/>
    <use xlink:href="#DejaVuSans-Bold-4a" transform="translate(384.96875 0)"/>
    <use xlink:href="#DejaVuSans-Bold-3" transform="translate(456.546875 0)"/>
    <use xlink:href="#DejaVuSans-Bold-2f" transform="translate(491.359375 0)"/>
    <use xlink:href="#DejaVuSans-Bold-52" transform="translate(555.078125 0)"/>
    <use xlink:href="#DejaVuSans-Bold-56" transform="translate(623.78125 0)"/>
    <use xlink:href="#DejaVuSans-Bold-56" transform="translate(683.296875 0)"/>
   </g>
  </g>
 </g>
 <defs>
  <clipPath id="p682e34340c">
   <rect x="50.465625" y="50.96" width="444.48" height="266.917656"/>
  </clipPath>
  <clipPath id="pe40391d4df">
   <rect x="549.065625" y="50.96" width="444.48" height="266.917656"/>
  </clipPath>
 </defs>
</svg>
