<?xml version="1.0" encoding="utf-8" standalone="no"?>
<!DOCTYPE svg PUBLIC "-//W3C//DTD SVG 1.1//EN"
  "http://www.w3.org/Graphics/SVG/1.1/DTD/svg11.dtd">
<svg xmlns:xlink="http://www.w3.org/1999/xlink" width="1000.745625pt" height="356.078437pt" viewBox="0 0 1000.745625 356.078437" xmlns="http://www.w3.org/2000/svg" version="1.1">
 <metadata>
  <rdf:RDF xmlns:dc="http://purl.org/dc/elements/1.1/" xmlns:cc="http://creativecommons.org/ns#" xmlns:rdf="http://www.w3.org/1999/02/22-rdf-syntax-ns#">
   <cc:Work>
    <dc:type rdf:resource="http://purl.org/dc/dcmitype/StillImage"/>
    <dc:date>2026-07-22T09:22:43.917394</dc:date>
    <dc:format>image/svg+xml</dc:format>
    <dc:creator>
     <cc:Agent>
      <dc:title>Matplotlib v3.11.1, https://matplotlib.org/</dc:title>
     </cc:Agent>
    </dc:creator>
   </cc:Work>
  </rdf:RDF>
 </metadata>
 <defs>
  <style type="text/css">*{stroke-linejoin: round; stroke-linecap: butt}</style>
 </defs>
 <g id="figure_1">
  <g id="patch_1">
   <path d="M 0 356.078437 
L 1000.745625 356.078437 
L 1000.745625 0 
L 0 0 
z
" style="fill: #ffffff"/>
  </g>
  <g id="axes_1">
   <g id="patch_2">
    <path d="M 50.465625 317.877656 
L 494.945625 317.877656 
L 494.945625 50.96 
L 50.465625 50.96 
z
" style="fill: #ffffff"/>
   </g>
   <g id="FillBetweenPolyCollection_1">
    <defs>
     <path id="ma9889d15c8" d="M 70.669261 -292.985817 
L 70.669261 -170.310058 
L 74.750804 -181.367471 
L 78.832347 -171.722369 
L 82.913889 -124.890095 
L 86.995432 -98.894989 
L 91.076975 -86.491194 
L 95.158518 -77.625541 
L 99.24006 -71.838305 
L 103.321603 -68.933556 
L 107.403146 -67.816279 
L 111.484688 -66.356742 
L 115.566231 -64.150202 
L 119.647774 -64.250928 
L 123.729316 -63.820093 
L 127.810859 -61.338855 
L 131.892402 -70.897851 
L 135.973945 -65.911868 
L 140.055487 -62.556911 
L 144.13703 -61.341159 
L 148.218573 -60.165088 
L 152.300115 -61.737059 
L 156.381658 -61.134354 
L 160.463201 -65.511817 
L 164.544743 -62.761493 
L 168.626286 -61.303255 
L 172.707829 -58.063828 
L 176.789372 -57.441267 
L 180.870914 -55.065561 
L 184.952457 -66.937347 
L 189.034 -61.284093 
L 193.115542 -58.713396 
L 197.197085 -57.924994 
L 201.278628 -56.93868 
L 205.36017 -61.070655 
L 209.441713 -59.112613 
L 213.523256 -57.835197 
L 217.604799 -58.398173 
L 221.686341 -56.351038 
L 225.767884 -55.594038 
L 229.849427 -54.721769 
L 233.930969 -54.40823 
L 238.012512 -54.627991 
L 242.094055 -53.860612 
L 246.175597 -53.847684 
L 250.25714 -54.111822 
L 254.338683 -53.729761 
L 258.420226 -53.133769 
L 262.501768 -53.224005 
L 266.583311 -52.970146 
L 270.664854 -53.035153 
L 274.746396 -52.397323 
L 278.827939 -52.462026 
L 282.909482 -52.318092 
L 286.991024 -52.345502 
L 291.072567 -52.123112 
L 295.15411 -52.291742 
L 299.235653 -52.277787 
L 303.317195 -52.015713 
L 307.398738 -52.0951 
L 311.480281 -52.094015 
L 315.561823 -52.111094 
L 319.643366 -51.901723 
L 323.724909 -51.875274 
L 327.806451 -51.775658 
L 331.887994 -52.005683 
L 335.969537 -51.911117 
L 340.05108 -52.148658 
L 344.132622 -51.484815 
L 348.214165 -51.799858 
L 352.295708 -51.492727 
L 356.37725 -51.353533 
L 360.458793 -51.487282 
L 364.540336 -51.518111 
L 368.621878 -51.349561 
L 372.703421 -51.247204 
L 376.784964 -51.435616 
L 380.866507 -51.276824 
L 384.948049 -51.060388 
L 389.029592 -51.134716 
L 393.111135 -51.084358 
L 397.192677 -51.389172 
L 401.27422 -50.880938 
L 405.355763 -51.177418 
L 409.437305 -51.245973 
L 413.518848 -50.955433 
L 417.600391 -50.953685 
L 421.681934 -51.04479 
L 425.763476 -50.468179 
L 429.845019 -50.926457 
L 433.926562 -50.665874 
L 438.008104 -50.588974 
L 442.089647 -50.618951 
L 446.17119 -50.453894 
L 450.252732 -50.457303 
L 454.334275 -50.571182 
L 458.415818 -50.506298 
L 462.497361 -50.494762 
L 466.578903 -50.333402 
L 470.660446 -50.385626 
L 474.741989 -50.62713 
L 474.741989 -52.683819 
L 474.741989 -52.683819 
L 470.660446 -52.61729 
L 466.578903 -53.475032 
L 462.497361 -52.775465 
L 458.415818 -52.524085 
L 454.334275 -52.717996 
L 450.252732 -52.743348 
L 446.17119 -52.585202 
L 442.089647 -53.110267 
L 438.008104 -53.157335 
L 433.926562 -52.777848 
L 429.845019 -52.90683 
L 425.763476 -53.307797 
L 421.681934 -52.972975 
L 417.600391 -53.083203 
L 413.518848 -53.089226 
L 409.437305 -53.32213 
L 405.355763 -53.57946 
L 401.27422 -53.226135 
L 397.192677 -53.461314 
L 393.111135 -53.585083 
L 389.029592 -53.372869 
L 384.948049 -53.528172 
L 380.866507 -53.81719 
L 376.784964 -53.678327 
L 372.703421 -53.934141 
L 368.621878 -53.900262 
L 364.540336 -53.839968 
L 360.458793 -53.893151 
L 356.37725 -53.782146 
L 352.295708 -53.648084 
L 348.214165 -53.946389 
L 344.132622 -54.753342 
L 340.05108 -54.35681 
L 335.969537 -53.855289 
L 331.887994 -54.25136 
L 327.806451 -54.44457 
L 323.724909 -54.552837 
L 319.643366 -54.341928 
L 315.561823 -54.427343 
L 311.480281 -54.708651 
L 307.398738 -54.452308 
L 303.317195 -54.512307 
L 299.235653 -54.884258 
L 295.15411 -54.800751 
L 291.072567 -54.660245 
L 286.991024 -54.800629 
L 282.909482 -55.490178 
L 278.827939 -55.789521 
L 274.746396 -55.500032 
L 270.664854 -55.796519 
L 266.583311 -55.762219 
L 262.501768 -55.647292 
L 258.420226 -55.875222 
L 254.338683 -56.429703 
L 250.25714 -56.650804 
L 246.175597 -56.799786 
L 242.094055 -57.540087 
L 238.012512 -57.558559 
L 233.930969 -58.178606 
L 229.849427 -58.587651 
L 225.767884 -58.938478 
L 221.686341 -61.160492 
L 217.604799 -63.41211 
L 213.523256 -63.026056 
L 209.441713 -65.600219 
L 205.36017 -67.732283 
L 201.278628 -61.353588 
L 197.197085 -62.053243 
L 193.115542 -64.057013 
L 189.034 -67.452653 
L 184.952457 -78.748853 
L 180.870914 -66.617001 
L 176.789372 -62.628716 
L 172.707829 -64.102533 
L 168.626286 -67.923918 
L 164.544743 -70.75884 
L 160.463201 -74.475945 
L 156.381658 -67.001931 
L 152.300115 -68.48897 
L 148.218573 -67.305331 
L 144.13703 -68.24963 
L 140.055487 -69.376741 
L 135.973945 -73.395321 
L 131.892402 -81.2726 
L 127.810859 -69.21363 
L 123.729316 -69.232628 
L 119.647774 -69.88874 
L 115.566231 -68.997134 
L 111.484688 -71.123078 
L 107.403146 -73.38836 
L 103.321603 -75.158012 
L 99.24006 -78.416429 
L 95.158518 -84.566363 
L 91.076975 -97.280976 
L 86.995432 -114.070954 
L 82.913889 -156.219719 
L 78.832347 -189.27117 
L 74.750804 -194.166477 
L 70.669261 -292.985817 
z
" style="stroke: #4682b4; stroke-opacity: 0.2"/>
    </defs>
    <g clip-path="url(#p6523c6e32f)">
     <use xlink:href="#ma9889d15c8" x="0" y="356.078437" style="fill: #4682b4; fill-opacity: 0.2; stroke: #4682b4; stroke-opacity: 0.2"/>
    </g>
   </g>
   <g id="FillBetweenPolyCollection_2">
    <defs>
     <path id="mf751d0bc4d" d="M 70.669261 -212.516358 
L 70.669261 -170.08177 
L 74.750804 -168.139257 
L 78.832347 -159.013557 
L 82.913889 -134.601139 
L 86.995432 -120.770204 
L 91.076975 -113.15193 
L 95.158518 -108.873639 
L 99.24006 -112.574599 
L 103.321603 -109.010281 
L 107.403146 -102.756181 
L 111.484688 -110.113294 
L 115.566231 -101.06988 
L 119.647774 -100.287954 
L 123.729316 -100.833997 
L 127.810859 -106.208007 
L 131.892402 -96.098965 
L 135.973945 -102.235678 
L 140.055487 -92.163598 
L 144.13703 -102.301979 
L 148.218573 -96.640076 
L 152.300115 -95.778092 
L 156.381658 -100.618714 
L 160.463201 -103.732098 
L 164.544743 -100.134199 
L 168.626286 -100.868485 
L 172.707829 -98.736969 
L 176.789372 -100.699877 
L 180.870914 -115.337643 
L 184.952457 -101.895351 
L 189.034 -100.592385 
L 193.115542 -96.652207 
L 197.197085 -104.231699 
L 201.278628 -100.244918 
L 205.36017 -108.948624 
L 209.441713 -100.228913 
L 213.523256 -105.684015 
L 217.604799 -95.717159 
L 221.686341 -100.911619 
L 225.767884 -96.380694 
L 229.849427 -95.407781 
L 233.930969 -98.6768 
L 238.012512 -97.907723 
L 242.094055 -99.224007 
L 246.175597 -100.657223 
L 250.25714 -100.257192 
L 254.338683 -98.664396 
L 258.420226 -101.814465 
L 262.501768 -98.925091 
L 266.583311 -101.995181 
L 270.664854 -98.438181 
L 274.746396 -97.793522 
L 278.827939 -100.046667 
L 282.909482 -99.078087 
L 286.991024 -100.893798 
L 291.072567 -98.727935 
L 295.15411 -98.11659 
L 299.235653 -100.616216 
L 303.317195 -97.909788 
L 307.398738 -97.206126 
L 311.480281 -97.505668 
L 315.561823 -98.112043 
L 319.643366 -97.8326 
L 323.724909 -96.212062 
L 327.806451 -99.577812 
L 331.887994 -96.294148 
L 335.969537 -96.907164 
L 340.05108 -97.566892 
L 344.132622 -99.259129 
L 348.214165 -97.658884 
L 352.295708 -97.94056 
L 356.37725 -98.345259 
L 360.458793 -99.551603 
L 364.540336 -97.829987 
L 368.621878 -97.785442 
L 372.703421 -98.05518 
L 376.784964 -97.034863 
L 380.866507 -96.859899 
L 384.948049 -97.194817 
L 389.029592 -97.941403 
L 393.111135 -97.780959 
L 397.192677 -97.706185 
L 401.27422 -97.153238 
L 405.355763 -97.808248 
L 409.437305 -97.049109 
L 413.518848 -97.288583 
L 417.600391 -96.929899 
L 421.681934 -97.143809 
L 425.763476 -97.435869 
L 429.845019 -98.4434 
L 433.926562 -97.838153 
L 438.008104 -98.502022 
L 442.089647 -98.150238 
L 446.17119 -97.771686 
L 450.252732 -98.279546 
L 454.334275 -98.333879 
L 458.415818 -97.271307 
L 462.497361 -98.325009 
L 466.578903 -98.872648 
L 470.660446 -98.647357 
L 474.741989 -98.700689 
L 474.741989 -134.945187 
L 474.741989 -134.945187 
L 470.660446 -134.789553 
L 466.578903 -134.736487 
L 462.497361 -134.434363 
L 458.415818 -133.122325 
L 454.334275 -134.144657 
L 450.252732 -133.885164 
L 446.17119 -133.718933 
L 442.089647 -133.892794 
L 438.008104 -133.696387 
L 433.926562 -133.211699 
L 429.845019 -133.498895 
L 425.763476 -133.774881 
L 421.681934 -133.453037 
L 417.600391 -132.953777 
L 413.518848 -132.950898 
L 409.437305 -133.829953 
L 405.355763 -134.127831 
L 401.27422 -132.970607 
L 397.192677 -133.273956 
L 393.111135 -133.355657 
L 389.029592 -133.510344 
L 384.948049 -133.651599 
L 380.866507 -133.416855 
L 376.784964 -134.77522 
L 372.703421 -134.826263 
L 368.621878 -134.490132 
L 364.540336 -135.218213 
L 360.458793 -136.004326 
L 356.37725 -135.717163 
L 352.295708 -135.100211 
L 348.214165 -134.975275 
L 344.132622 -137.196576 
L 340.05108 -135.968405 
L 335.969537 -136.704947 
L 331.887994 -133.713912 
L 327.806451 -136.87801 
L 323.724909 -132.685419 
L 319.643366 -134.899395 
L 315.561823 -134.508998 
L 311.480281 -133.773083 
L 307.398738 -131.496543 
L 303.317195 -132.677071 
L 299.235653 -134.686894 
L 295.15411 -133.631106 
L 291.072567 -135.974295 
L 286.991024 -136.899429 
L 282.909482 -132.439063 
L 278.827939 -133.872811 
L 274.746396 -131.890941 
L 270.664854 -133.014936 
L 266.583311 -139.047284 
L 262.501768 -134.618527 
L 258.420226 -137.88995 
L 254.338683 -135.233144 
L 250.25714 -134.969545 
L 246.175597 -130.211283 
L 242.094055 -132.707569 
L 238.012512 -130.888468 
L 233.930969 -136.695074 
L 229.849427 -128.79123 
L 225.767884 -131.454699 
L 221.686341 -131.702447 
L 217.604799 -138.798012 
L 213.523256 -153.071385 
L 209.441713 -143.112532 
L 205.36017 -138.496756 
L 201.278628 -144.773545 
L 197.197085 -138.172389 
L 193.115542 -131.246443 
L 189.034 -144.969556 
L 184.952457 -134.528779 
L 180.870914 -154.371898 
L 176.789372 -133.45104 
L 172.707829 -137.280831 
L 168.626286 -138.719793 
L 164.544743 -143.873278 
L 160.463201 -144.298406 
L 156.381658 -140.623702 
L 152.300115 -134.888282 
L 148.218573 -139.563657 
L 144.13703 -135.298436 
L 140.055487 -141.200694 
L 135.973945 -135.60261 
L 131.892402 -147.68768 
L 127.810859 -135.780658 
L 123.729316 -136.199944 
L 119.647774 -142.380289 
L 115.566231 -133.948664 
L 111.484688 -159.568861 
L 107.403146 -137.998735 
L 103.321603 -147.138384 
L 99.24006 -141.508831 
L 95.158518 -144.664024 
L 91.076975 -143.728435 
L 86.995432 -151.670143 
L 82.913889 -172.257556 
L 78.832347 -197.563017 
L 74.750804 -211.381044 
L 70.669261 -212.516358 
z
" style="stroke: #ff4500; stroke-opacity: 0.2"/>
    </defs>
    <g clip-path="url(#p6523c6e32f)">
     <use xlink:href="#mf751d0bc4d" x="0" y="356.078437" style="fill: #ff4500; fill-opacity: 0.2; stroke: #ff4500; stroke-opacity: 0.2"/>
    </g>
   </g>
   <g id="matplotlib.axis_1">
    <g id="xtick_1">
     <g id="line2d_1">
      <path d="M 70.669261 317.877656 
L 70.669261 50.96 
" clip-path="url(#p6523c6e32f)" style="fill: none; stroke: #b0b0b0; stroke-opacity: 0.3; stroke-width: 0.8; stroke-linecap: square"/>
     </g>
     <g id="line2d_2">
      <defs>
       <path id="m9c6fec85c9" d="M 0 0 
L 0 3.5 
" style="stroke: #000000; stroke-width: 0.8"/>
      </defs>
      <g>
       <use xlink:href="#m9c6fec85c9" x="70.669261" y="317.877656" style="stroke: #000000; stroke-width: 0.8"/>
      </g>
     </g>
     <g id="text_1">
      <!-- 0 -->
      <g transform="translate(67.488011 332.475312) scale(0.1 -0.1)">
       <defs>
        <path id="DejaVuSans-13" d="M 2034 4250 
Q 1547 4250 1301 3770 
Q 1056 3291 1056 2328 
Q 1056 1369 1301 889 
Q 1547 409 2034 409 
Q 2525 409 2770 889 
Q 3016 1369 3016 2328 
Q 3016 3291 2770 3770 
Q 2525 4250 2034 4250 
z
M 2034 4750 
Q 2819 4750 3233 4129 
Q 3647 3509 3647 2328 
Q 3647 1150 3233 529 
Q 2819 -91 2034 -91 
Q 1250 -91 836 529 
Q 422 1150 422 2328 
Q 422 3509 836 4129 
Q 1250 4750 2034 4750 
z
" transform="scale(0.015625)"/>
       </defs>
       <use xlink:href="#DejaVuSans-13"/>
      </g>
     </g>
    </g>
    <g id="xtick_2">
     <g id="line2d_3">
      <path d="M 152.300115 317.877656 
L 152.300115 50.96 
" clip-path="url(#p6523c6e32f)" style="fill: none; stroke: #b0b0b0; stroke-opacity: 0.3; stroke-width: 0.8; stroke-linecap: square"/>
     </g>
     <g id="line2d_4">
      <g>
       <use xlink:href="#m9c6fec85c9" x="152.300115" y="317.877656" style="stroke: #000000; stroke-width: 0.8"/>
      </g>
     </g>
     <g id="text_2">
      <!-- 20 -->
      <g transform="translate(145.937615 332.475312) scale(0.1 -0.1)">
       <defs>
        <path id="DejaVuSans-15" d="M 1228 531 
L 3431 531 
L 3431 0 
L 469 0 
L 469 531 
Q 828 903 1448 1529 
Q 2069 2156 2228 2338 
Q 2531 2678 2651 2914 
Q 2772 3150 2772 3378 
Q 2772 3750 2511 3984 
Q 2250 4219 1831 4219 
Q 1534 4219 1204 4116 
Q 875 4013 500 3803 
L 500 4441 
Q 881 4594 1212 4672 
Q 1544 4750 1819 4750 
Q 2544 4750 2975 4387 
Q 3406 4025 3406 3419 
Q 3406 3131 3298 2873 
Q 3191 2616 2906 2266 
Q 2828 2175 2409 1742 
Q 1991 1309 1228 531 
z
" transform="scale(0.015625)"/>
       </defs>
       <use xlink:href="#DejaVuSans-15"/>
       <use xlink:href="#DejaVuSans-13" transform="translate(63.625 0)"/>
      </g>
     </g>
    </g>
    <g id="xtick_3">
     <g id="line2d_5">
      <path d="M 233.930969 317.877656 
L 233.930969 50.96 
" clip-path="url(#p6523c6e32f)" style="fill: none; stroke: #b0b0b0; stroke-opacity: 0.3; stroke-width: 0.8; stroke-linecap: square"/>
     </g>
     <g id="line2d_6">
      <g>
       <use xlink:href="#m9c6fec85c9" x="233.930969" y="317.877656" style="stroke: #000000; stroke-width: 0.8"/>
      </g>
     </g>
     <g id="text_3">
      <!-- 40 -->
      <g transform="translate(227.568469 332.475312) scale(0.1 -0.1)">
       <defs>
        <path id="DejaVuSans-17" d="M 2419 4116 
L 825 1625 
L 2419 1625 
L 2419 4116 
z
M 2253 4666 
L 3047 4666 
L 3047 1625 
L 3713 1625 
L 3713 1100 
L 3047 1100 
L 3047 0 
L 2419 0 
L 2419 1100 
L 313 1100 
L 313 1709 
L 2253 4666 
z
" transform="scale(0.015625)"/>
       </defs>
       <use xlink:href="#DejaVuSans-17"/>
       <use xlink:href="#DejaVuSans-13" transform="translate(63.625 0)"/>
      </g>
     </g>
    </g>
    <g id="xtick_4">
     <g id="line2d_7">
      <path d="M 315.561823 317.877656 
L 315.561823 50.96 
" clip-path="url(#p6523c6e32f)" style="fill: none; stroke: #b0b0b0; stroke-opacity: 0.3; stroke-width: 0.8; stroke-linecap: square"/>
     </g>
     <g id="line2d_8">
      <g>
       <use xlink:href="#m9c6fec85c9" x="315.561823" y="317.877656" style="stroke: #000000; stroke-width: 0.8"/>
      </g>
     </g>
     <g id="text_4">
      <!-- 60 -->
      <g transform="translate(309.199323 332.475312) scale(0.1 -0.1)">
       <defs>
        <path id="DejaVuSans-19" d="M 2113 2584 
Q 1688 2584 1439 2293 
Q 1191 2003 1191 1497 
Q 1191 994 1439 701 
Q 1688 409 2113 409 
Q 2538 409 2786 701 
Q 3034 994 3034 1497 
Q 3034 2003 2786 2293 
Q 2538 2584 2113 2584 
z
M 3366 4563 
L 3366 3988 
Q 3128 4100 2886 4159 
Q 2644 4219 2406 4219 
Q 1781 4219 1451 3797 
Q 1122 3375 1075 2522 
Q 1259 2794 1537 2939 
Q 1816 3084 2150 3084 
Q 2853 3084 3261 2657 
Q 3669 2231 3669 1497 
Q 3669 778 3244 343 
Q 2819 -91 2113 -91 
Q 1303 -91 875 529 
Q 447 1150 447 2328 
Q 447 3434 972 4092 
Q 1497 4750 2381 4750 
Q 2619 4750 2861 4703 
Q 3103 4656 3366 4563 
z
" transform="scale(0.015625)"/>
       </defs>
       <use xlink:href="#DejaVuSans-19"/>
       <use xlink:href="#DejaVuSans-13" transform="translate(63.625 0)"/>
      </g>
     </g>
    </g>
    <g id="xtick_5">
     <g id="line2d_9">
      <path d="M 397.192677 317.877656 
L 397.192677 50.96 
" clip-path="url(#p6523c6e32f)" style="fill: none; stroke: #b0b0b0; stroke-opacity: 0.3; stroke-width: 0.8; stroke-linecap: square"/>
     </g>
     <g id="line2d_10">
      <g>
       <use xlink:href="#m9c6fec85c9" x="397.192677" y="317.877656" style="stroke: #000000; stroke-width: 0.8"/>
      </g>
     </g>
     <g id="text_5">
      <!-- 80 -->
      <g transform="translate(390.830177 332.475312) scale(0.1 -0.1)">
       <defs>
        <path id="DejaVuSans-1b" d="M 2034 2216 
Q 1584 2216 1326 1975 
Q 1069 1734 1069 1313 
Q 1069 891 1326 650 
Q 1584 409 2034 409 
Q 2484 409 2743 651 
Q 3003 894 3003 1313 
Q 3003 1734 2745 1975 
Q 2488 2216 2034 2216 
z
M 1403 2484 
Q 997 2584 770 2862 
Q 544 3141 544 3541 
Q 544 4100 942 4425 
Q 1341 4750 2034 4750 
Q 2731 4750 3128 4425 
Q 3525 4100 3525 3541 
Q 3525 3141 3298 2862 
Q 3072 2584 2669 2484 
Q 3125 2378 3379 2068 
Q 3634 1759 3634 1313 
Q 3634 634 3220 271 
Q 2806 -91 2034 -91 
Q 1263 -91 848 271 
Q 434 634 434 1313 
Q 434 1759 690 2068 
Q 947 2378 1403 2484 
z
M 1172 3481 
Q 1172 3119 1398 2916 
Q 1625 2713 2034 2713 
Q 2441 2713 2670 2916 
Q 2900 3119 2900 3481 
Q 2900 3844 2670 4047 
Q 2441 4250 2034 4250 
Q 1625 4250 1398 4047 
Q 1172 3844 1172 3481 
z
" transform="scale(0.015625)"/>
       </defs>
       <use xlink:href="#DejaVuSans-1b"/>
       <use xlink:href="#DejaVuSans-13" transform="translate(63.625 0)"/>
      </g>
     </g>
    </g>
    <g id="xtick_6">
     <g id="line2d_11">
      <path d="M 478.823531 317.877656 
L 478.823531 50.96 
" clip-path="url(#p6523c6e32f)" style="fill: none; stroke: #b0b0b0; stroke-opacity: 0.3; stroke-width: 0.8; stroke-linecap: square"/>
     </g>
     <g id="line2d_12">
      <g>
       <use xlink:href="#m9c6fec85c9" x="478.823531" y="317.877656" style="stroke: #000000; stroke-width: 0.8"/>
      </g>
     </g>
     <g id="text_6">
      <!-- 100 -->
      <g transform="translate(469.279781 332.475312) scale(0.1 -0.1)">
       <defs>
        <path id="DejaVuSans-14" d="M 794 531 
L 1825 531 
L 1825 4091 
L 703 3866 
L 703 4441 
L 1819 4666 
L 2450 4666 
L 2450 531 
L 3481 531 
L 3481 0 
L 794 0 
L 794 531 
z
" transform="scale(0.015625)"/>
       </defs>
       <use xlink:href="#DejaVuSans-14"/>
       <use xlink:href="#DejaVuSans-13" transform="translate(63.625 0)"/>
       <use xlink:href="#DejaVuSans-13" transform="translate(127.25 0)"/>
      </g>
     </g>
    </g>
    <g id="text_7">
     <!-- Epoch -->
     <g transform="translate(257.394687 346.476094) scale(0.1 -0.1)">
      <defs>
       <path id="DejaVuSans-28" d="M 628 4666 
L 3578 4666 
L 3578 4134 
L 1259 4134 
L 1259 2753 
L 3481 2753 
L 3481 2222 
L 1259 2222 
L 1259 531 
L 3634 531 
L 3634 0 
L 628 0 
L 628 4666 
z
" transform="scale(0.015625)"/>
       <path id="DejaVuSans-53" d="M 1159 525 
L 1159 -1331 
L 581 -1331 
L 581 3500 
L 1159 3500 
L 1159 2969 
Q 1341 3281 1617 3432 
Q 1894 3584 2278 3584 
Q 2916 3584 3314 3078 
Q 3713 2572 3713 1747 
Q 3713 922 3314 415 
Q 2916 -91 2278 -91 
Q 1894 -91 1617 61 
Q 1341 213 1159 525 
z
M 3116 1747 
Q 3116 2381 2855 2742 
Q 2594 3103 2138 3103 
Q 1681 3103 1420 2742 
Q 1159 2381 1159 1747 
Q 1159 1113 1420 752 
Q 1681 391 2138 391 
Q 2594 391 2855 752 
Q 3116 1113 3116 1747 
z
" transform="scale(0.015625)"/>
       <path id="DejaVuSans-52" d="M 1959 3097 
Q 1497 3097 1228 2736 
Q 959 2375 959 1747 
Q 959 1119 1226 758 
Q 1494 397 1959 397 
Q 2419 397 2687 759 
Q 2956 1122 2956 1747 
Q 2956 2369 2687 2733 
Q 2419 3097 1959 3097 
z
M 1959 3584 
Q 2709 3584 3137 3096 
Q 3566 2609 3566 1747 
Q 3566 888 3137 398 
Q 2709 -91 1959 -91 
Q 1206 -91 779 398 
Q 353 888 353 1747 
Q 353 2609 779 3096 
Q 1206 3584 1959 3584 
z
" transform="scale(0.015625)"/>
       <path id="DejaVuSans-46" d="M 3122 3366 
L 3122 2828 
Q 2878 2963 2633 3030 
Q 2388 3097 2138 3097 
Q 1578 3097 1268 2742 
Q 959 2388 959 1747 
Q 959 1106 1268 751 
Q 1578 397 2138 397 
Q 2388 397 2633 464 
Q 2878 531 3122 666 
L 3122 134 
Q 2881 22 2623 -34 
Q 2366 -91 2075 -91 
Q 1284 -91 818 406 
Q 353 903 353 1747 
Q 353 2603 823 3093 
Q 1294 3584 2113 3584 
Q 2378 3584 2631 3529 
Q 2884 3475 3122 3366 
z
" transform="scale(0.015625)"/>
       <path id="DejaVuSans-4b" d="M 3513 2113 
L 3513 0 
L 2938 0 
L 2938 2094 
Q 2938 2591 2744 2837 
Q 2550 3084 2163 3084 
Q 1697 3084 1428 2787 
Q 1159 2491 1159 1978 
L 1159 0 
L 581 0 
L 581 4863 
L 1159 4863 
L 1159 2956 
Q 1366 3272 1645 3428 
Q 1925 3584 2291 3584 
Q 2894 3584 3203 3211 
Q 3513 2838 3513 2113 
z
" transform="scale(0.015625)"/>
      </defs>
      <use xlink:href="#DejaVuSans-28"/>
      <use xlink:href="#DejaVuSans-53" transform="translate(63.1875 0)"/>
      <use xlink:href="#DejaVuSans-52" transform="translate(126.671875 0)"/>
      <use xlink:href="#DejaVuSans-46" transform="translate(187.859375 0)"/>
      <use xlink:href="#DejaVuSans-4b" transform="translate(242.84375 0)"/>
     </g>
    </g>
   </g>
   <g id="matplotlib.axis_2">
    <g id="ytick_1">
     <g id="line2d_13">
      <path d="M 50.465625 313.445749 
L 494.945625 313.445749 
" clip-path="url(#p6523c6e32f)" style="fill: none; stroke: #b0b0b0; stroke-opacity: 0.3; stroke-width: 0.8; stroke-linecap: square"/>
     </g>
     <g id="line2d_14">
      <defs>
       <path id="m5429aa5980" d="M 0 0 
L -3.5 0 
" style="stroke: #000000; stroke-width: 0.8"/>
      </defs>
      <g>
       <use xlink:href="#m5429aa5980" x="50.465625" y="313.445749" style="stroke: #000000; stroke-width: 0.8"/>
      </g>
     </g>
     <g id="text_8">
      <!-- 0.00 -->
      <g transform="translate(21.2 317.244578) scale(0.1 -0.1)">
       <defs>
        <path id="DejaVuSans-11" d="M 684 794 
L 1344 794 
L 1344 0 
L 684 0 
L 684 794 
z
" transform="scale(0.015625)"/>
       </defs>
       <use xlink:href="#DejaVuSans-13"/>
       <use xlink:href="#DejaVuSans-11" transform="translate(63.625 0)"/>
       <use xlink:href="#DejaVuSans-13" transform="translate(95.40625 0)"/>
       <use xlink:href="#DejaVuSans-13" transform="translate(159.03125 0)"/>
      </g>
     </g>
    </g>
    <g id="ytick_2">
     <g id="line2d_15">
      <path d="M 50.465625 256.858732 
L 494.945625 256.858732 
" clip-path="url(#p6523c6e32f)" style="fill: none; stroke: #b0b0b0; stroke-opacity: 0.3; stroke-width: 0.8; stroke-linecap: square"/>
     </g>
     <g id="line2d_16">
      <g>
       <use xlink:href="#m5429aa5980" x="50.465625" y="256.858732" style="stroke: #000000; stroke-width: 0.8"/>
      </g>
     </g>
     <g id="text_9">
      <!-- 0.02 -->
      <g transform="translate(21.2 260.65756) scale(0.1 -0.1)">
       <use xlink:href="#DejaVuSans-13"/>
       <use xlink:href="#DejaVuSans-11" transform="translate(63.625 0)"/>
       <use xlink:href="#DejaVuSans-13" transform="translate(95.40625 0)"/>
       <use xlink:href="#DejaVuSans-15" transform="translate(159.03125 0)"/>
      </g>
     </g>
    </g>
    <g id="ytick_3">
     <g id="line2d_17">
      <path d="M 50.465625 200.271715 
L 494.945625 200.271715 
" clip-path="url(#p6523c6e32f)" style="fill: none; stroke: #b0b0b0; stroke-opacity: 0.3; stroke-width: 0.8; stroke-linecap: square"/>
     </g>
     <g id="line2d_18">
      <g>
       <use xlink:href="#m5429aa5980" x="50.465625" y="200.271715" style="stroke: #000000; stroke-width: 0.8"/>
      </g>
     </g>
     <g id="text_10">
      <!-- 0.04 -->
      <g transform="translate(21.2 204.070543) scale(0.1 -0.1)">
       <use xlink:href="#DejaVuSans-13"/>
       <use xlink:href="#DejaVuSans-11" transform="translate(63.625 0)"/>
       <use xlink:href="#DejaVuSans-13" transform="translate(95.40625 0)"/>
       <use xlink:href="#DejaVuSans-17" transform="translate(159.03125 0)"/>
      </g>
     </g>
    </g>
    <g id="ytick_4">
     <g id="line2d_19">
      <path d="M 50.465625 143.684698 
L 494.945625 143.684698 
" clip-path="url(#p6523c6e32f)" style="fill: none; stroke: #b0b0b0; stroke-opacity: 0.3; stroke-width: 0.8; stroke-linecap: square"/>
     </g>
     <g id="line2d_20">
      <g>
       <use xlink:href="#m5429aa5980" x="50.465625" y="143.684698" style="stroke: #000000; stroke-width: 0.8"/>
      </g>
     </g>
     <g id="text_11">
      <!-- 0.06 -->
      <g transform="translate(21.2 147.483526) scale(0.1 -0.1)">
       <use xlink:href="#DejaVuSans-13"/>
       <use xlink:href="#DejaVuSans-11" transform="translate(63.625 0)"/>
       <use xlink:href="#DejaVuSans-13" transform="translate(95.40625 0)"/>
       <use xlink:href="#DejaVuSans-19" transform="translate(159.03125 0)"/>
      </g>
     </g>
    </g>
    <g id="ytick_5">
     <g id="line2d_21">
      <path d="M 50.465625 87.097681 
L 494.945625 87.097681 
" clip-path="url(#p6523c6e32f)" style="fill: none; stroke: #b0b0b0; stroke-opacity: 0.3; stroke-width: 0.8; stroke-linecap: square"/>
     </g>
     <g id="line2d_22">
      <g>
       <use xlink:href="#m5429aa5980" x="50.465625" y="87.097681" style="stroke: #000000; stroke-width: 0.8"/>
      </g>
     </g>
     <g id="text_12">
      <!-- 0.08 -->
      <g transform="translate(21.2 90.896509) scale(0.1 -0.1)">
       <use xlink:href="#DejaVuSans-13"/>
       <use xlink:href="#DejaVuSans-11" transform="translate(63.625 0)"/>
       <use xlink:href="#DejaVuSans-13" transform="translate(95.40625 0)"/>
       <use xlink:href="#DejaVuSans-1b" transform="translate(159.03125 0)"/>
      </g>
     </g>
    </g>
    <g id="text_13">
     <!-- Loss -->
     <g transform="translate(14.797656 195.386016) rotate(-90) scale(0.1 -0.1)">
      <defs>
       <path id="DejaVuSans-2f" d="M 628 4666 
L 1259 4666 
L 1259 531 
L 3531 531 
L 3531 0 
L 628 0 
L 628 4666 
z
" transform="scale(0.015625)"/>
       <path id="DejaVuSans-56" d="M 2834 3397 
L 2834 2853 
Q 2591 2978 2328 3040 
Q 2066 3103 1784 3103 
Q 1356 3103 1142 2972 
Q 928 2841 928 2578 
Q 928 2378 1081 2264 
Q 1234 2150 1697 2047 
L 1894 2003 
Q 2506 1872 2764 1633 
Q 3022 1394 3022 966 
Q 3022 478 2636 193 
Q 2250 -91 1575 -91 
Q 1294 -91 989 -36 
Q 684 19 347 128 
L 347 722 
Q 666 556 975 473 
Q 1284 391 1588 391 
Q 1994 391 2212 530 
Q 2431 669 2431 922 
Q 2431 1156 2273 1281 
Q 2116 1406 1581 1522 
L 1381 1569 
Q 847 1681 609 1914 
Q 372 2147 372 2553 
Q 372 3047 722 3315 
Q 1072 3584 1716 3584 
Q 2034 3584 2315 3537 
Q 2597 3491 2834 3397 
z
" transform="scale(0.015625)"/>
      </defs>
      <use xlink:href="#DejaVuSans-2f"/>
      <use xlink:href="#DejaVuSans-52" transform="translate(53.96875 0)"/>
      <use xlink:href="#DejaVuSans-56" transform="translate(115.15625 0)"/>
      <use xlink:href="#DejaVuSans-56" transform="translate(167.25 0)"/>
     </g>
    </g>
   </g>
   <g id="line2d_23">
    <path d="M 70.669261 124.4305 
L 74.750804 168.311464 
L 78.832347 175.581668 
L 82.913889 215.523531 
L 86.995432 249.595466 
L 91.076975 264.192353 
L 95.158518 274.982486 
L 99.24006 280.951071 
L 103.321603 284.032654 
L 107.403146 285.476118 
L 111.484688 287.338527 
L 115.566231 289.504769 
L 119.647774 289.008603 
L 123.729316 289.552077 
L 127.810859 290.802195 
L 131.892402 279.993212 
L 135.973945 286.424843 
L 140.055487 290.111611 
L 144.13703 291.283043 
L 148.218573 292.343228 
L 152.300115 290.965423 
L 156.381658 292.010295 
L 160.463201 286.084557 
L 164.544743 289.318271 
L 168.626286 291.464851 
L 172.707829 294.995257 
L 176.789372 296.043446 
L 180.870914 295.237156 
L 184.952457 283.235338 
L 189.034 291.710065 
L 193.115542 294.693233 
L 197.197085 296.089319 
L 201.278628 296.932303 
L 205.36017 291.676968 
L 209.441713 293.722022 
L 213.523256 295.647811 
L 217.604799 295.173296 
L 221.686341 297.322672 
L 225.767884 298.81218 
L 229.849427 299.423727 
L 233.930969 299.785019 
L 238.012512 299.985163 
L 242.094055 300.378088 
L 246.175597 300.754702 
L 250.25714 300.697124 
L 254.338683 300.998705 
L 258.420226 301.573942 
L 262.501768 301.642789 
L 266.583311 301.712255 
L 270.664854 301.662602 
L 274.746396 302.12976 
L 278.827939 301.952664 
L 282.909482 302.174302 
L 286.991024 302.505372 
L 291.072567 302.686759 
L 295.15411 302.532191 
L 299.235653 302.497415 
L 303.317195 302.814427 
L 307.398738 302.804733 
L 311.480281 302.677104 
L 315.561823 302.809219 
L 319.643366 302.956612 
L 323.724909 302.864382 
L 327.806451 302.968323 
L 331.887994 302.949916 
L 335.969537 303.195234 
L 340.05108 302.825704 
L 344.132622 302.959359 
L 348.214165 303.205314 
L 352.295708 303.508032 
L 356.37725 303.510598 
L 360.458793 303.388221 
L 364.540336 303.399398 
L 368.621878 303.453526 
L 372.703421 303.487765 
L 376.784964 303.521466 
L 380.866507 303.531431 
L 384.948049 303.784157 
L 389.029592 303.824645 
L 393.111135 303.743717 
L 397.192677 303.653194 
L 401.27422 304.024901 
L 405.355763 303.699998 
L 409.437305 303.794386 
L 413.518848 304.056108 
L 417.600391 304.059993 
L 421.681934 304.069555 
L 425.763476 304.190449 
L 429.845019 304.161794 
L 433.926562 304.356577 
L 438.008104 304.205283 
L 442.089647 304.213828 
L 446.17119 304.558889 
L 450.252732 304.478112 
L 454.334275 304.433849 
L 458.415818 304.563246 
L 462.497361 304.443324 
L 466.578903 304.174221 
L 470.660446 304.576979 
L 474.741989 304.422963 
" clip-path="url(#p6523c6e32f)" style="fill: none; stroke: #4682b4; stroke-width: 2; stroke-linecap: square"/>
   </g>
   <g id="line2d_24">
    <path d="M 70.669261 164.779373 
L 74.750804 166.318287 
L 78.832347 177.790151 
L 82.913889 202.64909 
L 86.995432 219.858264 
L 91.076975 227.638255 
L 95.158518 229.309606 
L 99.24006 229.036722 
L 103.321603 228.004105 
L 107.403146 235.70098 
L 111.484688 221.23736 
L 115.566231 238.569165 
L 119.647774 234.744316 
L 123.729316 237.561467 
L 127.810859 235.084105 
L 131.892402 234.185115 
L 135.973945 237.159293 
L 140.055487 239.396291 
L 144.13703 237.27823 
L 148.218573 237.976571 
L 152.300115 240.74525 
L 156.381658 235.457229 
L 160.463201 232.063186 
L 164.544743 234.074699 
L 168.626286 236.284298 
L 172.707829 238.069537 
L 176.789372 239.002979 
L 180.870914 221.223667 
L 184.952457 237.866372 
L 189.034 233.297467 
L 193.115542 242.129112 
L 197.197085 234.876393 
L 201.278628 233.569206 
L 205.36017 232.355747 
L 209.441713 234.407715 
L 213.523256 226.700738 
L 217.604799 238.820852 
L 221.686341 239.771404 
L 225.767884 242.160741 
L 229.849427 243.978932 
L 233.930969 238.3925 
L 238.012512 241.680342 
L 242.094055 240.112649 
L 246.175597 240.644185 
L 250.25714 238.465069 
L 254.338683 239.129667 
L 258.420226 236.22623 
L 262.501768 239.306628 
L 266.583311 235.557205 
L 270.664854 240.351879 
L 274.746396 241.236206 
L 278.827939 239.118699 
L 282.909482 240.319862 
L 286.991024 237.181824 
L 291.072567 238.727322 
L 295.15411 240.204589 
L 299.235653 238.426883 
L 303.317195 240.785008 
L 307.398738 241.727103 
L 311.480281 240.439062 
L 315.561823 239.767917 
L 319.643366 239.71244 
L 323.724909 241.629697 
L 327.806451 237.850526 
L 331.887994 241.074408 
L 335.969537 239.272382 
L 340.05108 239.310789 
L 344.132622 237.850585 
L 348.214165 239.761358 
L 352.295708 239.558052 
L 356.37725 239.047227 
L 360.458793 238.300473 
L 364.540336 239.554337 
L 368.621878 239.940651 
L 372.703421 239.637716 
L 376.784964 240.173396 
L 380.866507 240.940061 
L 384.948049 240.65523 
L 389.029592 240.352564 
L 393.111135 240.510129 
L 397.192677 240.588367 
L 401.27422 241.016515 
L 405.355763 240.110398 
L 409.437305 240.638907 
L 413.518848 240.958697 
L 417.600391 241.136599 
L 421.681934 240.780014 
L 425.763476 240.473062 
L 429.845019 240.10729 
L 433.926562 240.553511 
L 438.008104 239.979233 
L 442.089647 240.056921 
L 446.17119 240.333128 
L 450.252732 239.996083 
L 454.334275 239.83917 
L 458.415818 240.881622 
L 462.497361 239.698752 
L 466.578903 239.27387 
L 470.660446 239.359983 
L 474.741989 239.2555 
" clip-path="url(#p6523c6e32f)" style="fill: none; stroke: #ff4500; stroke-width: 2; stroke-linecap: square"/>
   </g>
   <g id="line2d_25">
    <path d="M 229.849427 317.877656 
L 229.849427 50.96 
" clip-path="url(#p6523c6e32f)" style="fill: none; stroke-dasharray: 1.5,2.475; stroke-dashoffset: 0; stroke: #ff4500; stroke-width: 1.5"/>
   </g>
   <g id="patch_3">
    <path d="M 50.465625 317.877656 
L 50.465625 50.96 
" style="fill: none; stroke: #000000; stroke-width: 0.8; stroke-linejoin: miter; stroke-linecap: square"/>
   </g>
   <g id="patch_4">
    <path d="M 494.945625 317.877656 
L 494.945625 50.96 
" style="fill: none; stroke: #000000; stroke-width: 0.8; stroke-linejoin: miter; stroke-linecap: square"/>
   </g>
   <g id="patch_5">
    <path d="M 50.465625 317.877656 
L 494.945625 317.877656 
" style="fill: none; stroke: #000000; stroke-width: 0.8; stroke-linejoin: miter; stroke-linecap: square"/>
   </g>
   <g id="patch_6">
    <path d="M 50.465625 50.96 
L 494.945625 50.96 
" style="fill: none; stroke: #000000; stroke-width: 0.8; stroke-linejoin: miter; stroke-linecap: square"/>
   </g>
   <g id="text_14">
    <!-- Per-epoch Loss ± Batch Std -->
    <g transform="translate(190.054688 44.96) scale(0.12 -0.12)">
     <defs>
      <path id="DejaVuSans-33" d="M 1259 4147 
L 1259 2394 
L 2053 2394 
Q 2494 2394 2734 2622 
Q 2975 2850 2975 3272 
Q 2975 3691 2734 3919 
Q 2494 4147 2053 4147 
L 1259 4147 
z
M 628 4666 
L 2053 4666 
Q 2838 4666 3239 4311 
Q 3641 3956 3641 3272 
Q 3641 2581 3239 2228 
Q 2838 1875 2053 1875 
L 1259 1875 
L 1259 0 
L 628 0 
L 628 4666 
z
" transform="scale(0.015625)"/>
      <path id="DejaVuSans-48" d="M 3597 1894 
L 3597 1613 
L 953 1613 
Q 991 1019 1311 708 
Q 1631 397 2203 397 
Q 2534 397 2845 478 
Q 3156 559 3463 722 
L 3463 178 
Q 3153 47 2828 -22 
Q 2503 -91 2169 -91 
Q 1331 -91 842 396 
Q 353 884 353 1716 
Q 353 2575 817 3079 
Q 1281 3584 2069 3584 
Q 2775 3584 3186 3129 
Q 3597 2675 3597 1894 
z
M 3022 2063 
Q 3016 2534 2758 2815 
Q 2500 3097 2075 3097 
Q 1594 3097 1305 2825 
Q 1016 2553 972 2059 
L 3022 2063 
z
" transform="scale(0.015625)"/>
      <path id="DejaVuSans-55" d="M 2631 2963 
Q 2534 3019 2420 3045 
Q 2306 3072 2169 3072 
Q 1681 3072 1420 2755 
Q 1159 2438 1159 1844 
L 1159 0 
L 581 0 
L 581 3500 
L 1159 3500 
L 1159 2956 
Q 1341 3275 1631 3429 
Q 1922 3584 2338 3584 
Q 2397 3584 2469 3576 
Q 2541 3569 2628 3553 
L 2631 2963 
z
" transform="scale(0.015625)"/>
      <path id="DejaVuSans-10" d="M 313 2009 
L 1997 2009 
L 1997 1497 
L 313 1497 
L 313 2009 
z
" transform="scale(0.015625)"/>
      <path id="DejaVuSans-3" transform="scale(0.015625)"/>
      <path id="DejaVuSans-73" d="M 2944 4013 
L 2944 2803 
L 4684 2803 
L 4684 2272 
L 2944 2272 
L 2944 1063 
L 2419 1063 
L 2419 2272 
L 678 2272 
L 678 2803 
L 2419 2803 
L 2419 4013 
L 2944 4013 
z
M 678 531 
L 4684 531 
L 4684 0 
L 678 0 
L 678 531 
z
" transform="scale(0.015625)"/>
      <path id="DejaVuSans-25" d="M 1259 2228 
L 1259 519 
L 2272 519 
Q 2781 519 3026 730 
Q 3272 941 3272 1375 
Q 3272 1813 3026 2020 
Q 2781 2228 2272 2228 
L 1259 2228 
z
M 1259 4147 
L 1259 2741 
L 2194 2741 
Q 2656 2741 2882 2914 
Q 3109 3088 3109 3444 
Q 3109 3797 2882 3972 
Q 2656 4147 2194 4147 
L 1259 4147 
z
M 628 4666 
L 2241 4666 
Q 2963 4666 3353 4366 
Q 3744 4066 3744 3513 
Q 3744 3084 3544 2831 
Q 3344 2578 2956 2516 
Q 3422 2416 3680 2098 
Q 3938 1781 3938 1306 
Q 3938 681 3513 340 
Q 3088 0 2303 0 
L 628 0 
L 628 4666 
z
" transform="scale(0.015625)"/>
      <path id="DejaVuSans-44" d="M 2194 1759 
Q 1497 1759 1228 1600 
Q 959 1441 959 1056 
Q 959 750 1161 570 
Q 1363 391 1709 391 
Q 2188 391 2477 730 
Q 2766 1069 2766 1631 
L 2766 1759 
L 2194 1759 
z
M 3341 1997 
L 3341 0 
L 2766 0 
L 2766 531 
Q 2569 213 2275 61 
Q 1981 -91 1556 -91 
Q 1019 -91 701 211 
Q 384 513 384 1019 
Q 384 1609 779 1909 
Q 1175 2209 1959 2209 
L 2766 2209 
L 2766 2266 
Q 2766 2663 2505 2880 
Q 2244 3097 1772 3097 
Q 1472 3097 1187 3025 
Q 903 2953 641 2809 
L 641 3341 
Q 956 3463 1253 3523 
Q 1550 3584 1831 3584 
Q 2591 3584 2966 3190 
Q 3341 2797 3341 1997 
z
" transform="scale(0.015625)"/>
      <path id="DejaVuSans-57" d="M 1172 4494 
L 1172 3500 
L 2356 3500 
L 2356 3053 
L 1172 3053 
L 1172 1153 
Q 1172 725 1289 603 
Q 1406 481 1766 481 
L 2356 481 
L 2356 0 
L 1766 0 
Q 1100 0 847 248 
Q 594 497 594 1153 
L 594 3053 
L 172 3053 
L 172 3500 
L 594 3500 
L 594 4494 
L 1172 4494 
z
" transform="scale(0.015625)"/>
      <path id="DejaVuSans-36" d="M 3425 4513 
L 3425 3897 
Q 3066 4069 2747 4153 
Q 2428 4238 2131 4238 
Q 1616 4238 1336 4038 
Q 1056 3838 1056 3469 
Q 1056 3159 1242 3001 
Q 1428 2844 1947 2747 
L 2328 2669 
Q 3034 2534 3370 2195 
Q 3706 1856 3706 1288 
Q 3706 609 3251 259 
Q 2797 -91 1919 -91 
Q 1588 -91 1214 -16 
Q 841 59 441 206 
L 441 856 
Q 825 641 1194 531 
Q 1563 422 1919 422 
Q 2459 422 2753 634 
Q 3047 847 3047 1241 
Q 3047 1584 2836 1778 
Q 2625 1972 2144 2069 
L 1759 2144 
Q 1053 2284 737 2584 
Q 422 2884 422 3419 
Q 422 4038 858 4394 
Q 1294 4750 2059 4750 
Q 2388 4750 2728 4690 
Q 3069 4631 3425 4513 
z
" transform="scale(0.015625)"/>
      <path id="DejaVuSans-47" d="M 2906 2969 
L 2906 4863 
L 3481 4863 
L 3481 0 
L 2906 0 
L 2906 525 
Q 2725 213 2448 61 
Q 2172 -91 1784 -91 
Q 1150 -91 751 415 
Q 353 922 353 1747 
Q 353 2572 751 3078 
Q 1150 3584 1784 3584 
Q 2172 3584 2448 3432 
Q 2725 3281 2906 2969 
z
M 947 1747 
Q 947 1113 1208 752 
Q 1469 391 1925 391 
Q 2381 391 2643 752 
Q 2906 1113 2906 1747 
Q 2906 2381 2643 2742 
Q 2381 3103 1925 3103 
Q 1469 3103 1208 2742 
Q 947 2381 947 1747 
z
" transform="scale(0.015625)"/>
     </defs>
     <use xlink:href="#DejaVuSans-33"/>
     <use xlink:href="#DejaVuSans-48" transform="translate(56.734375 0)"/>
     <use xlink:href="#DejaVuSans-55" transform="translate(118.265625 0)"/>
     <use xlink:href="#DejaVuSans-10" transform="translate(152.984375 0)"/>
     <use xlink:href="#DejaVuSans-48" transform="translate(189.0625 0)"/>
     <use xlink:href="#DejaVuSans-53" transform="translate(250.59375 0)"/>
     <use xlink:href="#DejaVuSans-52" transform="translate(314.078125 0)"/>
     <use xlink:href="#DejaVuSans-46" transform="translate(375.265625 0)"/>
     <use xlink:href="#DejaVuSans-4b" transform="translate(430.25 0)"/>
     <use xlink:href="#DejaVuSans-3" transform="translate(493.625 0)"/>
     <use xlink:href="#DejaVuSans-2f" transform="translate(525.40625 0)"/>
     <use xlink:href="#DejaVuSans-52" transform="translate(579.375 0)"/>
     <use xlink:href="#DejaVuSans-56" transform="translate(640.5625 0)"/>
     <use xlink:href="#DejaVuSans-56" transform="translate(692.65625 0)"/>
     <use xlink:href="#DejaVuSans-3" transform="translate(744.75 0)"/>
     <use xlink:href="#DejaVuSans-73" transform="translate(776.53125 0)"/>
     <use xlink:href="#DejaVuSans-3" transform="translate(860.328125 0)"/>
     <use xlink:href="#DejaVuSans-25" transform="translate(892.109375 0)"/>
     <use xlink:href="#DejaVuSans-44" transform="translate(960.71875 0)"/>
     <use xlink:href="#DejaVuSans-57" transform="translate(1022 0)"/>
     <use xlink:href="#DejaVuSans-46" transform="translate(1061.203125 0)"/>
     <use xlink:href="#DejaVuSans-4b" transform="translate(1116.1875 0)"/>
     <use xlink:href="#DejaVuSans-3" transform="translate(1179.5625 0)"/>
     <use xlink:href="#DejaVuSans-36" transform="translate(1211.34375 0)"/>
     <use xlink:href="#DejaVuSans-57" transform="translate(1274.828125 0)"/>
     <use xlink:href="#DejaVuSans-47" transform="translate(1314.03125 0)"/>
    </g>
   </g>
   <g id="legend_1">
    <g id="patch_7">
     <path d="M 363.892969 98.662109 
L 488.645625 98.662109 
Q 490.445625 98.662109 490.445625 96.862109 
L 490.445625 57.26 
Q 490.445625 55.46 488.645625 55.46 
L 363.892969 55.46 
Q 362.092969 55.46 362.092969 57.26 
L 362.092969 96.862109 
Q 362.092969 98.662109 363.892969 98.662109 
z
" style="fill: #ffffff; opacity: 0.8; stroke: #cccccc; stroke-linejoin: miter"/>
    </g>
    <g id="line2d_26">
     <path d="M 365.692969 62.748594 
L 374.692969 62.748594 
L 383.692969 62.748594 
" style="fill: none; stroke: #4682b4; stroke-width: 2; stroke-linecap: square"/>
    </g>
    <g id="text_15">
     <!-- Train -->
     <g transform="translate(390.892969 65.898594) scale(0.09 -0.09)">
      <defs>
       <path id="DejaVuSans-37" d="M -19 4666 
L 3928 4666 
L 3928 4134 
L 2272 4134 
L 2272 0 
L 1638 0 
L 1638 4134 
L -19 4134 
L -19 4666 
z
" transform="scale(0.015625)"/>
       <path id="DejaVuSans-4c" d="M 603 3500 
L 1178 3500 
L 1178 0 
L 603 0 
L 603 3500 
z
M 603 4863 
L 1178 4863 
L 1178 4134 
L 603 4134 
L 603 4863 
z
" transform="scale(0.015625)"/>
       <path id="DejaVuSans-51" d="M 3513 2113 
L 3513 0 
L 2938 0 
L 2938 2094 
Q 2938 2591 2744 2837 
Q 2550 3084 2163 3084 
Q 1697 3084 1428 2787 
Q 1159 2491 1159 1978 
L 1159 0 
L 581 0 
L 581 3500 
L 1159 3500 
L 1159 2956 
Q 1366 3272 1645 3428 
Q 1925 3584 2291 3584 
Q 2894 3584 3203 3211 
Q 3513 2838 3513 2113 
z
" transform="scale(0.015625)"/>
      </defs>
      <use xlink:href="#DejaVuSans-37"/>
      <use xlink:href="#DejaVuSans-55" transform="translate(46.375 0)"/>
      <use xlink:href="#DejaVuSans-44" transform="translate(87.484375 0)"/>
      <use xlink:href="#DejaVuSans-4c" transform="translate(148.765625 0)"/>
      <use xlink:href="#DejaVuSans-51" transform="translate(176.546875 0)"/>
     </g>
    </g>
    <g id="line2d_27">
     <path d="M 365.692969 76.249297 
L 374.692969 76.249297 
L 383.692969 76.249297 
" style="fill: none; stroke: #ff4500; stroke-width: 2; stroke-linecap: square"/>
    </g>
    <g id="text_16">
     <!-- Valid -->
     <g transform="translate(390.892969 79.399297) scale(0.09 -0.09)">
      <defs>
       <path id="DejaVuSans-39" d="M 1831 0 
L 50 4666 
L 709 4666 
L 2188 738 
L 3669 4666 
L 4325 4666 
L 2547 0 
L 1831 0 
z
" transform="scale(0.015625)"/>
       <path id="DejaVuSans-4f" d="M 603 4863 
L 1178 4863 
L 1178 0 
L 603 0 
L 603 4863 
z
" transform="scale(0.015625)"/>
      </defs>
      <use xlink:href="#DejaVuSans-39"/>
      <use xlink:href="#DejaVuSans-44" transform="translate(60.640625 0)"/>
      <use xlink:href="#DejaVuSans-4f" transform="translate(121.921875 0)"/>
      <use xlink:href="#DejaVuSans-4c" transform="translate(149.703125 0)"/>
      <use xlink:href="#DejaVuSans-47" transform="translate(177.484375 0)"/>
     </g>
    </g>
    <g id="line2d_28">
     <path d="M 365.692969 89.75 
L 374.692969 89.75 
L 383.692969 89.75 
" style="fill: none; stroke-dasharray: 1.5,2.475; stroke-dashoffset: 0; stroke: #ff4500; stroke-width: 1.5"/>
    </g>
    <g id="text_17">
     <!-- Best valid epoch (39) -->
     <g transform="translate(390.892969 92.9) scale(0.09 -0.09)">
      <defs>
       <path id="DejaVuSans-59" d="M 191 3500 
L 800 3500 
L 1894 563 
L 2988 3500 
L 3597 3500 
L 2284 0 
L 1503 0 
L 191 3500 
z
" transform="scale(0.015625)"/>
       <path id="DejaVuSans-b" d="M 1984 4856 
Q 1566 4138 1362 3434 
Q 1159 2731 1159 2009 
Q 1159 1288 1364 580 
Q 1569 -128 1984 -844 
L 1484 -844 
Q 1016 -109 783 600 
Q 550 1309 550 2009 
Q 550 2706 781 3412 
Q 1013 4119 1484 4856 
L 1984 4856 
z
" transform="scale(0.015625)"/>
       <path id="DejaVuSans-16" d="M 2597 2516 
Q 3050 2419 3304 2112 
Q 3559 1806 3559 1356 
Q 3559 666 3084 287 
Q 2609 -91 1734 -91 
Q 1441 -91 1130 -33 
Q 819 25 488 141 
L 488 750 
Q 750 597 1062 519 
Q 1375 441 1716 441 
Q 2309 441 2620 675 
Q 2931 909 2931 1356 
Q 2931 1769 2642 2001 
Q 2353 2234 1838 2234 
L 1294 2234 
L 1294 2753 
L 1863 2753 
Q 2328 2753 2575 2939 
Q 2822 3125 2822 3475 
Q 2822 3834 2567 4026 
Q 2313 4219 1838 4219 
Q 1578 4219 1281 4162 
Q 984 4106 628 3988 
L 628 4550 
Q 988 4650 1302 4700 
Q 1616 4750 1894 4750 
Q 2613 4750 3031 4423 
Q 3450 4097 3450 3541 
Q 3450 3153 3228 2886 
Q 3006 2619 2597 2516 
z
" transform="scale(0.015625)"/>
       <path id="DejaVuSans-1c" d="M 703 97 
L 703 672 
Q 941 559 1184 500 
Q 1428 441 1663 441 
Q 2288 441 2617 861 
Q 2947 1281 2994 2138 
Q 2813 1869 2534 1725 
Q 2256 1581 1919 1581 
Q 1219 1581 811 2004 
Q 403 2428 403 3163 
Q 403 3881 828 4315 
Q 1253 4750 1959 4750 
Q 2769 4750 3195 4129 
Q 3622 3509 3622 2328 
Q 3622 1225 3098 567 
Q 2575 -91 1691 -91 
Q 1453 -91 1209 -44 
Q 966 3 703 97 
z
M 1959 2075 
Q 2384 2075 2632 2365 
Q 2881 2656 2881 3163 
Q 2881 3666 2632 3958 
Q 2384 4250 1959 4250 
Q 1534 4250 1286 3958 
Q 1038 3666 1038 3163 
Q 1038 2656 1286 2365 
Q 1534 2075 1959 2075 
z
" transform="scale(0.015625)"/>
       <path id="DejaVuSans-c" d="M 513 4856 
L 1013 4856 
Q 1481 4119 1714 3412 
Q 1947 2706 1947 2009 
Q 1947 1309 1714 600 
Q 1481 -109 1013 -844 
L 513 -844 
Q 928 -128 1133 580 
Q 1338 1288 1338 2009 
Q 1338 2731 1133 3434 
Q 928 4138 513 4856 
z
" transform="scale(0.015625)"/>
      </defs>
      <use xlink:href="#DejaVuSans-25"/>
      <use xlink:href="#DejaVuSans-48" transform="translate(68.609375 0)"/>
      <use xlink:href="#DejaVuSans-56" transform="translate(130.140625 0)"/>
      <use xlink:href="#DejaVuSans-57" transform="translate(182.234375 0)"/>
      <use xlink:href="#DejaVuSans-3" transform="translate(221.4375 0)"/>
      <use xlink:href="#DejaVuSans-59" transform="translate(253.21875 0)"/>
      <use xlink:href="#DejaVuSans-44" transform="translate(312.40625 0)"/>
      <use xlink:href="#DejaVuSans-4f" transform="translate(373.6875 0)"/>
      <use xlink:href="#DejaVuSans-4c" transform="translate(401.46875 0)"/>
      <use xlink:href="#DejaVuSans-47" transform="translate(429.25 0)"/>
      <use xlink:href="#DejaVuSans-3" transform="translate(492.734375 0)"/>
      <use xlink:href="#DejaVuSans-48" transform="translate(524.515625 0)"/>
      <use xlink:href="#DejaVuSans-53" transform="translate(586.046875 0)"/>
      <use xlink:href="#DejaVuSans-52" transform="translate(649.53125 0)"/>
      <use xlink:href="#DejaVuSans-46" transform="translate(710.71875 0)"/>
      <use xlink:href="#DejaVuSans-4b" transform="translate(765.703125 0)"/>
      <use xlink:href="#DejaVuSans-3" transform="translate(829.078125 0)"/>
      <use xlink:href="#DejaVuSans-b" transform="translate(860.859375 0)"/>
      <use xlink:href="#DejaVuSans-16" transform="translate(899.875 0)"/>
      <use xlink:href="#DejaVuSans-1c" transform="translate(963.5 0)"/>
      <use xlink:href="#DejaVuSans-c" transform="translate(1027.125 0)"/>
     </g>
    </g>
   </g>
  </g>
  <g id="axes_2">
   <g id="patch_8">
    <path d="M 549.065625 317.877656 
L 993.545625 317.877656 
L 993.545625 50.96 
L 549.065625 50.96 
z
" style="fill: #ffffff"/>
   </g>
   <g id="matplotlib.axis_3">
    <g id="xtick_7">
     <g id="line2d_29">
      <path d="M 569.269261 317.877656 
L 569.269261 50.96 
" clip-path="url(#p2c3a7be9d1)" style="fill: none; stroke: #b0b0b0; stroke-opacity: 0.3; stroke-width: 0.8; stroke-linecap: square"/>
     </g>
     <g id="line2d_30">
      <g>
       <use xlink:href="#m9c6fec85c9" x="569.269261" y="317.877656" style="stroke: #000000; stroke-width: 0.8"/>
      </g>
     </g>
     <g id="text_18">
      <!-- 0 -->
      <g transform="translate(566.088011 332.475312) scale(0.1 -0.1)">
       <use xlink:href="#DejaVuSans-13"/>
      </g>
     </g>
    </g>
    <g id="xtick_8">
     <g id="line2d_31">
      <path d="M 650.900115 317.877656 
L 650.900115 50.96 
" clip-path="url(#p2c3a7be9d1)" style="fill: none; stroke: #b0b0b0; stroke-opacity: 0.3; stroke-width: 0.8; stroke-linecap: square"/>
     </g>
     <g id="line2d_32">
      <g>
       <use xlink:href="#m9c6fec85c9" x="650.900115" y="317.877656" style="stroke: #000000; stroke-width: 0.8"/>
      </g>
     </g>
     <g id="text_19">
      <!-- 20 -->
      <g transform="translate(644.537615 332.475312) scale(0.1 -0.1)">
       <use xlink:href="#DejaVuSans-15"/>
       <use xlink:href="#DejaVuSans-13" transform="translate(63.625 0)"/>
      </g>
     </g>
    </g>
    <g id="xtick_9">
     <g id="line2d_33">
      <path d="M 732.530969 317.877656 
L 732.530969 50.96 
" clip-path="url(#p2c3a7be9d1)" style="fill: none; stroke: #b0b0b0; stroke-opacity: 0.3; stroke-width: 0.8; stroke-linecap: square"/>
     </g>
     <g id="line2d_34">
      <g>
       <use xlink:href="#m9c6fec85c9" x="732.530969" y="317.877656" style="stroke: #000000; stroke-width: 0.8"/>
      </g>
     </g>
     <g id="text_20">
      <!-- 40 -->
      <g transform="translate(726.168469 332.475312) scale(0.1 -0.1)">
       <use xlink:href="#DejaVuSans-17"/>
       <use xlink:href="#DejaVuSans-13" transform="translate(63.625 0)"/>
      </g>
     </g>
    </g>
    <g id="xtick_10">
     <g id="line2d_35">
      <path d="M 814.161823 317.877656 
L 814.161823 50.96 
" clip-path="url(#p2c3a7be9d1)" style="fill: none; stroke: #b0b0b0; stroke-opacity: 0.3; stroke-width: 0.8; stroke-linecap: square"/>
     </g>
     <g id="line2d_36">
      <g>
       <use xlink:href="#m9c6fec85c9" x="814.161823" y="317.877656" style="stroke: #000000; stroke-width: 0.8"/>
      </g>
     </g>
     <g id="text_21">
      <!-- 60 -->
      <g transform="translate(807.799323 332.475312) scale(0.1 -0.1)">
       <use xlink:href="#DejaVuSans-19"/>
       <use xlink:href="#DejaVuSans-13" transform="translate(63.625 0)"/>
      </g>
     </g>
    </g>
    <g id="xtick_11">
     <g id="line2d_37">
      <path d="M 895.792677 317.877656 
L 895.792677 50.96 
" clip-path="url(#p2c3a7be9d1)" style="fill: none; stroke: #b0b0b0; stroke-opacity: 0.3; stroke-width: 0.8; stroke-linecap: square"/>
     </g>
     <g id="line2d_38">
      <g>
       <use xlink:href="#m9c6fec85c9" x="895.792677" y="317.877656" style="stroke: #000000; stroke-width: 0.8"/>
      </g>
     </g>
     <g id="text_22">
      <!-- 80 -->
      <g transform="translate(889.430177 332.475312) scale(0.1 -0.1)">
       <use xlink:href="#DejaVuSans-1b"/>
       <use xlink:href="#DejaVuSans-13" transform="translate(63.625 0)"/>
      </g>
     </g>
    </g>
    <g id="xtick_12">
     <g id="line2d_39">
      <path d="M 977.423531 317.877656 
L 977.423531 50.96 
" clip-path="url(#p2c3a7be9d1)" style="fill: none; stroke: #b0b0b0; stroke-opacity: 0.3; stroke-width: 0.8; stroke-linecap: square"/>
     </g>
     <g id="line2d_40">
      <g>
       <use xlink:href="#m9c6fec85c9" x="977.423531" y="317.877656" style="stroke: #000000; stroke-width: 0.8"/>
      </g>
     </g>
     <g id="text_23">
      <!-- 100 -->
      <g transform="translate(967.879781 332.475312) scale(0.1 -0.1)">
       <use xlink:href="#DejaVuSans-14"/>
       <use xlink:href="#DejaVuSans-13" transform="translate(63.625 0)"/>
       <use xlink:href="#DejaVuSans-13" transform="translate(127.25 0)"/>
      </g>
     </g>
    </g>
    <g id="text_24">
     <!-- Epoch -->
     <g transform="translate(755.994688 346.476094) scale(0.1 -0.1)">
      <use xlink:href="#DejaVuSans-28"/>
      <use xlink:href="#DejaVuSans-53" transform="translate(63.1875 0)"/>
      <use xlink:href="#DejaVuSans-52" transform="translate(126.671875 0)"/>
      <use xlink:href="#DejaVuSans-46" transform="translate(187.859375 0)"/>
      <use xlink:href="#DejaVuSans-4b" transform="translate(242.84375 0)"/>
     </g>
    </g>
   </g>
   <g id="matplotlib.axis_4">
    <g id="ytick_6">
     <g id="line2d_41">
      <path d="M 549.065625 317.691028 
L 993.545625 317.691028 
" clip-path="url(#p2c3a7be9d1)" style="fill: none; stroke: #b0b0b0; stroke-opacity: 0.3; stroke-width: 0.8; stroke-linecap: square"/>
     </g>
     <g id="line2d_42">
      <g>
       <use xlink:href="#m5429aa5980" x="549.065625" y="317.691028" style="stroke: #000000; stroke-width: 0.8"/>
      </g>
     </g>
     <g id="text_25">
      <!-- 0.00 -->
      <g transform="translate(519.8 321.489856) scale(0.1 -0.1)">
       <use xlink:href="#DejaVuSans-13"/>
       <use xlink:href="#DejaVuSans-11" transform="translate(63.625 0)"/>
       <use xlink:href="#DejaVuSans-13" transform="translate(95.40625 0)"/>
       <use xlink:href="#DejaVuSans-13" transform="translate(159.03125 0)"/>
      </g>
     </g>
    </g>
    <g id="ytick_7">
     <g id="line2d_43">
      <path d="M 549.065625 279.58044 
L 993.545625 279.58044 
" clip-path="url(#p2c3a7be9d1)" style="fill: none; stroke: #b0b0b0; stroke-opacity: 0.3; stroke-width: 0.8; stroke-linecap: square"/>
     </g>
     <g id="line2d_44">
      <g>
       <use xlink:href="#m5429aa5980" x="549.065625" y="279.58044" style="stroke: #000000; stroke-width: 0.8"/>
      </g>
     </g>
     <g id="text_26">
      <!-- 0.01 -->
      <g transform="translate(519.8 283.379269) scale(0.1 -0.1)">
       <use xlink:href="#DejaVuSans-13"/>
       <use xlink:href="#DejaVuSans-11" transform="translate(63.625 0)"/>
       <use xlink:href="#DejaVuSans-13" transform="translate(95.40625 0)"/>
       <use xlink:href="#DejaVuSans-14" transform="translate(159.03125 0)"/>
      </g>
     </g>
    </g>
    <g id="ytick_8">
     <g id="line2d_45">
      <path d="M 549.065625 241.469853 
L 993.545625 241.469853 
" clip-path="url(#p2c3a7be9d1)" style="fill: none; stroke: #b0b0b0; stroke-opacity: 0.3; stroke-width: 0.8; stroke-linecap: square"/>
     </g>
     <g id="line2d_46">
      <g>
       <use xlink:href="#m5429aa5980" x="549.065625" y="241.469853" style="stroke: #000000; stroke-width: 0.8"/>
      </g>
     </g>
     <g id="text_27">
      <!-- 0.02 -->
      <g transform="translate(519.8 245.268681) scale(0.1 -0.1)">
       <use xlink:href="#DejaVuSans-13"/>
       <use xlink:href="#DejaVuSans-11" transform="translate(63.625 0)"/>
       <use xlink:href="#DejaVuSans-13" transform="translate(95.40625 0)"/>
       <use xlink:href="#DejaVuSans-15" transform="translate(159.03125 0)"/>
      </g>
     </g>
    </g>
    <g id="ytick_9">
     <g id="line2d_47">
      <path d="M 549.065625 203.359265 
L 993.545625 203.359265 
" clip-path="url(#p2c3a7be9d1)" style="fill: none; stroke: #b0b0b0; stroke-opacity: 0.3; stroke-width: 0.8; stroke-linecap: square"/>
     </g>
     <g id="line2d_48">
      <g>
       <use xlink:href="#m5429aa5980" x="549.065625" y="203.359265" style="stroke: #000000; stroke-width: 0.8"/>
      </g>
     </g>
     <g id="text_28">
      <!-- 0.03 -->
      <g transform="translate(519.8 207.158093) scale(0.1 -0.1)">
       <use xlink:href="#DejaVuSans-13"/>
       <use xlink:href="#DejaVuSans-11" transform="translate(63.625 0)"/>
       <use xlink:href="#DejaVuSans-13" transform="translate(95.40625 0)"/>
       <use xlink:href="#DejaVuSans-16" transform="translate(159.03125 0)"/>
      </g>
     </g>
    </g>
    <g id="ytick_10">
     <g id="line2d_49">
      <path d="M 549.065625 165.248678 
L 993.545625 165.248678 
" clip-path="url(#p2c3a7be9d1)" style="fill: none; stroke: #b0b0b0; stroke-opacity: 0.3; stroke-width: 0.8; stroke-linecap: square"/>
     </g>
     <g id="line2d_50">
      <g>
       <use xlink:href="#m5429aa5980" x="549.065625" y="165.248678" style="stroke: #000000; stroke-width: 0.8"/>
      </g>
     </g>
     <g id="text_29">
      <!-- 0.04 -->
      <g transform="translate(519.8 169.047506) scale(0.1 -0.1)">
       <use xlink:href="#DejaVuSans-13"/>
       <use xlink:href="#DejaVuSans-11" transform="translate(63.625 0)"/>
       <use xlink:href="#DejaVuSans-13" transform="translate(95.40625 0)"/>
       <use xlink:href="#DejaVuSans-17" transform="translate(159.03125 0)"/>
      </g>
     </g>
    </g>
    <g id="ytick_11">
     <g id="line2d_51">
      <path d="M 549.065625 127.13809 
L 993.545625 127.13809 
" clip-path="url(#p2c3a7be9d1)" style="fill: none; stroke: #b0b0b0; stroke-opacity: 0.3; stroke-width: 0.8; stroke-linecap: square"/>
     </g>
     <g id="line2d_52">
      <g>
       <use xlink:href="#m5429aa5980" x="549.065625" y="127.13809" style="stroke: #000000; stroke-width: 0.8"/>
      </g>
     </g>
     <g id="text_30">
      <!-- 0.05 -->
      <g transform="translate(519.8 130.936918) scale(0.1 -0.1)">
       <defs>
        <path id="DejaVuSans-18" d="M 691 4666 
L 3169 4666 
L 3169 4134 
L 1269 4134 
L 1269 2991 
Q 1406 3038 1543 3061 
Q 1681 3084 1819 3084 
Q 2600 3084 3056 2656 
Q 3513 2228 3513 1497 
Q 3513 744 3044 326 
Q 2575 -91 1722 -91 
Q 1428 -91 1123 -41 
Q 819 9 494 109 
L 494 744 
Q 775 591 1075 516 
Q 1375 441 1709 441 
Q 2250 441 2565 725 
Q 2881 1009 2881 1497 
Q 2881 1984 2565 2268 
Q 2250 2553 1709 2553 
Q 1456 2553 1204 2497 
Q 953 2441 691 2322 
L 691 4666 
z
" transform="scale(0.015625)"/>
       </defs>
       <use xlink:href="#DejaVuSans-13"/>
       <use xlink:href="#DejaVuSans-11" transform="translate(63.625 0)"/>
       <use xlink:href="#DejaVuSans-13" transform="translate(95.40625 0)"/>
       <use xlink:href="#DejaVuSans-18" transform="translate(159.03125 0)"/>
      </g>
     </g>
    </g>
    <g id="ytick_12">
     <g id="line2d_53">
      <path d="M 549.065625 89.027503 
L 993.545625 89.027503 
" clip-path="url(#p2c3a7be9d1)" style="fill: none; stroke: #b0b0b0; stroke-opacity: 0.3; stroke-width: 0.8; stroke-linecap: square"/>
     </g>
     <g id="line2d_54">
      <g>
       <use xlink:href="#m5429aa5980" x="549.065625" y="89.027503" style="stroke: #000000; stroke-width: 0.8"/>
      </g>
     </g>
     <g id="text_31">
      <!-- 0.06 -->
      <g transform="translate(519.8 92.826331) scale(0.1 -0.1)">
       <use xlink:href="#DejaVuSans-13"/>
       <use xlink:href="#DejaVuSans-11" transform="translate(63.625 0)"/>
       <use xlink:href="#DejaVuSans-13" transform="translate(95.40625 0)"/>
       <use xlink:href="#DejaVuSans-19" transform="translate(159.03125 0)"/>
      </g>
     </g>
    </g>
    <g id="text_32">
     <!-- Loss -->
     <g transform="translate(513.397656 195.386016) rotate(-90) scale(0.1 -0.1)">
      <use xlink:href="#DejaVuSans-2f"/>
      <use xlink:href="#DejaVuSans-52" transform="translate(53.96875 0)"/>
      <use xlink:href="#DejaVuSans-56" transform="translate(115.15625 0)"/>
      <use xlink:href="#DejaVuSans-56" transform="translate(167.25 0)"/>
     </g>
    </g>
   </g>
   <g id="line2d_55">
    <path d="M 569.269261 63.092621 
L 573.350804 122.199087 
L 577.432347 131.991855 
L 581.513889 185.792459 
L 585.595432 231.68643 
L 589.676975 251.348041 
L 593.758518 265.882056 
L 597.84006 273.921578 
L 601.921603 278.072387 
L 606.003146 280.016694 
L 610.084688 282.525309 
L 614.166231 285.443178 
L 618.247774 284.774856 
L 622.329316 285.5069 
L 626.410859 287.190775 
L 630.492402 272.631368 
L 634.573945 281.294601 
L 638.655487 286.260578 
L 642.73703 287.838465 
L 646.818573 289.266505 
L 650.900115 287.410639 
L 654.981658 288.818054 
L 659.063201 280.836244 
L 663.144743 285.19197 
L 667.226286 288.083355 
L 671.307829 292.838716 
L 675.389372 294.250598 
L 679.470914 293.164548 
L 683.552457 276.998424 
L 687.634 288.413651 
L 691.715542 292.431897 
L 695.797085 294.312387 
L 699.878628 295.447864 
L 703.96017 288.369071 
L 708.041713 291.123702 
L 712.123256 293.717688 
L 716.204799 293.07853 
L 720.286341 295.973681 
L 724.367884 297.980007 
L 728.449427 298.803745 
L 732.530969 299.290396 
L 736.612512 299.559983 
L 740.694055 300.089242 
L 744.775597 300.596532 
L 748.85714 300.518976 
L 752.938683 300.925198 
L 757.020226 301.700026 
L 761.101768 301.792761 
L 765.183311 301.88633 
L 769.264854 301.819448 
L 773.346396 302.448697 
L 777.427939 302.210154 
L 781.509482 302.508695 
L 785.591024 302.954637 
L 789.672567 303.19896 
L 793.75411 302.990761 
L 797.835653 302.943919 
L 801.917195 303.370926 
L 805.998738 303.357868 
L 810.080281 303.185956 
L 814.161823 303.363911 
L 818.243366 303.562444 
L 822.324909 303.438213 
L 826.406451 303.57822 
L 830.487994 303.553426 
L 834.569537 303.883863 
L 838.65108 303.386115 
L 842.732622 303.566145 
L 846.814165 303.897439 
L 850.895708 304.305193 
L 854.97725 304.308649 
L 859.058793 304.14381 
L 863.140336 304.158866 
L 867.221878 304.231775 
L 871.303421 304.277894 
L 875.384964 304.323288 
L 879.466507 304.33671 
L 883.548049 304.677126 
L 887.629592 304.731662 
L 891.711135 304.622654 
L 895.792677 304.500722 
L 899.87422 305.001401 
L 903.955763 304.563766 
L 908.037305 304.690904 
L 912.118848 305.043436 
L 916.200391 305.048669 
L 920.281934 305.061549 
L 924.363476 305.22439 
L 928.445019 305.185792 
L 932.526562 305.448159 
L 936.608104 305.244371 
L 940.689647 305.255881 
L 944.77119 305.720669 
L 948.852732 305.611864 
L 952.934275 305.552242 
L 957.015818 305.726538 
L 961.097361 305.565005 
L 965.178903 305.202531 
L 969.260446 305.745036 
L 973.341989 305.53758 
" clip-path="url(#p2c3a7be9d1)" style="fill: none; stroke: #4682b4; stroke-opacity: 0.4; stroke-width: 0.8; stroke-linecap: square"/>
   </g>
   <g id="line2d_56">
    <path d="M 569.269261 63.092621 
L 573.350804 92.645854 
L 577.432347 105.761187 
L 581.513889 125.769005 
L 585.595432 146.95249 
L 589.676975 184.603574 
L 593.758518 213.340168 
L 597.84006 241.726113 
L 601.921603 260.182098 
L 606.003146 269.848151 
L 610.084688 276.083605 
L 614.166231 279.995829 
L 618.247774 282.166485 
L 622.329316 283.653387 
L 626.410859 285.088204 
L 630.492402 283.109415 
L 634.573945 282.2797 
L 638.655487 282.576844 
L 642.73703 283.043157 
L 646.818573 283.458303 
L 650.900115 286.414157 
L 654.981658 287.918848 
L 659.063201 286.833981 
L 663.144743 286.304682 
L 667.226286 286.068052 
L 671.307829 287.153668 
L 675.389372 288.240176 
L 679.470914 290.705837 
L 683.552457 289.067128 
L 687.634 289.133187 
L 691.715542 289.051824 
L 695.797085 289.064181 
L 699.878628 289.520845 
L 703.96017 291.794974 
L 708.041713 292.336985 
L 712.123256 292.594143 
L 716.204799 292.347371 
L 720.286341 292.452535 
L 724.367884 294.374722 
L 728.449427 295.91073 
L 732.530969 297.025272 
L 736.612512 298.321562 
L 740.694055 299.144675 
L 744.775597 299.66798 
L 748.85714 300.011026 
L 752.938683 300.337986 
L 757.020226 300.765995 
L 761.101768 301.106699 
L 765.183311 301.364658 
L 769.264854 301.624752 
L 773.346396 301.929452 
L 777.427939 302.031478 
L 781.509482 302.174665 
L 785.591024 302.388326 
L 789.672567 302.664229 
L 793.75411 302.772641 
L 797.835653 302.919394 
L 801.917195 303.091841 
L 805.998738 303.172487 
L 810.080281 303.169886 
L 814.161823 303.244516 
L 818.243366 303.368221 
L 822.324909 303.381678 
L 826.406451 303.425749 
L 830.487994 303.499243 
L 834.569537 303.603233 
L 838.65108 303.567967 
L 842.732622 303.593554 
L 846.814165 303.657398 
L 850.895708 303.807751 
L 854.97725 303.892708 
L 859.058793 304.044247 
L 863.140336 304.162791 
L 867.221878 304.229658 
L 871.303421 304.224199 
L 875.384964 304.227126 
L 879.466507 304.265706 
L 883.548049 304.369358 
L 887.629592 304.469336 
L 891.711135 304.538288 
L 895.792677 304.573775 
L 899.87422 304.706713 
L 903.955763 304.684041 
L 908.037305 304.675889 
L 912.118848 304.760046 
L 916.200391 304.869635 
L 920.281934 304.881665 
L 924.363476 305.01379 
L 928.445019 305.112767 
L 932.526562 305.193712 
L 936.608104 305.232852 
L 940.689647 305.271719 
L 944.77119 305.370974 
L 948.852732 305.456189 
L 952.934275 305.477005 
L 957.015818 305.573439 
L 961.097361 305.635264 
L 965.178903 305.531636 
L 969.260446 305.55827 
L 973.341989 305.555338 
" clip-path="url(#p2c3a7be9d1)" style="fill: none; stroke: #4682b4; stroke-width: 2.5; stroke-linecap: square"/>
   </g>
   <g id="line2d_57">
    <path d="M 569.269261 117.441457 
L 573.350804 119.514332 
L 577.432347 134.966621 
L 581.513889 168.450937 
L 585.595432 191.631227 
L 589.676975 202.110664 
L 593.758518 204.361928 
L 597.84006 203.994361 
L 601.921603 202.603453 
L 606.003146 212.970935 
L 610.084688 193.488832 
L 614.166231 216.834303 
L 618.247774 211.682335 
L 622.329316 215.47696 
L 626.410859 212.140021 
L 630.492402 210.929106 
L 634.573945 214.935243 
L 638.655487 217.948419 
L 642.73703 215.095448 
L 646.818573 216.036094 
L 650.900115 219.76543 
L 654.981658 212.64261 
L 659.063201 208.070925 
L 663.144743 210.780379 
L 667.226286 213.756649 
L 671.307829 216.161317 
L 675.389372 217.418638 
L 679.470914 193.470388 
L 683.552457 215.88766 
L 687.634 209.733469 
L 691.715542 221.629455 
L 695.797085 211.860239 
L 699.878628 210.099493 
L 703.96017 208.464998 
L 708.041713 211.228942 
L 712.123256 200.847853 
L 716.204799 217.173318 
L 720.286341 218.453686 
L 724.367884 221.672058 
L 728.449427 224.121111 
L 732.530969 216.59634 
L 736.612512 221.024973 
L 740.694055 218.913334 
L 744.775597 219.629298 
L 748.85714 216.694088 
L 752.938683 217.589284 
L 757.020226 213.678433 
L 761.101768 217.827646 
L 765.183311 212.777274 
L 769.264854 219.23557 
L 773.346396 220.426735 
L 777.427939 217.574509 
L 781.509482 219.192444 
L 785.591024 214.965592 
L 789.672567 217.047336 
L 793.75411 219.037175 
L 797.835653 216.642652 
L 801.917195 219.818982 
L 805.998738 221.087959 
L 810.080281 219.353003 
L 814.161823 218.448989 
L 818.243366 218.374262 
L 822.324909 220.956756 
L 826.406451 215.866315 
L 830.487994 220.208796 
L 834.569537 217.781516 
L 838.65108 217.833249 
L 842.732622 215.866394 
L 846.814165 218.440154 
L 850.895708 218.166306 
L 854.97725 217.478238 
L 859.058793 216.472382 
L 863.140336 218.161303 
L 867.221878 218.681656 
L 871.303421 218.273611 
L 875.384964 218.995158 
L 879.466507 220.027834 
L 883.548049 219.644175 
L 887.629592 219.236493 
L 891.711135 219.448728 
L 895.792677 219.554113 
L 899.87422 220.130816 
L 903.955763 218.910301 
L 908.037305 219.622188 
L 912.118848 220.052937 
L 916.200391 220.292567 
L 920.281934 219.812256 
L 924.363476 219.3988 
L 928.445019 218.906115 
L 932.526562 219.507163 
L 936.608104 218.733626 
L 940.689647 218.83827 
L 944.77119 219.210312 
L 948.852732 218.756322 
L 952.934275 218.544964 
L 957.015818 219.949119 
L 961.097361 218.355825 
L 965.178903 217.783521 
L 969.260446 217.899512 
L 973.341989 217.758777 
" clip-path="url(#p2c3a7be9d1)" style="fill: none; stroke: #ff4500; stroke-opacity: 0.4; stroke-width: 0.8; stroke-linecap: square"/>
   </g>
   <g id="line2d_58">
    <path d="M 569.269261 117.441457 
L 573.350804 118.477894 
L 577.432347 123.974137 
L 581.513889 135.093337 
L 585.595432 146.400915 
L 589.676975 163.334756 
L 593.758518 180.304275 
L 597.84006 194.109823 
L 601.921603 200.940327 
L 606.003146 205.208268 
L 610.084688 203.483902 
L 614.166231 205.978377 
L 618.247774 207.515971 
L 622.329316 210.090673 
L 626.410859 209.92449 
L 630.492402 213.412545 
L 634.573945 213.032733 
L 638.655487 214.28595 
L 642.73703 214.209648 
L 646.818573 214.988862 
L 650.900115 216.756127 
L 654.981658 216.2976 
L 659.063201 214.322101 
L 663.144743 213.459088 
L 667.226286 213.003199 
L 671.307829 212.282376 
L 675.389372 213.237582 
L 679.470914 210.317474 
L 683.552457 211.33893 
L 687.634 210.534294 
L 691.715542 211.627922 
L 695.797085 210.516242 
L 699.878628 213.842063 
L 703.96017 212.357531 
L 708.041713 212.656625 
L 712.123256 208.500305 
L 716.204799 209.562921 
L 720.286341 211.233759 
L 724.367884 213.875171 
L 728.449427 216.453605 
L 732.530969 219.603303 
L 736.612512 220.373634 
L 740.694055 220.465563 
L 744.775597 220.057011 
L 748.85714 218.571606 
L 752.938683 218.770195 
L 757.020226 217.300887 
L 761.101768 217.083749 
L 765.183311 215.713345 
L 769.264854 216.221641 
L 773.346396 216.789131 
L 777.427939 217.568347 
L 781.509482 217.841306 
L 785.591024 218.27897 
L 789.672567 217.841323 
L 793.75411 217.563411 
L 797.835653 217.37704 
L 801.917195 217.502347 
L 805.998738 218.726821 
L 810.080281 219.187954 
L 814.161823 219.070317 
L 818.243366 219.416639 
L 822.324909 219.644194 
L 826.406451 218.599865 
L 830.487994 218.771024 
L 834.569537 218.637529 
L 838.65108 218.529327 
L 842.732622 217.511254 
L 846.814165 218.026022 
L 850.895708 217.617524 
L 854.97725 217.556868 
L 859.058793 217.284695 
L 863.140336 217.743677 
L 867.221878 217.791977 
L 871.303421 217.813438 
L 875.384964 218.116822 
L 879.466507 218.827912 
L 883.548049 219.124487 
L 887.629592 219.235454 
L 891.711135 219.470478 
L 895.792677 219.582269 
L 899.87422 219.602865 
L 903.955763 219.45609 
L 908.037305 219.533229 
L 912.118848 219.654071 
L 916.200391 219.801762 
L 920.281934 219.73805 
L 924.363476 219.83575 
L 928.445019 219.692535 
L 932.526562 219.58338 
L 936.608104 219.271592 
L 940.689647 219.076795 
L 944.77119 219.039097 
L 948.852732 219.009139 
L 952.934275 218.816699 
L 957.015818 219.059797 
L 961.097361 218.963308 
L 965.178903 218.67795 
L 969.260446 218.506588 
L 973.341989 218.349351 
" clip-path="url(#p2c3a7be9d1)" style="fill: none; stroke: #ff4500; stroke-width: 2.5; stroke-linecap: square"/>
   </g>
   <g id="patch_9">
    <path d="M 549.065625 317.877656 
L 549.065625 50.96 
" style="fill: none; stroke: #000000; stroke-width: 0.8; stroke-linejoin: miter; stroke-linecap: square"/>
   </g>
   <g id="patch_10">
    <path d="M 993.545625 317.877656 
L 993.545625 50.96 
" style="fill: none; stroke: #000000; stroke-width: 0.8; stroke-linejoin: miter; stroke-linecap: square"/>
   </g>
   <g id="patch_11">
    <path d="M 549.065625 317.877656 
L 993.545625 317.877656 
" style="fill: none; stroke: #000000; stroke-width: 0.8; stroke-linejoin: miter; stroke-linecap: square"/>
   </g>
   <g id="patch_12">
    <path d="M 549.065625 50.96 
L 993.545625 50.96 
" style="fill: none; stroke: #000000; stroke-width: 0.8; stroke-linejoin: miter; stroke-linecap: square"/>
   </g>
   <g id="text_33">
    <!-- Smoothed Loss Trend -->
    <g transform="translate(707.259375 44.96) scale(0.12 -0.12)">
     <defs>
      <path id="DejaVuSans-50" d="M 3328 2828 
Q 3544 3216 3844 3400 
Q 4144 3584 4550 3584 
Q 5097 3584 5394 3201 
Q 5691 2819 5691 2113 
L 5691 0 
L 5113 0 
L 5113 2094 
Q 5113 2597 4934 2840 
Q 4756 3084 4391 3084 
Q 3944 3084 3684 2787 
Q 3425 2491 3425 1978 
L 3425 0 
L 2847 0 
L 2847 2094 
Q 2847 2600 2669 2842 
Q 2491 3084 2119 3084 
Q 1678 3084 1418 2786 
Q 1159 2488 1159 1978 
L 1159 0 
L 581 0 
L 581 3500 
L 1159 3500 
L 1159 2956 
Q 1356 3278 1631 3431 
Q 1906 3584 2284 3584 
Q 2666 3584 2933 3390 
Q 3200 3197 3328 2828 
z
" transform="scale(0.015625)"/>
     </defs>
     <use xlink:href="#DejaVuSans-36"/>
     <use xlink:href="#DejaVuSans-50" transform="translate(63.484375 0)"/>
     <use xlink:href="#DejaVuSans-52" transform="translate(160.890625 0)"/>
     <use xlink:href="#DejaVuSans-52" transform="translate(222.078125 0)"/>
     <use xlink:href="#DejaVuSans-57" transform="translate(283.265625 0)"/>
     <use xlink:href="#DejaVuSans-4b" transform="translate(322.46875 0)"/>
     <use xlink:href="#DejaVuSans-48" transform="translate(385.84375 0)"/>
     <use xlink:href="#DejaVuSans-47" transform="translate(447.375 0)"/>
     <use xlink:href="#DejaVuSans-3" transform="translate(510.859375 0)"/>
     <use xlink:href="#DejaVuSans-2f" transform="translate(542.640625 0)"/>
     <use xlink:href="#DejaVuSans-52" transform="translate(596.609375 0)"/>
     <use xlink:href="#DejaVuSans-56" transform="translate(657.796875 0)"/>
     <use xlink:href="#DejaVuSans-56" transform="translate(709.890625 0)"/>
     <use xlink:href="#DejaVuSans-3" transform="translate(761.984375 0)"/>
     <use xlink:href="#DejaVuSans-37" transform="translate(793.765625 0)"/>
     <use xlink:href="#DejaVuSans-55" transform="translate(840.140625 0)"/>
     <use xlink:href="#DejaVuSans-48" transform="translate(879.046875 0)"/>
     <use xlink:href="#DejaVuSans-51" transform="translate(940.578125 0)"/>
     <use xlink:href="#DejaVuSans-47" transform="translate(1003.953125 0)"/>
    </g>
   </g>
   <g id="legend_2">
    <g id="patch_13">
     <path d="M 870.089531 85.161406 
L 987.245625 85.161406 
Q 989.045625 85.161406 989.045625 83.361406 
L 989.045625 57.26 
Q 989.045625 55.46 987.245625 55.46 
L 870.089531 55.46 
Q 868.289531 55.46 868.289531 57.26 
L 868.289531 83.361406 
Q 868.289531 85.161406 870.089531 85.161406 
z
" style="fill: #ffffff; opacity: 0.8; stroke: #cccccc; stroke-linejoin: miter"/>
    </g>
    <g id="line2d_59">
     <path d="M 871.889531 62.748594 
L 880.889531 62.748594 
L 889.889531 62.748594 
" style="fill: none; stroke: #4682b4; stroke-width: 2.5; stroke-linecap: square"/>
    </g>
    <g id="text_34">
     <!-- Train (5-ep smooth) -->
     <g transform="translate(897.089531 65.898594) scale(0.09 -0.09)">
      <use xlink:href="#DejaVuSans-37"/>
      <use xlink:href="#DejaVuSans-55" transform="translate(46.375 0)"/>
      <use xlink:href="#DejaVuSans-44" transform="translate(87.484375 0)"/>
      <use xlink:href="#DejaVuSans-4c" transform="translate(148.765625 0)"/>
      <use xlink:href="#DejaVuSans-51" transform="translate(176.546875 0)"/>
      <use xlink:href="#DejaVuSans-3" transform="translate(239.921875 0)"/>
      <use xlink:href="#DejaVuSans-b" transform="translate(271.703125 0)"/>
      <use xlink:href="#DejaVuSans-18" transform="translate(310.71875 0)"/>
      <use xlink:href="#DejaVuSans-10" transform="translate(374.34375 0)"/>
      <use xlink:href="#DejaVuSans-48" transform="translate(410.421875 0)"/>
      <use xlink:href="#DejaVuSans-53" transform="translate(471.953125 0)"/>
      <use xlink:href="#DejaVuSans-3" transform="translate(535.4375 0)"/>
      <use xlink:href="#DejaVuSans-56" transform="translate(567.21875 0)"/>
      <use xlink:href="#DejaVuSans-50" transform="translate(619.3125 0)"/>
      <use xlink:href="#DejaVuSans-52" transform="translate(716.71875 0)"/>
      <use xlink:href="#DejaVuSans-52" transform="translate(777.90625 0)"/>
      <use xlink:href="#DejaVuSans-57" transform="translate(839.09375 0)"/>
      <use xlink:href="#DejaVuSans-4b" transform="translate(878.296875 0)"/>
      <use xlink:href="#DejaVuSans-c" transform="translate(941.671875 0)"/>
     </g>
    </g>
    <g id="line2d_60">
     <path d="M 871.889531 76.249297 
L 880.889531 76.249297 
L 889.889531 76.249297 
" style="fill: none; stroke: #ff4500; stroke-width: 2.5; stroke-linecap: square"/>
    </g>
    <g id="text_35">
     <!-- Valid (5-ep smooth) -->
     <g transform="translate(897.089531 79.399297) scale(0.09 -0.09)">
      <use xlink:href="#DejaVuSans-39"/>
      <use xlink:href="#DejaVuSans-44" transform="translate(60.640625 0)"/>
      <use xlink:href="#DejaVuSans-4f" transform="translate(121.921875 0)"/>
      <use xlink:href="#DejaVuSans-4c" transform="translate(149.703125 0)"/>
      <use xlink:href="#DejaVuSans-47" transform="translate(177.484375 0)"/>
      <use xlink:href="#DejaVuSans-3" transform="translate(240.96875 0)"/>
      <use xlink:href="#DejaVuSans-b" transform="translate(272.75 0)"/>
      <use xlink:href="#DejaVuSans-18" transform="translate(311.765625 0)"/>
      <use xlink:href="#DejaVuSans-10" transform="translate(375.390625 0)"/>
      <use xlink:href="#DejaVuSans-48" transform="translate(411.46875 0)"/>
      <use xlink:href="#DejaVuSans-53" transform="translate(473 0)"/>
      <use xlink:href="#DejaVuSans-3" transform="translate(536.484375 0)"/>
      <use xlink:href="#DejaVuSans-56" transform="translate(568.265625 0)"/>
      <use xlink:href="#DejaVuSans-50" transform="translate(620.359375 0)"/>
      <use xlink:href="#DejaVuSans-52" transform="translate(717.765625 0)"/>
      <use xlink:href="#DejaVuSans-52" transform="translate(778.953125 0)"/>
      <use xlink:href="#DejaVuSans-57" transform="translate(840.140625 0)"/>
      <use xlink:href="#DejaVuSans-4b" transform="translate(879.34375 0)"/>
      <use xlink:href="#DejaVuSans-c" transform="translate(942.71875 0)"/>
     </g>
    </g>
   </g>
  </g>
  <g id="text_36">
   <!-- Training Loss -->
   <g transform="translate(448.34875 17.837812) scale(0.14 -0.14)">
    <defs>
     <path id="DejaVuSans-Bold-37" d="M 31 4666 
L 4331 4666 
L 4331 3756 
L 2784 3756 
L 2784 0 
L 1581 0 
L 1581 3756 
L 31 3756 
L 31 4666 
z
" transform="scale(0.015625)"/>
     <path id="DejaVuSans-Bold-55" d="M 3138 2547 
Q 2991 2616 2845 2648 
Q 2700 2681 2553 2681 
Q 2122 2681 1889 2404 
Q 1656 2128 1656 1613 
L 1656 0 
L 538 0 
L 538 3500 
L 1656 3500 
L 1656 2925 
Q 1872 3269 2151 3426 
Q 2431 3584 2822 3584 
Q 2878 3584 2943 3579 
Q 3009 3575 3134 3559 
L 3138 2547 
z
" transform="scale(0.015625)"/>
     <path id="DejaVuSans-Bold-44" d="M 2106 1575 
Q 1756 1575 1579 1456 
Q 1403 1338 1403 1106 
Q 1403 894 1545 773 
Q 1688 653 1941 653 
Q 2256 653 2472 879 
Q 2688 1106 2688 1447 
L 2688 1575 
L 2106 1575 
z
M 3816 1997 
L 3816 0 
L 2688 0 
L 2688 519 
Q 2463 200 2181 54 
Q 1900 -91 1497 -91 
Q 953 -91 614 226 
Q 275 544 275 1050 
Q 275 1666 698 1953 
Q 1122 2241 2028 2241 
L 2688 2241 
L 2688 2328 
Q 2688 2594 2478 2717 
Q 2269 2841 1825 2841 
Q 1466 2841 1156 2769 
Q 847 2697 581 2553 
L 581 3406 
Q 941 3494 1303 3539 
Q 1666 3584 2028 3584 
Q 2975 3584 3395 3211 
Q 3816 2838 3816 1997 
z
" transform="scale(0.015625)"/>
     <path id="DejaVuSans-Bold-4c" d="M 538 3500 
L 1656 3500 
L 1656 0 
L 538 0 
L 538 3500 
z
M 538 4863 
L 1656 4863 
L 1656 3950 
L 538 3950 
L 538 4863 
z
" transform="scale(0.015625)"/>
     <path id="DejaVuSans-Bold-51" d="M 4056 2131 
L 4056 0 
L 2931 0 
L 2931 347 
L 2931 1631 
Q 2931 2084 2911 2256 
Q 2891 2428 2841 2509 
Q 2775 2619 2662 2680 
Q 2550 2741 2406 2741 
Q 2056 2741 1856 2470 
Q 1656 2200 1656 1722 
L 1656 0 
L 538 0 
L 538 3500 
L 1656 3500 
L 1656 2988 
Q 1909 3294 2193 3439 
Q 2478 3584 2822 3584 
Q 3428 3584 3742 3212 
Q 4056 2841 4056 2131 
z
" transform="scale(0.015625)"/>
     <path id="DejaVuSans-Bold-4a" d="M 2919 594 
Q 2688 288 2409 144 
Q 2131 0 1766 0 
Q 1125 0 706 504 
Q 288 1009 288 1791 
Q 288 2575 706 3076 
Q 1125 3578 1766 3578 
Q 2131 3578 2409 3434 
Q 2688 3291 2919 2981 
L 2919 3500 
L 4044 3500 
L 4044 353 
Q 4044 -491 3511 -936 
Q 2978 -1381 1966 -1381 
Q 1638 -1381 1331 -1331 
Q 1025 -1281 716 -1178 
L 716 -306 
Q 1009 -475 1290 -558 
Q 1572 -641 1856 -641 
Q 2406 -641 2662 -400 
Q 2919 -159 2919 353 
L 2919 594 
z
M 2181 2772 
Q 1834 2772 1640 2515 
Q 1447 2259 1447 1791 
Q 1447 1309 1634 1061 
Q 1822 813 2181 813 
Q 2531 813 2725 1069 
Q 2919 1325 2919 1791 
Q 2919 2259 2725 2515 
Q 2531 2772 2181 2772 
z
" transform="scale(0.015625)"/>
     <path id="DejaVuSans-Bold-3" transform="scale(0.015625)"/>
     <path id="DejaVuSans-Bold-2f" d="M 588 4666 
L 1791 4666 
L 1791 909 
L 3903 909 
L 3903 0 
L 588 0 
L 588 4666 
z
" transform="scale(0.015625)"/>
     <path id="DejaVuSans-Bold-52" d="M 2203 2784 
Q 1831 2784 1636 2517 
Q 1441 2250 1441 1747 
Q 1441 1244 1636 976 
Q 1831 709 2203 709 
Q 2569 709 2762 976 
Q 2956 1244 2956 1747 
Q 2956 2250 2762 2517 
Q 2569 2784 2203 2784 
z
M 2203 3584 
Q 3106 3584 3614 3096 
Q 4122 2609 4122 1747 
Q 4122 884 3614 396 
Q 3106 -91 2203 -91 
Q 1297 -91 786 396 
Q 275 884 275 1747 
Q 275 2609 786 3096 
Q 1297 3584 2203 3584 
z
" transform="scale(0.015625)"/>
     <path id="DejaVuSans-Bold-56" d="M 3272 3391 
L 3272 2541 
Q 2913 2691 2578 2766 
Q 2244 2841 1947 2841 
Q 1628 2841 1473 2761 
Q 1319 2681 1319 2516 
Q 1319 2381 1436 2309 
Q 1553 2238 1856 2203 
L 2053 2175 
Q 2913 2066 3209 1816 
Q 3506 1566 3506 1031 
Q 3506 472 3093 190 
Q 2681 -91 1863 -91 
Q 1516 -91 1145 -36 
Q 775 19 384 128 
L 384 978 
Q 719 816 1070 734 
Q 1422 653 1784 653 
Q 2113 653 2278 743 
Q 2444 834 2444 1013 
Q 2444 1163 2330 1236 
Q 2216 1309 1875 1350 
L 1678 1375 
Q 931 1469 631 1722 
Q 331 1975 331 2491 
Q 331 3047 712 3315 
Q 1094 3584 1881 3584 
Q 2191 3584 2531 3537 
Q 2872 3491 3272 3391 
z
" transform="scale(0.015625)"/>
    </defs>
    <use xlink:href="#DejaVuSans-Bold-37"/>
    <use xlink:href="#DejaVuSans-Bold-55" transform="translate(57.234375 0)"/>
    <use xlink:href="#DejaVuSans-Bold-44" transform="translate(106.546875 0)"/>
    <use xlink:href="#DejaVuSans-Bold-4c" transform="translate(174.03125 0)"/>
    <use xlink:href="#DejaVuSans-Bold-51" transform="translate(208.3125 0)"/>
    <use xlink:href="#DejaVuSans-Bold-4c" transform="translate(279.5 0)"/>
    <use xlink:href="#DejaVuSans-Bold-51" transform="translate(313.78125 0)"/>
    <use xlink:href="#DejaVuSans-Bold-4a" transform="translate(384.96875 0)"/>
    <use xlink:href="#DejaVuSans-Bold-3" transform="translate(456.546875 0)"/>
    <use xlink:href="#DejaVuSans-Bold-2f" transform="translate(491.359375 0)"/>
    <use xlink:href="#DejaVuSans-Bold-52" transform="translate(555.078125 0)"/>
    <use xlink:href="#DejaVuSans-Bold-56" transform="translate(623.78125 0)"/>
    <use xlink:href="#DejaVuSans-Bold-56" transform="translate(683.296875 0)"/>
   </g>
  </g>
 </g>
 <defs>
  <clipPath id="p6523c6e32f">
   <rect x="50.465625" y="50.96" width="444.48" height="266.917656"/>
  </clipPath>
  <clipPath id="p2c3a7be9d1">
   <rect x="549.065625" y="50.96" width="444.48" height="266.917656"/>
  </clipPath>
 </defs>
</svg>
