<?xml version="1.0" encoding="utf-8" standalone="no"?>
<!DOCTYPE svg PUBLIC "-//W3C//DTD SVG 1.1//EN"
  "http://www.w3.org/Graphics/SVG/1.1/DTD/svg11.dtd">
<svg xmlns:xlink="http://www.w3.org/1999/xlink" width="1000.745625pt" height="356.078437pt" viewBox="0 0 1000.745625 356.078437" xmlns="http://www.w3.org/2000/svg" version="1.1">
 <metadata>
  <rdf:RDF xmlns:dc="http://purl.org/dc/elements/1.1/" xmlns:cc="http://creativecommons.org/ns#" xmlns:rdf="http://www.w3.org/1999/02/22-rdf-syntax-ns#">
   <cc:Work>
    <dc:type rdf:resource="http://purl.org/dc/dcmitype/StillImage"/>
    <dc:date>2026-07-21T15:18:48.408257</dc:date>
    <dc:format>image/svg+xml</dc:format>
    <dc:creator>
     <cc:Agent>
      <dc:title>Matplotlib v3.11.1, https://matplotlib.org/</dc:title>
     </cc:Agent>
    </dc:creator>
   </cc:Work>
  </rdf:RDF>
 </metadata>
 <defs>
  <style type="text/css">*{stroke-linejoin: round; stroke-linecap: butt}</style>
 </defs>
 <g id="figure_1">
  <g id="patch_1">
   <path d="M 0 356.078437 
L 1000.745625 356.078437 
L 1000.745625 0 
L 0 0 
z
" style="fill: #ffffff"/>
  </g>
  <g id="axes_1">
   <g id="patch_2">
    <path d="M 50.465625 317.877656 
L 491.705625 317.877656 
L 491.705625 50.96 
L 50.465625 50.96 
z
" style="fill: #ffffff"/>
   </g>
   <g id="FillBetweenPolyCollection_1">
    <defs>
     <path id="m5b83350f5b" d="M 70.521989 -292.985817 
L 70.521989 -171.851408 
L 74.573779 -100.887873 
L 78.62557 -81.425477 
L 82.677361 -74.533384 
L 86.729151 -71.51004 
L 90.780942 -69.744606 
L 94.832732 -69.014991 
L 98.884523 -69.060835 
L 102.936314 -68.656425 
L 106.988104 -68.22972 
L 111.039895 -71.479081 
L 115.091686 -69.019185 
L 119.143476 -67.782246 
L 123.195267 -67.702954 
L 127.247058 -69.428411 
L 131.298848 -70.960135 
L 135.350639 -67.833187 
L 139.402429 -67.027177 
L 143.45422 -66.10348 
L 147.506011 -65.146098 
L 151.557801 -66.114026 
L 155.609592 -64.476028 
L 159.661383 -63.976621 
L 163.713173 -63.543947 
L 167.764964 -62.997377 
L 171.816754 -62.531608 
L 175.868545 -62.044495 
L 179.920336 -61.551125 
L 183.972126 -60.692522 
L 188.023917 -60.912053 
L 192.075708 -59.762856 
L 196.127498 -59.112148 
L 200.179289 -58.852999 
L 204.23108 -59.283223 
L 208.28287 -58.27398 
L 212.334661 -57.886276 
L 216.386451 -58.032869 
L 220.438242 -57.726134 
L 224.490033 -57.382524 
L 228.541823 -56.262386 
L 232.593614 -56.819704 
L 236.645405 -56.346746 
L 240.697195 -56.507715 
L 244.748986 -55.616883 
L 248.800777 -55.633828 
L 252.852567 -55.542064 
L 256.904358 -55.103238 
L 260.956148 -54.795656 
L 265.007939 -54.149593 
L 269.05973 -54.25722 
L 273.11152 -54.286399 
L 277.163311 -54.156757 
L 281.215102 -54.242826 
L 285.266892 -53.795032 
L 289.318683 -53.37283 
L 293.370473 -53.600663 
L 297.422264 -54.245299 
L 301.474055 -53.32208 
L 305.525845 -53.684117 
L 309.577636 -53.068019 
L 313.629427 -52.926644 
L 317.681217 -52.489735 
L 321.733008 -52.489486 
L 325.784799 -52.563525 
L 329.836589 -52.733512 
L 333.88838 -52.632796 
L 337.94017 -52.584341 
L 341.991961 -51.991827 
L 346.043752 -52.094869 
L 350.095542 -52.55264 
L 354.147333 -52.030019 
L 358.199124 -52.001502 
L 362.250914 -52.109291 
L 366.302705 -51.619967 
L 370.354496 -51.716881 
L 374.406286 -51.762389 
L 378.458077 -51.584257 
L 382.509867 -51.546302 
L 386.561658 -51.389409 
L 390.613449 -51.30562 
L 394.665239 -51.48641 
L 398.71703 -51.247152 
L 402.768821 -51.531763 
L 406.820611 -51.127663 
L 410.872402 -50.86589 
L 414.924192 -51.284428 
L 418.975983 -51.003125 
L 423.027774 -50.908834 
L 427.079564 -51.115197 
L 431.131355 -51.084458 
L 435.183146 -50.745578 
L 439.234936 -50.58331 
L 443.286727 -50.53741 
L 447.338518 -50.76764 
L 451.390308 -51.121459 
L 455.442099 -50.333402 
L 459.493889 -50.887944 
L 463.54568 -50.566825 
L 467.597471 -50.941082 
L 471.649261 -50.978904 
L 471.649261 -68.039977 
L 471.649261 -68.039977 
L 467.597471 -68.103511 
L 463.54568 -68.417183 
L 459.493889 -68.295374 
L 455.442099 -68.707114 
L 451.390308 -67.964356 
L 447.338518 -68.404895 
L 443.286727 -68.649428 
L 439.234936 -68.630171 
L 435.183146 -68.502199 
L 431.131355 -68.245223 
L 427.079564 -68.447806 
L 423.027774 -68.652448 
L 418.975983 -68.60129 
L 414.924192 -68.577085 
L 410.872402 -69.011183 
L 406.820611 -68.813089 
L 402.768821 -68.579325 
L 398.71703 -69.073014 
L 394.665239 -68.859051 
L 390.613449 -69.260785 
L 386.561658 -69.282254 
L 382.509867 -69.227162 
L 378.458077 -69.188152 
L 374.406286 -69.223151 
L 370.354496 -69.442254 
L 366.302705 -69.571451 
L 362.250914 -69.391486 
L 358.199124 -69.594706 
L 354.147333 -69.808933 
L 350.095542 -69.272928 
L 346.043752 -70.02642 
L 341.991961 -70.300941 
L 337.94017 -69.981893 
L 333.88838 -70.155665 
L 329.836589 -70.219429 
L 325.784799 -70.532275 
L 321.733008 -70.759947 
L 317.681217 -71.199313 
L 313.629427 -70.938719 
L 309.577636 -70.929312 
L 305.525845 -70.623084 
L 301.474055 -71.184571 
L 297.422264 -70.608506 
L 293.370473 -71.308918 
L 289.318683 -72.160567 
L 285.266892 -72.073463 
L 281.215102 -71.845597 
L 277.163311 -72.269163 
L 273.11152 -72.367636 
L 269.05973 -72.558256 
L 265.007939 -73.193801 
L 260.956148 -72.861879 
L 256.904358 -73.133226 
L 252.852567 -72.957636 
L 248.800777 -73.204297 
L 244.748986 -73.991162 
L 240.697195 -74.139733 
L 236.645405 -74.322898 
L 232.593614 -74.433146 
L 228.541823 -75.130518 
L 224.490033 -74.94371 
L 220.438242 -75.638993 
L 216.386451 -75.968709 
L 212.334661 -76.263501 
L 208.28287 -76.094576 
L 204.23108 -77.832137 
L 200.179289 -77.177824 
L 196.127498 -77.558611 
L 192.075708 -78.716685 
L 188.023917 -78.244628 
L 183.972126 -78.38004 
L 179.920336 -79.694832 
L 175.868545 -80.311467 
L 171.816754 -80.539869 
L 167.764964 -80.828836 
L 163.713173 -81.562541 
L 159.661383 -81.047213 
L 155.609592 -82.888884 
L 151.557801 -84.673027 
L 147.506011 -83.982348 
L 143.45422 -84.547295 
L 139.402429 -85.375971 
L 135.350639 -87.47899 
L 131.298848 -89.961815 
L 127.247058 -111.160712 
L 123.195267 -86.033231 
L 119.143476 -85.886592 
L 115.091686 -87.901422 
L 111.039895 -96.076134 
L 106.988104 -87.14592 
L 102.936314 -86.77855 
L 98.884523 -86.812221 
L 94.832732 -87.438951 
L 90.780942 -88.22016 
L 86.729151 -89.99624 
L 82.677361 -92.774062 
L 78.62557 -100.421629 
L 74.573779 -149.0239 
L 70.521989 -292.985817 
z
" style="stroke: #4682b4; stroke-opacity: 0.2"/>
    </defs>
    <g clip-path="url(#p2d106c7698)">
     <use xlink:href="#m5b83350f5b" x="0" y="356.078437" style="fill: #4682b4; fill-opacity: 0.2; stroke: #4682b4; stroke-opacity: 0.2"/>
    </g>
   </g>
   <g id="FillBetweenPolyCollection_2">
    <defs>
     <path id="m07acef3c79" d="M 70.521989 -284.9745 
L 70.521989 -163.400172 
L 74.573779 -124.279193 
L 78.62557 -108.918504 
L 82.677361 -101.020763 
L 86.729151 -98.185115 
L 90.780942 -85.415135 
L 94.832732 -93.777376 
L 98.884523 -94.730051 
L 102.936314 -90.089838 
L 106.988104 -83.716337 
L 111.039895 -95.45061 
L 115.091686 -95.351319 
L 119.143476 -94.900135 
L 123.195267 -92.615529 
L 127.247058 -106.948693 
L 131.298848 -107.831288 
L 135.350639 -107.648226 
L 139.402429 -99.167328 
L 143.45422 -106.634966 
L 147.506011 -105.009345 
L 151.557801 -99.73756 
L 155.609592 -104.144326 
L 159.661383 -117.280305 
L 163.713173 -125.456932 
L 167.764964 -104.191404 
L 171.816754 -110.488174 
L 175.868545 -110.321551 
L 179.920336 -98.201786 
L 183.972126 -121.737973 
L 188.023917 -110.323315 
L 192.075708 -110.489846 
L 196.127498 -107.33381 
L 200.179289 -115.25116 
L 204.23108 -110.60205 
L 208.28287 -107.596079 
L 212.334661 -113.77239 
L 216.386451 -109.388816 
L 220.438242 -107.03192 
L 224.490033 -118.11235 
L 228.541823 -115.401065 
L 232.593614 -114.118524 
L 236.645405 -110.636279 
L 240.697195 -111.404627 
L 244.748986 -107.588434 
L 248.800777 -107.944207 
L 252.852567 -109.289455 
L 256.904358 -110.335318 
L 260.956148 -109.789923 
L 265.007939 -107.47662 
L 269.05973 -112.788103 
L 273.11152 -112.561302 
L 277.163311 -110.234566 
L 281.215102 -110.151038 
L 285.266892 -116.637267 
L 289.318683 -113.016987 
L 293.370473 -114.119866 
L 297.422264 -112.543524 
L 301.474055 -109.519237 
L 305.525845 -110.644896 
L 309.577636 -112.426263 
L 313.629427 -110.758235 
L 317.681217 -113.299993 
L 321.733008 -110.197953 
L 325.784799 -110.255826 
L 329.836589 -110.732951 
L 333.88838 -111.306626 
L 337.94017 -110.914966 
L 341.991961 -107.860148 
L 346.043752 -109.969675 
L 350.095542 -109.251643 
L 354.147333 -110.448834 
L 358.199124 -111.165238 
L 362.250914 -110.071529 
L 366.302705 -108.835312 
L 370.354496 -109.771676 
L 374.406286 -109.713437 
L 378.458077 -109.771146 
L 382.509867 -109.762443 
L 386.561658 -111.703309 
L 390.613449 -109.86111 
L 394.665239 -109.713598 
L 398.71703 -109.726298 
L 402.768821 -110.059251 
L 406.820611 -110.551147 
L 410.872402 -110.240797 
L 414.924192 -109.951479 
L 418.975983 -109.781426 
L 423.027774 -109.662521 
L 427.079564 -109.648489 
L 431.131355 -110.194803 
L 435.183146 -110.763785 
L 439.234936 -110.719098 
L 443.286727 -110.864181 
L 447.338518 -110.41488 
L 451.390308 -111.285321 
L 455.442099 -110.805251 
L 459.493889 -110.693152 
L 463.54568 -110.50934 
L 467.597471 -110.863756 
L 471.649261 -110.844915 
L 471.649261 -230.203807 
L 471.649261 -230.203807 
L 467.597471 -229.92486 
L 463.54568 -229.694513 
L 459.493889 -229.981489 
L 455.442099 -230.189401 
L 451.390308 -230.664384 
L 447.338518 -229.634931 
L 443.286727 -230.257757 
L 439.234936 -230.326335 
L 435.183146 -229.655413 
L 431.131355 -229.771992 
L 427.079564 -228.822803 
L 423.027774 -229.050639 
L 418.975983 -229.17215 
L 414.924192 -229.44101 
L 410.872402 -229.176732 
L 406.820611 -230.298407 
L 402.768821 -229.122854 
L 398.71703 -228.014555 
L 394.665239 -228.409389 
L 390.613449 -228.650193 
L 386.561658 -229.745574 
L 382.509867 -228.383562 
L 378.458077 -228.121633 
L 374.406286 -229.049133 
L 370.354496 -227.358573 
L 366.302705 -225.349819 
L 362.250914 -228.347741 
L 358.199124 -225.618372 
L 354.147333 -228.37897 
L 350.095542 -229.758628 
L 346.043752 -224.939396 
L 341.991961 -228.193634 
L 337.94017 -226.765554 
L 333.88838 -230.416577 
L 329.836589 -227.518322 
L 325.784799 -229.777898 
L 321.733008 -232.537535 
L 317.681217 -232.855505 
L 313.629427 -228.653029 
L 309.577636 -228.475268 
L 305.525845 -227.680206 
L 301.474055 -223.919946 
L 297.422264 -225.987421 
L 293.370473 -228.255489 
L 289.318683 -226.71965 
L 285.266892 -228.320012 
L 281.215102 -228.490576 
L 277.163311 -231.434433 
L 273.11152 -227.639316 
L 269.05973 -226.308174 
L 265.007939 -231.702191 
L 260.956148 -220.361408 
L 256.904358 -222.923555 
L 252.852567 -229.050873 
L 248.800777 -218.109187 
L 244.748986 -223.714163 
L 240.697195 -233.712925 
L 236.645405 -233.729273 
L 232.593614 -232.567962 
L 228.541823 -234.189131 
L 224.490033 -245.679295 
L 220.438242 -225.814846 
L 216.386451 -223.877292 
L 212.334661 -233.916985 
L 208.28287 -228.520651 
L 204.23108 -228.071954 
L 200.179289 -229.57058 
L 196.127498 -242.710262 
L 192.075708 -231.649896 
L 188.023917 -227.986029 
L 183.972126 -237.990238 
L 179.920336 -226.155254 
L 175.868545 -237.553182 
L 171.816754 -228.062377 
L 167.764964 -232.905107 
L 163.713173 -240.591941 
L 159.661383 -239.682658 
L 155.609592 -242.276202 
L 151.557801 -231.250101 
L 147.506011 -221.564769 
L 143.45422 -217.849013 
L 139.402429 -233.446229 
L 135.350639 -240.641496 
L 131.298848 -264.242209 
L 127.247058 -239.495921 
L 123.195267 -229.077299 
L 119.143476 -213.54204 
L 115.091686 -218.259576 
L 111.039895 -220.901371 
L 106.988104 -212.056354 
L 102.936314 -213.283104 
L 98.884523 -206.974501 
L 94.832732 -204.931849 
L 90.780942 -209.305187 
L 86.729151 -201.744962 
L 82.677361 -203.763259 
L 78.62557 -208.721324 
L 74.573779 -230.029961 
L 70.521989 -284.9745 
z
" style="stroke: #ff4500; stroke-opacity: 0.2"/>
    </defs>
    <g clip-path="url(#p2d106c7698)">
     <use xlink:href="#m07acef3c79" x="0" y="356.078437" style="fill: #ff4500; fill-opacity: 0.2; stroke: #ff4500; stroke-opacity: 0.2"/>
    </g>
   </g>
   <g id="matplotlib.axis_1">
    <g id="xtick_1">
     <g id="line2d_1">
      <path d="M 70.521989 317.877656 
L 70.521989 50.96 
" clip-path="url(#p2d106c7698)" style="fill: none; stroke: #b0b0b0; stroke-opacity: 0.3; stroke-width: 0.8; stroke-linecap: square"/>
     </g>
     <g id="line2d_2">
      <defs>
       <path id="m64a3618afe" d="M 0 0 
L 0 3.5 
" style="stroke: #000000; stroke-width: 0.8"/>
      </defs>
      <g>
       <use xlink:href="#m64a3618afe" x="70.521989" y="317.877656" style="stroke: #000000; stroke-width: 0.8"/>
      </g>
     </g>
     <g id="text_1">
      <!-- 0 -->
      <g transform="translate(67.340739 332.475312) scale(0.1 -0.1)">
       <defs>
        <path id="DejaVuSans-13" d="M 2034 4250 
Q 1547 4250 1301 3770 
Q 1056 3291 1056 2328 
Q 1056 1369 1301 889 
Q 1547 409 2034 409 
Q 2525 409 2770 889 
Q 3016 1369 3016 2328 
Q 3016 3291 2770 3770 
Q 2525 4250 2034 4250 
z
M 2034 4750 
Q 2819 4750 3233 4129 
Q 3647 3509 3647 2328 
Q 3647 1150 3233 529 
Q 2819 -91 2034 -91 
Q 1250 -91 836 529 
Q 422 1150 422 2328 
Q 422 3509 836 4129 
Q 1250 4750 2034 4750 
z
" transform="scale(0.015625)"/>
       </defs>
       <use xlink:href="#DejaVuSans-13"/>
      </g>
     </g>
    </g>
    <g id="xtick_2">
     <g id="line2d_3">
      <path d="M 151.557801 317.877656 
L 151.557801 50.96 
" clip-path="url(#p2d106c7698)" style="fill: none; stroke: #b0b0b0; stroke-opacity: 0.3; stroke-width: 0.8; stroke-linecap: square"/>
     </g>
     <g id="line2d_4">
      <g>
       <use xlink:href="#m64a3618afe" x="151.557801" y="317.877656" style="stroke: #000000; stroke-width: 0.8"/>
      </g>
     </g>
     <g id="text_2">
      <!-- 20 -->
      <g transform="translate(145.195301 332.475312) scale(0.1 -0.1)">
       <defs>
        <path id="DejaVuSans-15" d="M 1228 531 
L 3431 531 
L 3431 0 
L 469 0 
L 469 531 
Q 828 903 1448 1529 
Q 2069 2156 2228 2338 
Q 2531 2678 2651 2914 
Q 2772 3150 2772 3378 
Q 2772 3750 2511 3984 
Q 2250 4219 1831 4219 
Q 1534 4219 1204 4116 
Q 875 4013 500 3803 
L 500 4441 
Q 881 4594 1212 4672 
Q 1544 4750 1819 4750 
Q 2544 4750 2975 4387 
Q 3406 4025 3406 3419 
Q 3406 3131 3298 2873 
Q 3191 2616 2906 2266 
Q 2828 2175 2409 1742 
Q 1991 1309 1228 531 
z
" transform="scale(0.015625)"/>
       </defs>
       <use xlink:href="#DejaVuSans-15"/>
       <use xlink:href="#DejaVuSans-13" transform="translate(63.625 0)"/>
      </g>
     </g>
    </g>
    <g id="xtick_3">
     <g id="line2d_5">
      <path d="M 232.593614 317.877656 
L 232.593614 50.96 
" clip-path="url(#p2d106c7698)" style="fill: none; stroke: #b0b0b0; stroke-opacity: 0.3; stroke-width: 0.8; stroke-linecap: square"/>
     </g>
     <g id="line2d_6">
      <g>
       <use xlink:href="#m64a3618afe" x="232.593614" y="317.877656" style="stroke: #000000; stroke-width: 0.8"/>
      </g>
     </g>
     <g id="text_3">
      <!-- 40 -->
      <g transform="translate(226.231114 332.475312) scale(0.1 -0.1)">
       <defs>
        <path id="DejaVuSans-17" d="M 2419 4116 
L 825 1625 
L 2419 1625 
L 2419 4116 
z
M 2253 4666 
L 3047 4666 
L 3047 1625 
L 3713 1625 
L 3713 1100 
L 3047 1100 
L 3047 0 
L 2419 0 
L 2419 1100 
L 313 1100 
L 313 1709 
L 2253 4666 
z
" transform="scale(0.015625)"/>
       </defs>
       <use xlink:href="#DejaVuSans-17"/>
       <use xlink:href="#DejaVuSans-13" transform="translate(63.625 0)"/>
      </g>
     </g>
    </g>
    <g id="xtick_4">
     <g id="line2d_7">
      <path d="M 313.629427 317.877656 
L 313.629427 50.96 
" clip-path="url(#p2d106c7698)" style="fill: none; stroke: #b0b0b0; stroke-opacity: 0.3; stroke-width: 0.8; stroke-linecap: square"/>
     </g>
     <g id="line2d_8">
      <g>
       <use xlink:href="#m64a3618afe" x="313.629427" y="317.877656" style="stroke: #000000; stroke-width: 0.8"/>
      </g>
     </g>
     <g id="text_4">
      <!-- 60 -->
      <g transform="translate(307.266927 332.475312) scale(0.1 -0.1)">
       <defs>
        <path id="DejaVuSans-19" d="M 2113 2584 
Q 1688 2584 1439 2293 
Q 1191 2003 1191 1497 
Q 1191 994 1439 701 
Q 1688 409 2113 409 
Q 2538 409 2786 701 
Q 3034 994 3034 1497 
Q 3034 2003 2786 2293 
Q 2538 2584 2113 2584 
z
M 3366 4563 
L 3366 3988 
Q 3128 4100 2886 4159 
Q 2644 4219 2406 4219 
Q 1781 4219 1451 3797 
Q 1122 3375 1075 2522 
Q 1259 2794 1537 2939 
Q 1816 3084 2150 3084 
Q 2853 3084 3261 2657 
Q 3669 2231 3669 1497 
Q 3669 778 3244 343 
Q 2819 -91 2113 -91 
Q 1303 -91 875 529 
Q 447 1150 447 2328 
Q 447 3434 972 4092 
Q 1497 4750 2381 4750 
Q 2619 4750 2861 4703 
Q 3103 4656 3366 4563 
z
" transform="scale(0.015625)"/>
       </defs>
       <use xlink:href="#DejaVuSans-19"/>
       <use xlink:href="#DejaVuSans-13" transform="translate(63.625 0)"/>
      </g>
     </g>
    </g>
    <g id="xtick_5">
     <g id="line2d_9">
      <path d="M 394.665239 317.877656 
L 394.665239 50.96 
" clip-path="url(#p2d106c7698)" style="fill: none; stroke: #b0b0b0; stroke-opacity: 0.3; stroke-width: 0.8; stroke-linecap: square"/>
     </g>
     <g id="line2d_10">
      <g>
       <use xlink:href="#m64a3618afe" x="394.665239" y="317.877656" style="stroke: #000000; stroke-width: 0.8"/>
      </g>
     </g>
     <g id="text_5">
      <!-- 80 -->
      <g transform="translate(388.302739 332.475312) scale(0.1 -0.1)">
       <defs>
        <path id="DejaVuSans-1b" d="M 2034 2216 
Q 1584 2216 1326 1975 
Q 1069 1734 1069 1313 
Q 1069 891 1326 650 
Q 1584 409 2034 409 
Q 2484 409 2743 651 
Q 3003 894 3003 1313 
Q 3003 1734 2745 1975 
Q 2488 2216 2034 2216 
z
M 1403 2484 
Q 997 2584 770 2862 
Q 544 3141 544 3541 
Q 544 4100 942 4425 
Q 1341 4750 2034 4750 
Q 2731 4750 3128 4425 
Q 3525 4100 3525 3541 
Q 3525 3141 3298 2862 
Q 3072 2584 2669 2484 
Q 3125 2378 3379 2068 
Q 3634 1759 3634 1313 
Q 3634 634 3220 271 
Q 2806 -91 2034 -91 
Q 1263 -91 848 271 
Q 434 634 434 1313 
Q 434 1759 690 2068 
Q 947 2378 1403 2484 
z
M 1172 3481 
Q 1172 3119 1398 2916 
Q 1625 2713 2034 2713 
Q 2441 2713 2670 2916 
Q 2900 3119 2900 3481 
Q 2900 3844 2670 4047 
Q 2441 4250 2034 4250 
Q 1625 4250 1398 4047 
Q 1172 3844 1172 3481 
z
" transform="scale(0.015625)"/>
       </defs>
       <use xlink:href="#DejaVuSans-1b"/>
       <use xlink:href="#DejaVuSans-13" transform="translate(63.625 0)"/>
      </g>
     </g>
    </g>
    <g id="xtick_6">
     <g id="line2d_11">
      <path d="M 475.701052 317.877656 
L 475.701052 50.96 
" clip-path="url(#p2d106c7698)" style="fill: none; stroke: #b0b0b0; stroke-opacity: 0.3; stroke-width: 0.8; stroke-linecap: square"/>
     </g>
     <g id="line2d_12">
      <g>
       <use xlink:href="#m64a3618afe" x="475.701052" y="317.877656" style="stroke: #000000; stroke-width: 0.8"/>
      </g>
     </g>
     <g id="text_6">
      <!-- 100 -->
      <g transform="translate(466.157302 332.475312) scale(0.1 -0.1)">
       <defs>
        <path id="DejaVuSans-14" d="M 794 531 
L 1825 531 
L 1825 4091 
L 703 3866 
L 703 4441 
L 1819 4666 
L 2450 4666 
L 2450 531 
L 3481 531 
L 3481 0 
L 794 0 
L 794 531 
z
" transform="scale(0.015625)"/>
       </defs>
       <use xlink:href="#DejaVuSans-14"/>
       <use xlink:href="#DejaVuSans-13" transform="translate(63.625 0)"/>
       <use xlink:href="#DejaVuSans-13" transform="translate(127.25 0)"/>
      </g>
     </g>
    </g>
    <g id="text_7">
     <!-- Epoch -->
     <g transform="translate(255.774687 346.476094) scale(0.1 -0.1)">
      <defs>
       <path id="DejaVuSans-28" d="M 628 4666 
L 3578 4666 
L 3578 4134 
L 1259 4134 
L 1259 2753 
L 3481 2753 
L 3481 2222 
L 1259 2222 
L 1259 531 
L 3634 531 
L 3634 0 
L 628 0 
L 628 4666 
z
" transform="scale(0.015625)"/>
       <path id="DejaVuSans-53" d="M 1159 525 
L 1159 -1331 
L 581 -1331 
L 581 3500 
L 1159 3500 
L 1159 2969 
Q 1341 3281 1617 3432 
Q 1894 3584 2278 3584 
Q 2916 3584 3314 3078 
Q 3713 2572 3713 1747 
Q 3713 922 3314 415 
Q 2916 -91 2278 -91 
Q 1894 -91 1617 61 
Q 1341 213 1159 525 
z
M 3116 1747 
Q 3116 2381 2855 2742 
Q 2594 3103 2138 3103 
Q 1681 3103 1420 2742 
Q 1159 2381 1159 1747 
Q 1159 1113 1420 752 
Q 1681 391 2138 391 
Q 2594 391 2855 752 
Q 3116 1113 3116 1747 
z
" transform="scale(0.015625)"/>
       <path id="DejaVuSans-52" d="M 1959 3097 
Q 1497 3097 1228 2736 
Q 959 2375 959 1747 
Q 959 1119 1226 758 
Q 1494 397 1959 397 
Q 2419 397 2687 759 
Q 2956 1122 2956 1747 
Q 2956 2369 2687 2733 
Q 2419 3097 1959 3097 
z
M 1959 3584 
Q 2709 3584 3137 3096 
Q 3566 2609 3566 1747 
Q 3566 888 3137 398 
Q 2709 -91 1959 -91 
Q 1206 -91 779 398 
Q 353 888 353 1747 
Q 353 2609 779 3096 
Q 1206 3584 1959 3584 
z
" transform="scale(0.015625)"/>
       <path id="DejaVuSans-46" d="M 3122 3366 
L 3122 2828 
Q 2878 2963 2633 3030 
Q 2388 3097 2138 3097 
Q 1578 3097 1268 2742 
Q 959 2388 959 1747 
Q 959 1106 1268 751 
Q 1578 397 2138 397 
Q 2388 397 2633 464 
Q 2878 531 3122 666 
L 3122 134 
Q 2881 22 2623 -34 
Q 2366 -91 2075 -91 
Q 1284 -91 818 406 
Q 353 903 353 1747 
Q 353 2603 823 3093 
Q 1294 3584 2113 3584 
Q 2378 3584 2631 3529 
Q 2884 3475 3122 3366 
z
" transform="scale(0.015625)"/>
       <path id="DejaVuSans-4b" d="M 3513 2113 
L 3513 0 
L 2938 0 
L 2938 2094 
Q 2938 2591 2744 2837 
Q 2550 3084 2163 3084 
Q 1697 3084 1428 2787 
Q 1159 2491 1159 1978 
L 1159 0 
L 581 0 
L 581 4863 
L 1159 4863 
L 1159 2956 
Q 1366 3272 1645 3428 
Q 1925 3584 2291 3584 
Q 2894 3584 3203 3211 
Q 3513 2838 3513 2113 
z
" transform="scale(0.015625)"/>
      </defs>
      <use xlink:href="#DejaVuSans-28"/>
      <use xlink:href="#DejaVuSans-53" transform="translate(63.1875 0)"/>
      <use xlink:href="#DejaVuSans-52" transform="translate(126.671875 0)"/>
      <use xlink:href="#DejaVuSans-46" transform="translate(187.859375 0)"/>
      <use xlink:href="#DejaVuSans-4b" transform="translate(242.84375 0)"/>
     </g>
    </g>
   </g>
   <g id="matplotlib.axis_2">
    <g id="ytick_1">
     <g id="line2d_13">
      <path d="M 50.465625 295.531235 
L 491.705625 295.531235 
" clip-path="url(#p2d106c7698)" style="fill: none; stroke: #b0b0b0; stroke-opacity: 0.3; stroke-width: 0.8; stroke-linecap: square"/>
     </g>
     <g id="line2d_14">
      <defs>
       <path id="m8a8f5cf2cb" d="M 0 0 
L -3.5 0 
" style="stroke: #000000; stroke-width: 0.8"/>
      </defs>
      <g>
       <use xlink:href="#m8a8f5cf2cb" x="50.465625" y="295.531235" style="stroke: #000000; stroke-width: 0.8"/>
      </g>
     </g>
     <g id="text_8">
      <!-- 0.01 -->
      <g transform="translate(21.2 299.330063) scale(0.1 -0.1)">
       <defs>
        <path id="DejaVuSans-11" d="M 684 794 
L 1344 794 
L 1344 0 
L 684 0 
L 684 794 
z
" transform="scale(0.015625)"/>
       </defs>
       <use xlink:href="#DejaVuSans-13"/>
       <use xlink:href="#DejaVuSans-11" transform="translate(63.625 0)"/>
       <use xlink:href="#DejaVuSans-13" transform="translate(95.40625 0)"/>
       <use xlink:href="#DejaVuSans-14" transform="translate(159.03125 0)"/>
      </g>
     </g>
    </g>
    <g id="ytick_2">
     <g id="line2d_15">
      <path d="M 50.465625 242.856229 
L 491.705625 242.856229 
" clip-path="url(#p2d106c7698)" style="fill: none; stroke: #b0b0b0; stroke-opacity: 0.3; stroke-width: 0.8; stroke-linecap: square"/>
     </g>
     <g id="line2d_16">
      <g>
       <use xlink:href="#m8a8f5cf2cb" x="50.465625" y="242.856229" style="stroke: #000000; stroke-width: 0.8"/>
      </g>
     </g>
     <g id="text_9">
      <!-- 0.02 -->
      <g transform="translate(21.2 246.655057) scale(0.1 -0.1)">
       <use xlink:href="#DejaVuSans-13"/>
       <use xlink:href="#DejaVuSans-11" transform="translate(63.625 0)"/>
       <use xlink:href="#DejaVuSans-13" transform="translate(95.40625 0)"/>
       <use xlink:href="#DejaVuSans-15" transform="translate(159.03125 0)"/>
      </g>
     </g>
    </g>
    <g id="ytick_3">
     <g id="line2d_17">
      <path d="M 50.465625 190.181223 
L 491.705625 190.181223 
" clip-path="url(#p2d106c7698)" style="fill: none; stroke: #b0b0b0; stroke-opacity: 0.3; stroke-width: 0.8; stroke-linecap: square"/>
     </g>
     <g id="line2d_18">
      <g>
       <use xlink:href="#m8a8f5cf2cb" x="50.465625" y="190.181223" style="stroke: #000000; stroke-width: 0.8"/>
      </g>
     </g>
     <g id="text_10">
      <!-- 0.03 -->
      <g transform="translate(21.2 193.980052) scale(0.1 -0.1)">
       <defs>
        <path id="DejaVuSans-16" d="M 2597 2516 
Q 3050 2419 3304 2112 
Q 3559 1806 3559 1356 
Q 3559 666 3084 287 
Q 2609 -91 1734 -91 
Q 1441 -91 1130 -33 
Q 819 25 488 141 
L 488 750 
Q 750 597 1062 519 
Q 1375 441 1716 441 
Q 2309 441 2620 675 
Q 2931 909 2931 1356 
Q 2931 1769 2642 2001 
Q 2353 2234 1838 2234 
L 1294 2234 
L 1294 2753 
L 1863 2753 
Q 2328 2753 2575 2939 
Q 2822 3125 2822 3475 
Q 2822 3834 2567 4026 
Q 2313 4219 1838 4219 
Q 1578 4219 1281 4162 
Q 984 4106 628 3988 
L 628 4550 
Q 988 4650 1302 4700 
Q 1616 4750 1894 4750 
Q 2613 4750 3031 4423 
Q 3450 4097 3450 3541 
Q 3450 3153 3228 2886 
Q 3006 2619 2597 2516 
z
" transform="scale(0.015625)"/>
       </defs>
       <use xlink:href="#DejaVuSans-13"/>
       <use xlink:href="#DejaVuSans-11" transform="translate(63.625 0)"/>
       <use xlink:href="#DejaVuSans-13" transform="translate(95.40625 0)"/>
       <use xlink:href="#DejaVuSans-16" transform="translate(159.03125 0)"/>
      </g>
     </g>
    </g>
    <g id="ytick_4">
     <g id="line2d_19">
      <path d="M 50.465625 137.506218 
L 491.705625 137.506218 
" clip-path="url(#p2d106c7698)" style="fill: none; stroke: #b0b0b0; stroke-opacity: 0.3; stroke-width: 0.8; stroke-linecap: square"/>
     </g>
     <g id="line2d_20">
      <g>
       <use xlink:href="#m8a8f5cf2cb" x="50.465625" y="137.506218" style="stroke: #000000; stroke-width: 0.8"/>
      </g>
     </g>
     <g id="text_11">
      <!-- 0.04 -->
      <g transform="translate(21.2 141.305046) scale(0.1 -0.1)">
       <use xlink:href="#DejaVuSans-13"/>
       <use xlink:href="#DejaVuSans-11" transform="translate(63.625 0)"/>
       <use xlink:href="#DejaVuSans-13" transform="translate(95.40625 0)"/>
       <use xlink:href="#DejaVuSans-17" transform="translate(159.03125 0)"/>
      </g>
     </g>
    </g>
    <g id="ytick_5">
     <g id="line2d_21">
      <path d="M 50.465625 84.831212 
L 491.705625 84.831212 
" clip-path="url(#p2d106c7698)" style="fill: none; stroke: #b0b0b0; stroke-opacity: 0.3; stroke-width: 0.8; stroke-linecap: square"/>
     </g>
     <g id="line2d_22">
      <g>
       <use xlink:href="#m8a8f5cf2cb" x="50.465625" y="84.831212" style="stroke: #000000; stroke-width: 0.8"/>
      </g>
     </g>
     <g id="text_12">
      <!-- 0.05 -->
      <g transform="translate(21.2 88.63004) scale(0.1 -0.1)">
       <defs>
        <path id="DejaVuSans-18" d="M 691 4666 
L 3169 4666 
L 3169 4134 
L 1269 4134 
L 1269 2991 
Q 1406 3038 1543 3061 
Q 1681 3084 1819 3084 
Q 2600 3084 3056 2656 
Q 3513 2228 3513 1497 
Q 3513 744 3044 326 
Q 2575 -91 1722 -91 
Q 1428 -91 1123 -41 
Q 819 9 494 109 
L 494 744 
Q 775 591 1075 516 
Q 1375 441 1709 441 
Q 2250 441 2565 725 
Q 2881 1009 2881 1497 
Q 2881 1984 2565 2268 
Q 2250 2553 1709 2553 
Q 1456 2553 1204 2497 
Q 953 2441 691 2322 
L 691 4666 
z
" transform="scale(0.015625)"/>
       </defs>
       <use xlink:href="#DejaVuSans-13"/>
       <use xlink:href="#DejaVuSans-11" transform="translate(63.625 0)"/>
       <use xlink:href="#DejaVuSans-13" transform="translate(95.40625 0)"/>
       <use xlink:href="#DejaVuSans-18" transform="translate(159.03125 0)"/>
      </g>
     </g>
    </g>
    <g id="text_13">
     <!-- Loss -->
     <g transform="translate(14.797656 195.386016) rotate(-90) scale(0.1 -0.1)">
      <defs>
       <path id="DejaVuSans-2f" d="M 628 4666 
L 1259 4666 
L 1259 531 
L 3531 531 
L 3531 0 
L 628 0 
L 628 4666 
z
" transform="scale(0.015625)"/>
       <path id="DejaVuSans-56" d="M 2834 3397 
L 2834 2853 
Q 2591 2978 2328 3040 
Q 2066 3103 1784 3103 
Q 1356 3103 1142 2972 
Q 928 2841 928 2578 
Q 928 2378 1081 2264 
Q 1234 2150 1697 2047 
L 1894 2003 
Q 2506 1872 2764 1633 
Q 3022 1394 3022 966 
Q 3022 478 2636 193 
Q 2250 -91 1575 -91 
Q 1294 -91 989 -36 
Q 684 19 347 128 
L 347 722 
Q 666 556 975 473 
Q 1284 391 1588 391 
Q 1994 391 2212 530 
Q 2431 669 2431 922 
Q 2431 1156 2273 1281 
Q 2116 1406 1581 1522 
L 1381 1569 
Q 847 1681 609 1914 
Q 372 2147 372 2553 
Q 372 3047 722 3315 
Q 1072 3584 1716 3584 
Q 2034 3584 2315 3537 
Q 2597 3491 2834 3397 
z
" transform="scale(0.015625)"/>
      </defs>
      <use xlink:href="#DejaVuSans-2f"/>
      <use xlink:href="#DejaVuSans-52" transform="translate(53.96875 0)"/>
      <use xlink:href="#DejaVuSans-56" transform="translate(115.15625 0)"/>
      <use xlink:href="#DejaVuSans-56" transform="translate(167.25 0)"/>
     </g>
    </g>
   </g>
   <g id="line2d_23">
    <path d="M 70.521989 123.659825 
L 74.573779 231.122551 
L 78.62557 265.154884 
L 82.677361 272.424714 
L 86.729151 275.325297 
L 90.780942 277.096055 
L 94.832732 277.851466 
L 98.884523 278.14191 
L 102.936314 278.36095 
L 106.988104 278.390617 
L 111.039895 272.30083 
L 115.091686 277.618134 
L 119.143476 279.244018 
L 123.195267 279.210345 
L 127.247058 265.783876 
L 131.298848 275.617462 
L 135.350639 278.422349 
L 139.402429 279.876864 
L 143.45422 280.75305 
L 147.506011 281.514215 
L 151.557801 280.684911 
L 155.609592 282.395981 
L 159.661383 283.566521 
L 163.713173 283.525194 
L 167.764964 284.165331 
L 171.816754 284.542699 
L 175.868545 284.900456 
L 179.920336 285.455459 
L 183.972126 286.542156 
L 188.023917 286.500097 
L 192.075708 286.838667 
L 196.127498 287.743058 
L 200.179289 288.063026 
L 204.23108 287.520758 
L 208.28287 288.894159 
L 212.334661 289.003549 
L 216.386451 289.077649 
L 220.438242 289.395874 
L 224.490033 289.915321 
L 228.541823 290.381986 
L 232.593614 290.452012 
L 236.645405 290.743616 
L 240.697195 290.754714 
L 244.748986 291.274415 
L 248.800777 291.659375 
L 252.852567 291.828587 
L 256.904358 291.960206 
L 260.956148 292.24967 
L 265.007939 292.40674 
L 269.05973 292.6707 
L 273.11152 292.75142 
L 277.163311 292.865477 
L 281.215102 293.034226 
L 285.266892 293.14419 
L 289.318683 293.311739 
L 293.370473 293.623647 
L 297.422264 293.651535 
L 301.474055 293.825112 
L 305.525845 293.924837 
L 309.577636 294.079772 
L 313.629427 294.145756 
L 317.681217 294.233913 
L 321.733008 294.453721 
L 325.784799 294.530537 
L 329.836589 294.601967 
L 333.88838 294.684207 
L 337.94017 294.79532 
L 341.991961 294.932054 
L 346.043752 295.017793 
L 350.095542 295.165653 
L 354.147333 295.158962 
L 358.199124 295.280333 
L 362.250914 295.328049 
L 366.302705 295.482728 
L 370.354496 295.49887 
L 374.406286 295.585668 
L 378.458077 295.692233 
L 382.509867 295.691706 
L 386.561658 295.742606 
L 390.613449 295.795235 
L 394.665239 295.905707 
L 398.71703 295.918355 
L 402.768821 296.022893 
L 406.820611 296.108062 
L 410.872402 296.139901 
L 414.924192 296.147681 
L 418.975983 296.27623 
L 423.027774 296.297796 
L 427.079564 296.296936 
L 431.131355 296.413597 
L 435.183146 296.454549 
L 439.234936 296.471697 
L 443.286727 296.485019 
L 447.338518 296.49217 
L 451.390308 296.53553 
L 455.442099 296.55818 
L 459.493889 296.486778 
L 463.54568 296.586434 
L 467.597471 296.556141 
L 471.649261 296.568997 
" clip-path="url(#p2d106c7698)" style="fill: none; stroke: #4682b4; stroke-width: 2; stroke-linecap: square"/>
   </g>
   <g id="line2d_24">
    <path d="M 70.521989 131.891102 
L 74.573779 178.92386 
L 78.62557 197.258524 
L 82.677361 203.686427 
L 86.729151 206.113399 
L 90.780942 208.718276 
L 94.832732 206.723825 
L 98.884523 205.226161 
L 102.936314 204.391967 
L 106.988104 208.192092 
L 111.039895 197.902447 
L 115.091686 199.27299 
L 119.143476 201.85735 
L 123.195267 195.232023 
L 127.247058 182.85613 
L 131.298848 170.041689 
L 135.350639 181.933577 
L 139.402429 189.771659 
L 143.45422 193.836448 
L 147.506011 192.79138 
L 151.557801 190.584607 
L 155.609592 182.868174 
L 159.661383 177.596956 
L 163.713173 173.054001 
L 167.764964 187.530182 
L 171.816754 186.803162 
L 175.868545 182.141071 
L 179.920336 193.899918 
L 183.972126 176.214332 
L 188.023917 186.923766 
L 192.075708 185.008566 
L 196.127498 181.056401 
L 200.179289 183.667567 
L 204.23108 186.741436 
L 208.28287 188.020073 
L 212.334661 182.23375 
L 216.386451 189.445384 
L 220.438242 189.655054 
L 224.490033 174.182615 
L 228.541823 181.283339 
L 232.593614 182.735195 
L 236.645405 183.895662 
L 240.697195 183.519661 
L 244.748986 190.427139 
L 248.800777 193.051741 
L 252.852567 186.908274 
L 256.904358 189.449001 
L 260.956148 191.002772 
L 265.007939 186.489032 
L 269.05973 186.530299 
L 273.11152 185.978129 
L 277.163311 185.243938 
L 281.215102 186.75763 
L 285.266892 183.599798 
L 289.318683 186.210119 
L 293.370473 184.89076 
L 297.422264 186.812965 
L 301.474055 189.358846 
L 305.525845 186.915886 
L 309.577636 185.627672 
L 313.629427 186.372806 
L 317.681217 183.000688 
L 321.733008 184.710693 
L 325.784799 186.061575 
L 329.836589 186.952801 
L 333.88838 185.216836 
L 337.94017 187.238177 
L 341.991961 188.051547 
L 346.043752 188.623902 
L 350.095542 186.573302 
L 354.147333 186.664536 
L 358.199124 187.686633 
L 362.250914 186.868802 
L 366.302705 188.985872 
L 370.354496 187.513313 
L 374.406286 186.697153 
L 378.458077 187.132048 
L 382.509867 187.005435 
L 386.561658 185.353996 
L 390.613449 186.822786 
L 394.665239 187.016944 
L 398.71703 187.208011 
L 402.768821 186.487385 
L 406.820611 185.65366 
L 410.872402 186.369673 
L 414.924192 186.382193 
L 418.975983 186.60165 
L 423.027774 186.721858 
L 427.079564 186.842792 
L 431.131355 186.09504 
L 435.183146 185.868839 
L 439.234936 185.555721 
L 443.286727 185.517468 
L 447.338518 186.053532 
L 451.390308 185.103585 
L 455.442099 185.581112 
L 459.493889 185.741117 
L 463.54568 185.976511 
L 467.597471 185.684129 
L 471.649261 185.554076 
" clip-path="url(#p2d106c7698)" style="fill: none; stroke: #ff4500; stroke-width: 2; stroke-linecap: square"/>
   </g>
   <g id="line2d_25">
    <path d="M 90.780942 317.877656 
L 90.780942 50.96 
" clip-path="url(#p2d106c7698)" style="fill: none; stroke-dasharray: 1.5,2.475; stroke-dashoffset: 0; stroke: #ff4500; stroke-width: 1.5"/>
   </g>
   <g id="patch_3">
    <path d="M 50.465625 317.877656 
L 50.465625 50.96 
" style="fill: none; stroke: #000000; stroke-width: 0.8; stroke-linejoin: miter; stroke-linecap: square"/>
   </g>
   <g id="patch_4">
    <path d="M 491.705625 317.877656 
L 491.705625 50.96 
" style="fill: none; stroke: #000000; stroke-width: 0.8; stroke-linejoin: miter; stroke-linecap: square"/>
   </g>
   <g id="patch_5">
    <path d="M 50.465625 317.877656 
L 491.705625 317.877656 
" style="fill: none; stroke: #000000; stroke-width: 0.8; stroke-linejoin: miter; stroke-linecap: square"/>
   </g>
   <g id="patch_6">
    <path d="M 50.465625 50.96 
L 491.705625 50.96 
" style="fill: none; stroke: #000000; stroke-width: 0.8; stroke-linejoin: miter; stroke-linecap: square"/>
   </g>
   <g id="text_14">
    <!-- Per-epoch Loss ± Batch Std -->
    <g transform="translate(188.434687 44.96) scale(0.12 -0.12)">
     <defs>
      <path id="DejaVuSans-33" d="M 1259 4147 
L 1259 2394 
L 2053 2394 
Q 2494 2394 2734 2622 
Q 2975 2850 2975 3272 
Q 2975 3691 2734 3919 
Q 2494 4147 2053 4147 
L 1259 4147 
z
M 628 4666 
L 2053 4666 
Q 2838 4666 3239 4311 
Q 3641 3956 3641 3272 
Q 3641 2581 3239 2228 
Q 2838 1875 2053 1875 
L 1259 1875 
L 1259 0 
L 628 0 
L 628 4666 
z
" transform="scale(0.015625)"/>
      <path id="DejaVuSans-48" d="M 3597 1894 
L 3597 1613 
L 953 1613 
Q 991 1019 1311 708 
Q 1631 397 2203 397 
Q 2534 397 2845 478 
Q 3156 559 3463 722 
L 3463 178 
Q 3153 47 2828 -22 
Q 2503 -91 2169 -91 
Q 1331 -91 842 396 
Q 353 884 353 1716 
Q 353 2575 817 3079 
Q 1281 3584 2069 3584 
Q 2775 3584 3186 3129 
Q 3597 2675 3597 1894 
z
M 3022 2063 
Q 3016 2534 2758 2815 
Q 2500 3097 2075 3097 
Q 1594 3097 1305 2825 
Q 1016 2553 972 2059 
L 3022 2063 
z
" transform="scale(0.015625)"/>
      <path id="DejaVuSans-55" d="M 2631 2963 
Q 2534 3019 2420 3045 
Q 2306 3072 2169 3072 
Q 1681 3072 1420 2755 
Q 1159 2438 1159 1844 
L 1159 0 
L 581 0 
L 581 3500 
L 1159 3500 
L 1159 2956 
Q 1341 3275 1631 3429 
Q 1922 3584 2338 3584 
Q 2397 3584 2469 3576 
Q 2541 3569 2628 3553 
L 2631 2963 
z
" transform="scale(0.015625)"/>
      <path id="DejaVuSans-10" d="M 313 2009 
L 1997 2009 
L 1997 1497 
L 313 1497 
L 313 2009 
z
" transform="scale(0.015625)"/>
      <path id="DejaVuSans-3" transform="scale(0.015625)"/>
      <path id="DejaVuSans-73" d="M 2944 4013 
L 2944 2803 
L 4684 2803 
L 4684 2272 
L 2944 2272 
L 2944 1063 
L 2419 1063 
L 2419 2272 
L 678 2272 
L 678 2803 
L 2419 2803 
L 2419 4013 
L 2944 4013 
z
M 678 531 
L 4684 531 
L 4684 0 
L 678 0 
L 678 531 
z
" transform="scale(0.015625)"/>
      <path id="DejaVuSans-25" d="M 1259 2228 
L 1259 519 
L 2272 519 
Q 2781 519 3026 730 
Q 3272 941 3272 1375 
Q 3272 1813 3026 2020 
Q 2781 2228 2272 2228 
L 1259 2228 
z
M 1259 4147 
L 1259 2741 
L 2194 2741 
Q 2656 2741 2882 2914 
Q 3109 3088 3109 3444 
Q 3109 3797 2882 3972 
Q 2656 4147 2194 4147 
L 1259 4147 
z
M 628 4666 
L 2241 4666 
Q 2963 4666 3353 4366 
Q 3744 4066 3744 3513 
Q 3744 3084 3544 2831 
Q 3344 2578 2956 2516 
Q 3422 2416 3680 2098 
Q 3938 1781 3938 1306 
Q 3938 681 3513 340 
Q 3088 0 2303 0 
L 628 0 
L 628 4666 
z
" transform="scale(0.015625)"/>
      <path id="DejaVuSans-44" d="M 2194 1759 
Q 1497 1759 1228 1600 
Q 959 1441 959 1056 
Q 959 750 1161 570 
Q 1363 391 1709 391 
Q 2188 391 2477 730 
Q 2766 1069 2766 1631 
L 2766 1759 
L 2194 1759 
z
M 3341 1997 
L 3341 0 
L 2766 0 
L 2766 531 
Q 2569 213 2275 61 
Q 1981 -91 1556 -91 
Q 1019 -91 701 211 
Q 384 513 384 1019 
Q 384 1609 779 1909 
Q 1175 2209 1959 2209 
L 2766 2209 
L 2766 2266 
Q 2766 2663 2505 2880 
Q 2244 3097 1772 3097 
Q 1472 3097 1187 3025 
Q 903 2953 641 2809 
L 641 3341 
Q 956 3463 1253 3523 
Q 1550 3584 1831 3584 
Q 2591 3584 2966 3190 
Q 3341 2797 3341 1997 
z
" transform="scale(0.015625)"/>
      <path id="DejaVuSans-57" d="M 1172 4494 
L 1172 3500 
L 2356 3500 
L 2356 3053 
L 1172 3053 
L 1172 1153 
Q 1172 725 1289 603 
Q 1406 481 1766 481 
L 2356 481 
L 2356 0 
L 1766 0 
Q 1100 0 847 248 
Q 594 497 594 1153 
L 594 3053 
L 172 3053 
L 172 3500 
L 594 3500 
L 594 4494 
L 1172 4494 
z
" transform="scale(0.015625)"/>
      <path id="DejaVuSans-36" d="M 3425 4513 
L 3425 3897 
Q 3066 4069 2747 4153 
Q 2428 4238 2131 4238 
Q 1616 4238 1336 4038 
Q 1056 3838 1056 3469 
Q 1056 3159 1242 3001 
Q 1428 2844 1947 2747 
L 2328 2669 
Q 3034 2534 3370 2195 
Q 3706 1856 3706 1288 
Q 3706 609 3251 259 
Q 2797 -91 1919 -91 
Q 1588 -91 1214 -16 
Q 841 59 441 206 
L 441 856 
Q 825 641 1194 531 
Q 1563 422 1919 422 
Q 2459 422 2753 634 
Q 3047 847 3047 1241 
Q 3047 1584 2836 1778 
Q 2625 1972 2144 2069 
L 1759 2144 
Q 1053 2284 737 2584 
Q 422 2884 422 3419 
Q 422 4038 858 4394 
Q 1294 4750 2059 4750 
Q 2388 4750 2728 4690 
Q 3069 4631 3425 4513 
z
" transform="scale(0.015625)"/>
      <path id="DejaVuSans-47" d="M 2906 2969 
L 2906 4863 
L 3481 4863 
L 3481 0 
L 2906 0 
L 2906 525 
Q 2725 213 2448 61 
Q 2172 -91 1784 -91 
Q 1150 -91 751 415 
Q 353 922 353 1747 
Q 353 2572 751 3078 
Q 1150 3584 1784 3584 
Q 2172 3584 2448 3432 
Q 2725 3281 2906 2969 
z
M 947 1747 
Q 947 1113 1208 752 
Q 1469 391 1925 391 
Q 2381 391 2643 752 
Q 2906 1113 2906 1747 
Q 2906 2381 2643 2742 
Q 2381 3103 1925 3103 
Q 1469 3103 1208 2742 
Q 947 2381 947 1747 
z
" transform="scale(0.015625)"/>
     </defs>
     <use xlink:href="#DejaVuSans-33"/>
     <use xlink:href="#DejaVuSans-48" transform="translate(56.734375 0)"/>
     <use xlink:href="#DejaVuSans-55" transform="translate(118.265625 0)"/>
     <use xlink:href="#DejaVuSans-10" transform="translate(152.984375 0)"/>
     <use xlink:href="#DejaVuSans-48" transform="translate(189.0625 0)"/>
     <use xlink:href="#DejaVuSans-53" transform="translate(250.59375 0)"/>
     <use xlink:href="#DejaVuSans-52" transform="translate(314.078125 0)"/>
     <use xlink:href="#DejaVuSans-46" transform="translate(375.265625 0)"/>
     <use xlink:href="#DejaVuSans-4b" transform="translate(430.25 0)"/>
     <use xlink:href="#DejaVuSans-3" transform="translate(493.625 0)"/>
     <use xlink:href="#DejaVuSans-2f" transform="translate(525.40625 0)"/>
     <use xlink:href="#DejaVuSans-52" transform="translate(579.375 0)"/>
     <use xlink:href="#DejaVuSans-56" transform="translate(640.5625 0)"/>
     <use xlink:href="#DejaVuSans-56" transform="translate(692.65625 0)"/>
     <use xlink:href="#DejaVuSans-3" transform="translate(744.75 0)"/>
     <use xlink:href="#DejaVuSans-73" transform="translate(776.53125 0)"/>
     <use xlink:href="#DejaVuSans-3" transform="translate(860.328125 0)"/>
     <use xlink:href="#DejaVuSans-25" transform="translate(892.109375 0)"/>
     <use xlink:href="#DejaVuSans-44" transform="translate(960.71875 0)"/>
     <use xlink:href="#DejaVuSans-57" transform="translate(1022 0)"/>
     <use xlink:href="#DejaVuSans-46" transform="translate(1061.203125 0)"/>
     <use xlink:href="#DejaVuSans-4b" transform="translate(1116.1875 0)"/>
     <use xlink:href="#DejaVuSans-3" transform="translate(1179.5625 0)"/>
     <use xlink:href="#DejaVuSans-36" transform="translate(1211.34375 0)"/>
     <use xlink:href="#DejaVuSans-57" transform="translate(1274.828125 0)"/>
     <use xlink:href="#DejaVuSans-47" transform="translate(1314.03125 0)"/>
    </g>
   </g>
   <g id="legend_1">
    <g id="patch_7">
     <path d="M 366.379219 98.662109 
L 485.405625 98.662109 
Q 487.205625 98.662109 487.205625 96.862109 
L 487.205625 57.26 
Q 487.205625 55.46 485.405625 55.46 
L 366.379219 55.46 
Q 364.579219 55.46 364.579219 57.26 
L 364.579219 96.862109 
Q 364.579219 98.662109 366.379219 98.662109 
z
" style="fill: #ffffff; opacity: 0.8; stroke: #cccccc; stroke-linejoin: miter"/>
    </g>
    <g id="line2d_26">
     <path d="M 368.179219 62.748594 
L 377.179219 62.748594 
L 386.179219 62.748594 
" style="fill: none; stroke: #4682b4; stroke-width: 2; stroke-linecap: square"/>
    </g>
    <g id="text_15">
     <!-- Train -->
     <g transform="translate(393.379219 65.898594) scale(0.09 -0.09)">
      <defs>
       <path id="DejaVuSans-37" d="M -19 4666 
L 3928 4666 
L 3928 4134 
L 2272 4134 
L 2272 0 
L 1638 0 
L 1638 4134 
L -19 4134 
L -19 4666 
z
" transform="scale(0.015625)"/>
       <path id="DejaVuSans-4c" d="M 603 3500 
L 1178 3500 
L 1178 0 
L 603 0 
L 603 3500 
z
M 603 4863 
L 1178 4863 
L 1178 4134 
L 603 4134 
L 603 4863 
z
" transform="scale(0.015625)"/>
       <path id="DejaVuSans-51" d="M 3513 2113 
L 3513 0 
L 2938 0 
L 2938 2094 
Q 2938 2591 2744 2837 
Q 2550 3084 2163 3084 
Q 1697 3084 1428 2787 
Q 1159 2491 1159 1978 
L 1159 0 
L 581 0 
L 581 3500 
L 1159 3500 
L 1159 2956 
Q 1366 3272 1645 3428 
Q 1925 3584 2291 3584 
Q 2894 3584 3203 3211 
Q 3513 2838 3513 2113 
z
" transform="scale(0.015625)"/>
      </defs>
      <use xlink:href="#DejaVuSans-37"/>
      <use xlink:href="#DejaVuSans-55" transform="translate(46.375 0)"/>
      <use xlink:href="#DejaVuSans-44" transform="translate(87.484375 0)"/>
      <use xlink:href="#DejaVuSans-4c" transform="translate(148.765625 0)"/>
      <use xlink:href="#DejaVuSans-51" transform="translate(176.546875 0)"/>
     </g>
    </g>
    <g id="line2d_27">
     <path d="M 368.179219 76.249297 
L 377.179219 76.249297 
L 386.179219 76.249297 
" style="fill: none; stroke: #ff4500; stroke-width: 2; stroke-linecap: square"/>
    </g>
    <g id="text_16">
     <!-- Valid -->
     <g transform="translate(393.379219 79.399297) scale(0.09 -0.09)">
      <defs>
       <path id="DejaVuSans-39" d="M 1831 0 
L 50 4666 
L 709 4666 
L 2188 738 
L 3669 4666 
L 4325 4666 
L 2547 0 
L 1831 0 
z
" transform="scale(0.015625)"/>
       <path id="DejaVuSans-4f" d="M 603 4863 
L 1178 4863 
L 1178 0 
L 603 0 
L 603 4863 
z
" transform="scale(0.015625)"/>
      </defs>
      <use xlink:href="#DejaVuSans-39"/>
      <use xlink:href="#DejaVuSans-44" transform="translate(60.640625 0)"/>
      <use xlink:href="#DejaVuSans-4f" transform="translate(121.921875 0)"/>
      <use xlink:href="#DejaVuSans-4c" transform="translate(149.703125 0)"/>
      <use xlink:href="#DejaVuSans-47" transform="translate(177.484375 0)"/>
     </g>
    </g>
    <g id="line2d_28">
     <path d="M 368.179219 89.75 
L 377.179219 89.75 
L 386.179219 89.75 
" style="fill: none; stroke-dasharray: 1.5,2.475; stroke-dashoffset: 0; stroke: #ff4500; stroke-width: 1.5"/>
    </g>
    <g id="text_17">
     <!-- Best valid epoch (5) -->
     <g transform="translate(393.379219 92.9) scale(0.09 -0.09)">
      <defs>
       <path id="DejaVuSans-59" d="M 191 3500 
L 800 3500 
L 1894 563 
L 2988 3500 
L 3597 3500 
L 2284 0 
L 1503 0 
L 191 3500 
z
" transform="scale(0.015625)"/>
       <path id="DejaVuSans-b" d="M 1984 4856 
Q 1566 4138 1362 3434 
Q 1159 2731 1159 2009 
Q 1159 1288 1364 580 
Q 1569 -128 1984 -844 
L 1484 -844 
Q 1016 -109 783 600 
Q 550 1309 550 2009 
Q 550 2706 781 3412 
Q 1013 4119 1484 4856 
L 1984 4856 
z
" transform="scale(0.015625)"/>
       <path id="DejaVuSans-c" d="M 513 4856 
L 1013 4856 
Q 1481 4119 1714 3412 
Q 1947 2706 1947 2009 
Q 1947 1309 1714 600 
Q 1481 -109 1013 -844 
L 513 -844 
Q 928 -128 1133 580 
Q 1338 1288 1338 2009 
Q 1338 2731 1133 3434 
Q 928 4138 513 4856 
z
" transform="scale(0.015625)"/>
      </defs>
      <use xlink:href="#DejaVuSans-25"/>
      <use xlink:href="#DejaVuSans-48" transform="translate(68.609375 0)"/>
      <use xlink:href="#DejaVuSans-56" transform="translate(130.140625 0)"/>
      <use xlink:href="#DejaVuSans-57" transform="translate(182.234375 0)"/>
      <use xlink:href="#DejaVuSans-3" transform="translate(221.4375 0)"/>
      <use xlink:href="#DejaVuSans-59" transform="translate(253.21875 0)"/>
      <use xlink:href="#DejaVuSans-44" transform="translate(312.40625 0)"/>
      <use xlink:href="#DejaVuSans-4f" transform="translate(373.6875 0)"/>
      <use xlink:href="#DejaVuSans-4c" transform="translate(401.46875 0)"/>
      <use xlink:href="#DejaVuSans-47" transform="translate(429.25 0)"/>
      <use xlink:href="#DejaVuSans-3" transform="translate(492.734375 0)"/>
      <use xlink:href="#DejaVuSans-48" transform="translate(524.515625 0)"/>
      <use xlink:href="#DejaVuSans-53" transform="translate(586.046875 0)"/>
      <use xlink:href="#DejaVuSans-52" transform="translate(649.53125 0)"/>
      <use xlink:href="#DejaVuSans-46" transform="translate(710.71875 0)"/>
      <use xlink:href="#DejaVuSans-4b" transform="translate(765.703125 0)"/>
      <use xlink:href="#DejaVuSans-3" transform="translate(829.078125 0)"/>
      <use xlink:href="#DejaVuSans-b" transform="translate(860.859375 0)"/>
      <use xlink:href="#DejaVuSans-18" transform="translate(899.875 0)"/>
      <use xlink:href="#DejaVuSans-c" transform="translate(963.5 0)"/>
     </g>
    </g>
   </g>
  </g>
  <g id="axes_2">
   <g id="patch_8">
    <path d="M 552.305625 317.877656 
L 993.545625 317.877656 
L 993.545625 50.96 
L 552.305625 50.96 
z
" style="fill: #ffffff"/>
   </g>
   <g id="matplotlib.axis_3">
    <g id="xtick_7">
     <g id="line2d_29">
      <path d="M 572.361989 317.877656 
L 572.361989 50.96 
" clip-path="url(#p7badb82bd1)" style="fill: none; stroke: #b0b0b0; stroke-opacity: 0.3; stroke-width: 0.8; stroke-linecap: square"/>
     </g>
     <g id="line2d_30">
      <g>
       <use xlink:href="#m64a3618afe" x="572.361989" y="317.877656" style="stroke: #000000; stroke-width: 0.8"/>
      </g>
     </g>
     <g id="text_18">
      <!-- 0 -->
      <g transform="translate(569.180739 332.475312) scale(0.1 -0.1)">
       <use xlink:href="#DejaVuSans-13"/>
      </g>
     </g>
    </g>
    <g id="xtick_8">
     <g id="line2d_31">
      <path d="M 653.397801 317.877656 
L 653.397801 50.96 
" clip-path="url(#p7badb82bd1)" style="fill: none; stroke: #b0b0b0; stroke-opacity: 0.3; stroke-width: 0.8; stroke-linecap: square"/>
     </g>
     <g id="line2d_32">
      <g>
       <use xlink:href="#m64a3618afe" x="653.397801" y="317.877656" style="stroke: #000000; stroke-width: 0.8"/>
      </g>
     </g>
     <g id="text_19">
      <!-- 20 -->
      <g transform="translate(647.035301 332.475312) scale(0.1 -0.1)">
       <use xlink:href="#DejaVuSans-15"/>
       <use xlink:href="#DejaVuSans-13" transform="translate(63.625 0)"/>
      </g>
     </g>
    </g>
    <g id="xtick_9">
     <g id="line2d_33">
      <path d="M 734.433614 317.877656 
L 734.433614 50.96 
" clip-path="url(#p7badb82bd1)" style="fill: none; stroke: #b0b0b0; stroke-opacity: 0.3; stroke-width: 0.8; stroke-linecap: square"/>
     </g>
     <g id="line2d_34">
      <g>
       <use xlink:href="#m64a3618afe" x="734.433614" y="317.877656" style="stroke: #000000; stroke-width: 0.8"/>
      </g>
     </g>
     <g id="text_20">
      <!-- 40 -->
      <g transform="translate(728.071114 332.475312) scale(0.1 -0.1)">
       <use xlink:href="#DejaVuSans-17"/>
       <use xlink:href="#DejaVuSans-13" transform="translate(63.625 0)"/>
      </g>
     </g>
    </g>
    <g id="xtick_10">
     <g id="line2d_35">
      <path d="M 815.469427 317.877656 
L 815.469427 50.96 
" clip-path="url(#p7badb82bd1)" style="fill: none; stroke: #b0b0b0; stroke-opacity: 0.3; stroke-width: 0.8; stroke-linecap: square"/>
     </g>
     <g id="line2d_36">
      <g>
       <use xlink:href="#m64a3618afe" x="815.469427" y="317.877656" style="stroke: #000000; stroke-width: 0.8"/>
      </g>
     </g>
     <g id="text_21">
      <!-- 60 -->
      <g transform="translate(809.106927 332.475312) scale(0.1 -0.1)">
       <use xlink:href="#DejaVuSans-19"/>
       <use xlink:href="#DejaVuSans-13" transform="translate(63.625 0)"/>
      </g>
     </g>
    </g>
    <g id="xtick_11">
     <g id="line2d_37">
      <path d="M 896.505239 317.877656 
L 896.505239 50.96 
" clip-path="url(#p7badb82bd1)" style="fill: none; stroke: #b0b0b0; stroke-opacity: 0.3; stroke-width: 0.8; stroke-linecap: square"/>
     </g>
     <g id="line2d_38">
      <g>
       <use xlink:href="#m64a3618afe" x="896.505239" y="317.877656" style="stroke: #000000; stroke-width: 0.8"/>
      </g>
     </g>
     <g id="text_22">
      <!-- 80 -->
      <g transform="translate(890.142739 332.475312) scale(0.1 -0.1)">
       <use xlink:href="#DejaVuSans-1b"/>
       <use xlink:href="#DejaVuSans-13" transform="translate(63.625 0)"/>
      </g>
     </g>
    </g>
    <g id="xtick_12">
     <g id="line2d_39">
      <path d="M 977.541052 317.877656 
L 977.541052 50.96 
" clip-path="url(#p7badb82bd1)" style="fill: none; stroke: #b0b0b0; stroke-opacity: 0.3; stroke-width: 0.8; stroke-linecap: square"/>
     </g>
     <g id="line2d_40">
      <g>
       <use xlink:href="#m64a3618afe" x="977.541052" y="317.877656" style="stroke: #000000; stroke-width: 0.8"/>
      </g>
     </g>
     <g id="text_23">
      <!-- 100 -->
      <g transform="translate(967.997302 332.475312) scale(0.1 -0.1)">
       <use xlink:href="#DejaVuSans-14"/>
       <use xlink:href="#DejaVuSans-13" transform="translate(63.625 0)"/>
       <use xlink:href="#DejaVuSans-13" transform="translate(127.25 0)"/>
      </g>
     </g>
    </g>
    <g id="text_24">
     <!-- Epoch -->
     <g transform="translate(757.614688 346.476094) scale(0.1 -0.1)">
      <use xlink:href="#DejaVuSans-28"/>
      <use xlink:href="#DejaVuSans-53" transform="translate(63.1875 0)"/>
      <use xlink:href="#DejaVuSans-52" transform="translate(126.671875 0)"/>
      <use xlink:href="#DejaVuSans-46" transform="translate(187.859375 0)"/>
      <use xlink:href="#DejaVuSans-4b" transform="translate(242.84375 0)"/>
     </g>
    </g>
   </g>
   <g id="matplotlib.axis_4">
    <g id="ytick_6">
     <g id="line2d_41">
      <path d="M 552.305625 304.26437 
L 993.545625 304.26437 
" clip-path="url(#p7badb82bd1)" style="fill: none; stroke: #b0b0b0; stroke-opacity: 0.3; stroke-width: 0.8; stroke-linecap: square"/>
     </g>
     <g id="line2d_42">
      <g>
       <use xlink:href="#m8a8f5cf2cb" x="552.305625" y="304.26437" style="stroke: #000000; stroke-width: 0.8"/>
      </g>
     </g>
     <g id="text_25">
      <!-- 0.010 -->
      <g transform="translate(516.6775 308.063198) scale(0.1 -0.1)">
       <use xlink:href="#DejaVuSans-13"/>
       <use xlink:href="#DejaVuSans-11" transform="translate(63.625 0)"/>
       <use xlink:href="#DejaVuSans-13" transform="translate(95.40625 0)"/>
       <use xlink:href="#DejaVuSans-14" transform="translate(159.03125 0)"/>
       <use xlink:href="#DejaVuSans-13" transform="translate(222.65625 0)"/>
      </g>
     </g>
    </g>
    <g id="ytick_7">
     <g id="line2d_43">
      <path d="M 552.305625 267.307312 
L 993.545625 267.307312 
" clip-path="url(#p7badb82bd1)" style="fill: none; stroke: #b0b0b0; stroke-opacity: 0.3; stroke-width: 0.8; stroke-linecap: square"/>
     </g>
     <g id="line2d_44">
      <g>
       <use xlink:href="#m8a8f5cf2cb" x="552.305625" y="267.307312" style="stroke: #000000; stroke-width: 0.8"/>
      </g>
     </g>
     <g id="text_26">
      <!-- 0.015 -->
      <g transform="translate(516.6775 271.10614) scale(0.1 -0.1)">
       <use xlink:href="#DejaVuSans-13"/>
       <use xlink:href="#DejaVuSans-11" transform="translate(63.625 0)"/>
       <use xlink:href="#DejaVuSans-13" transform="translate(95.40625 0)"/>
       <use xlink:href="#DejaVuSans-14" transform="translate(159.03125 0)"/>
       <use xlink:href="#DejaVuSans-18" transform="translate(222.65625 0)"/>
      </g>
     </g>
    </g>
    <g id="ytick_8">
     <g id="line2d_45">
      <path d="M 552.305625 230.350254 
L 993.545625 230.350254 
" clip-path="url(#p7badb82bd1)" style="fill: none; stroke: #b0b0b0; stroke-opacity: 0.3; stroke-width: 0.8; stroke-linecap: square"/>
     </g>
     <g id="line2d_46">
      <g>
       <use xlink:href="#m8a8f5cf2cb" x="552.305625" y="230.350254" style="stroke: #000000; stroke-width: 0.8"/>
      </g>
     </g>
     <g id="text_27">
      <!-- 0.020 -->
      <g transform="translate(516.6775 234.149082) scale(0.1 -0.1)">
       <use xlink:href="#DejaVuSans-13"/>
       <use xlink:href="#DejaVuSans-11" transform="translate(63.625 0)"/>
       <use xlink:href="#DejaVuSans-13" transform="translate(95.40625 0)"/>
       <use xlink:href="#DejaVuSans-15" transform="translate(159.03125 0)"/>
       <use xlink:href="#DejaVuSans-13" transform="translate(222.65625 0)"/>
      </g>
     </g>
    </g>
    <g id="ytick_9">
     <g id="line2d_47">
      <path d="M 552.305625 193.393196 
L 993.545625 193.393196 
" clip-path="url(#p7badb82bd1)" style="fill: none; stroke: #b0b0b0; stroke-opacity: 0.3; stroke-width: 0.8; stroke-linecap: square"/>
     </g>
     <g id="line2d_48">
      <g>
       <use xlink:href="#m8a8f5cf2cb" x="552.305625" y="193.393196" style="stroke: #000000; stroke-width: 0.8"/>
      </g>
     </g>
     <g id="text_28">
      <!-- 0.025 -->
      <g transform="translate(516.6775 197.192024) scale(0.1 -0.1)">
       <use xlink:href="#DejaVuSans-13"/>
       <use xlink:href="#DejaVuSans-11" transform="translate(63.625 0)"/>
       <use xlink:href="#DejaVuSans-13" transform="translate(95.40625 0)"/>
       <use xlink:href="#DejaVuSans-15" transform="translate(159.03125 0)"/>
       <use xlink:href="#DejaVuSans-18" transform="translate(222.65625 0)"/>
      </g>
     </g>
    </g>
    <g id="ytick_10">
     <g id="line2d_49">
      <path d="M 552.305625 156.436138 
L 993.545625 156.436138 
" clip-path="url(#p7badb82bd1)" style="fill: none; stroke: #b0b0b0; stroke-opacity: 0.3; stroke-width: 0.8; stroke-linecap: square"/>
     </g>
     <g id="line2d_50">
      <g>
       <use xlink:href="#m8a8f5cf2cb" x="552.305625" y="156.436138" style="stroke: #000000; stroke-width: 0.8"/>
      </g>
     </g>
     <g id="text_29">
      <!-- 0.030 -->
      <g transform="translate(516.6775 160.234967) scale(0.1 -0.1)">
       <use xlink:href="#DejaVuSans-13"/>
       <use xlink:href="#DejaVuSans-11" transform="translate(63.625 0)"/>
       <use xlink:href="#DejaVuSans-13" transform="translate(95.40625 0)"/>
       <use xlink:href="#DejaVuSans-16" transform="translate(159.03125 0)"/>
       <use xlink:href="#DejaVuSans-13" transform="translate(222.65625 0)"/>
      </g>
     </g>
    </g>
    <g id="ytick_11">
     <g id="line2d_51">
      <path d="M 552.305625 119.479081 
L 993.545625 119.479081 
" clip-path="url(#p7badb82bd1)" style="fill: none; stroke: #b0b0b0; stroke-opacity: 0.3; stroke-width: 0.8; stroke-linecap: square"/>
     </g>
     <g id="line2d_52">
      <g>
       <use xlink:href="#m8a8f5cf2cb" x="552.305625" y="119.479081" style="stroke: #000000; stroke-width: 0.8"/>
      </g>
     </g>
     <g id="text_30">
      <!-- 0.035 -->
      <g transform="translate(516.6775 123.277909) scale(0.1 -0.1)">
       <use xlink:href="#DejaVuSans-13"/>
       <use xlink:href="#DejaVuSans-11" transform="translate(63.625 0)"/>
       <use xlink:href="#DejaVuSans-13" transform="translate(95.40625 0)"/>
       <use xlink:href="#DejaVuSans-16" transform="translate(159.03125 0)"/>
       <use xlink:href="#DejaVuSans-18" transform="translate(222.65625 0)"/>
      </g>
     </g>
    </g>
    <g id="ytick_12">
     <g id="line2d_53">
      <path d="M 552.305625 82.522023 
L 993.545625 82.522023 
" clip-path="url(#p7badb82bd1)" style="fill: none; stroke: #b0b0b0; stroke-opacity: 0.3; stroke-width: 0.8; stroke-linecap: square"/>
     </g>
     <g id="line2d_54">
      <g>
       <use xlink:href="#m8a8f5cf2cb" x="552.305625" y="82.522023" style="stroke: #000000; stroke-width: 0.8"/>
      </g>
     </g>
     <g id="text_31">
      <!-- 0.040 -->
      <g transform="translate(516.6775 86.320851) scale(0.1 -0.1)">
       <use xlink:href="#DejaVuSans-13"/>
       <use xlink:href="#DejaVuSans-11" transform="translate(63.625 0)"/>
       <use xlink:href="#DejaVuSans-13" transform="translate(95.40625 0)"/>
       <use xlink:href="#DejaVuSans-17" transform="translate(159.03125 0)"/>
       <use xlink:href="#DejaVuSans-13" transform="translate(222.65625 0)"/>
      </g>
     </g>
    </g>
    <g id="text_32">
     <!-- Loss -->
     <g transform="translate(510.275156 195.386016) rotate(-90) scale(0.1 -0.1)">
      <use xlink:href="#DejaVuSans-2f"/>
      <use xlink:href="#DejaVuSans-52" transform="translate(53.96875 0)"/>
      <use xlink:href="#DejaVuSans-56" transform="translate(115.15625 0)"/>
      <use xlink:href="#DejaVuSans-56" transform="translate(167.25 0)"/>
     </g>
    </g>
   </g>
   <g id="line2d_55">
    <path d="M 572.361989 63.092621 
L 576.413779 213.885435 
L 580.46557 261.639959 
L 584.517361 271.84106 
L 588.569151 275.911188 
L 592.620942 278.395933 
L 596.672732 279.455935 
L 600.724523 279.863488 
L 604.776314 280.170848 
L 608.828104 280.212477 
L 612.879895 271.667225 
L 616.931686 279.128521 
L 620.983476 281.409978 
L 625.035267 281.362727 
L 629.087058 262.522567 
L 633.138848 276.321157 
L 637.190639 280.257003 
L 641.242429 282.297993 
L 645.29422 283.527467 
L 649.346011 284.595541 
L 653.397801 283.431854 
L 657.449592 285.832846 
L 661.501383 287.475359 
L 665.553173 287.417368 
L 669.604964 288.315615 
L 673.656754 288.845141 
L 677.708545 289.347151 
L 681.760336 290.125936 
L 685.812126 291.650801 
L 689.863917 291.591783 
L 693.915708 292.066868 
L 697.967498 293.335919 
L 702.019289 293.784901 
L 706.07108 293.023985 
L 710.12287 294.951157 
L 714.174661 295.104653 
L 718.226451 295.20863 
L 722.278242 295.655167 
L 726.330033 296.38406 
L 730.381823 297.03889 
L 734.433614 297.137152 
L 738.485405 297.546333 
L 742.537195 297.561906 
L 746.588986 298.291156 
L 750.640777 298.831336 
L 754.692567 299.068776 
L 758.744358 299.253464 
L 762.796148 299.659644 
L 766.847939 299.880047 
L 770.89973 300.250437 
L 774.95152 300.363705 
L 779.003311 300.523751 
L 783.055102 300.760541 
L 787.106892 300.914844 
L 791.158683 301.14995 
L 795.210473 301.587622 
L 799.262264 301.626755 
L 803.314055 301.87032 
L 807.365845 302.010256 
L 811.417636 302.227662 
L 815.469427 302.320252 
L 819.521217 302.443954 
L 823.573008 302.752391 
L 827.624799 302.86018 
L 831.676589 302.960412 
L 835.72838 303.075811 
L 839.78017 303.231727 
L 843.831961 303.423592 
L 847.883752 303.543903 
L 851.935542 303.751382 
L 855.987333 303.741992 
L 860.039124 303.912302 
L 864.090914 303.979258 
L 868.142705 304.196305 
L 872.194496 304.218955 
L 876.246286 304.34075 
L 880.298077 304.490284 
L 884.349867 304.489544 
L 888.401658 304.560968 
L 892.453449 304.634817 
L 896.505239 304.789833 
L 900.55703 304.80758 
L 904.608821 304.95427 
L 908.660611 305.073779 
L 912.712402 305.118457 
L 916.764192 305.129374 
L 920.815983 305.309755 
L 924.867774 305.340017 
L 928.919564 305.338809 
L 932.971355 305.502509 
L 937.023146 305.559974 
L 941.074936 305.584036 
L 945.126727 305.602729 
L 949.178518 305.612764 
L 953.230308 305.673607 
L 957.282099 305.705389 
L 961.333889 305.605198 
L 965.38568 305.745036 
L 969.437471 305.702529 
L 973.489261 305.720568 
" clip-path="url(#p7badb82bd1)" style="fill: none; stroke: #4682b4; stroke-opacity: 0.4; stroke-width: 0.8; stroke-linecap: square"/>
   </g>
   <g id="line2d_56">
    <path d="M 572.361989 63.092621 
L 576.413779 138.489028 
L 580.46557 179.539338 
L 584.517361 202.614769 
L 588.569151 217.274052 
L 592.620942 260.334715 
L 596.672732 273.448815 
L 600.724523 277.093521 
L 604.776314 278.759478 
L 608.828104 279.619736 
L 612.879895 278.273994 
L 616.931686 278.208512 
L 620.983476 278.51781 
L 625.035267 278.756186 
L 629.087058 275.218204 
L 633.138848 276.14899 
L 637.190639 276.374687 
L 641.242429 276.55229 
L 645.29422 276.985238 
L 649.346011 281.399832 
L 653.397801 282.821972 
L 657.449592 283.93714 
L 661.501383 284.972613 
L 665.553173 285.750593 
L 669.604964 286.494608 
L 673.656754 287.577266 
L 677.708545 288.280127 
L 681.760336 288.810242 
L 685.812126 289.656929 
L 689.863917 290.312162 
L 693.915708 290.956508 
L 697.967498 291.754261 
L 702.019289 292.486055 
L 706.07108 292.760691 
L 710.12287 293.432566 
L 714.174661 294.040123 
L 718.226451 294.414665 
L 722.278242 294.788718 
L 726.330033 295.460734 
L 730.381823 295.87828 
L 734.433614 296.28478 
L 738.485405 296.75232 
L 742.537195 297.133668 
L 746.588986 297.515087 
L 750.640777 297.873576 
L 754.692567 298.259901 
L 758.744358 298.601328 
L 762.796148 299.020875 
L 766.847939 299.338653 
L 770.89973 299.622474 
L 774.95152 299.881459 
L 779.003311 300.135517 
L 783.055102 300.355696 
L 787.106892 300.562656 
L 791.158683 300.742558 
L 795.210473 300.987342 
L 799.262264 301.207942 
L 803.314055 301.429898 
L 807.365845 301.648981 
L 811.417636 301.864523 
L 815.469427 302.011049 
L 819.521217 302.174489 
L 823.573008 302.350903 
L 827.624799 302.520888 
L 831.676589 302.667438 
L 835.72838 302.81855 
L 839.78017 302.976104 
L 843.831961 303.110344 
L 847.883752 303.247089 
L 851.935542 303.405283 
L 855.987333 303.538519 
L 860.039124 303.674634 
L 864.090914 303.785767 
L 868.142705 303.916248 
L 872.194496 304.009762 
L 876.246286 304.129514 
L 880.298077 304.24511 
L 884.349867 304.347168 
L 888.401658 304.4201 
L 892.453449 304.503273 
L 896.505239 304.593089 
L 900.55703 304.656549 
L 904.608821 304.749494 
L 908.660611 304.852056 
L 912.712402 304.948784 
L 916.764192 305.016692 
L 920.815983 305.117127 
L 924.867774 305.194276 
L 928.919564 305.247282 
L 932.971355 305.324093 
L 937.023146 305.410213 
L 941.074936 305.465069 
L 945.126727 305.517611 
L 949.178518 305.572402 
L 953.230308 305.606622 
L 957.282099 305.635705 
L 961.333889 305.639937 
L 965.38568 305.668399 
L 969.437471 305.686352 
L 973.489261 305.695744 
" clip-path="url(#p7badb82bd1)" style="fill: none; stroke: #4682b4; stroke-width: 2.5; stroke-linecap: square"/>
   </g>
   <g id="line2d_57">
    <path d="M 572.361989 74.642834 
L 576.413779 140.639689 
L 580.46557 166.36708 
L 584.517361 175.38678 
L 588.569151 178.792333 
L 592.620942 182.447523 
L 596.672732 179.648889 
L 600.724523 177.547352 
L 604.776314 176.376801 
L 608.828104 181.709176 
L 612.879895 167.270639 
L 616.931686 169.193799 
L 620.983476 172.820201 
L 625.035267 163.523473 
L 629.087058 146.157491 
L 633.138848 128.176134 
L 637.190639 144.862955 
L 641.242429 155.861434 
L 645.29422 161.565188 
L 649.346011 160.098738 
L 653.397801 157.00217 
L 657.449592 146.174391 
L 661.501383 138.777764 
L 665.553173 132.403042 
L 669.604964 152.71617 
L 673.656754 151.696007 
L 677.708545 145.154113 
L 681.760336 161.654249 
L 685.812126 136.837651 
L 689.863917 151.86524 
L 693.915708 149.177812 
L 697.967498 143.632093 
L 702.019289 147.296108 
L 706.07108 151.609392 
L 710.12287 153.403589 
L 714.174661 145.284162 
L 718.226451 155.4036 
L 722.278242 155.697812 
L 726.330033 133.986724 
L 730.381823 143.950535 
L 734.433614 145.987793 
L 738.485405 147.616173 
L 742.537195 147.088565 
L 746.588986 156.78121 
L 750.640777 160.464078 
L 754.692567 151.843502 
L 758.744358 155.408676 
L 762.796148 157.588944 
L 766.847939 151.255217 
L 770.89973 151.313123 
L 774.95152 150.538312 
L 779.003311 149.508088 
L 783.055102 151.632117 
L 787.106892 147.201014 
L 791.158683 150.863843 
L 795.210473 149.012505 
L 799.262264 151.709763 
L 803.314055 155.282169 
L 807.365845 151.854183 
L 811.417636 150.046547 
L 815.469427 151.092127 
L 819.521217 146.360337 
L 823.573008 148.759834 
L 827.624799 150.655405 
L 831.676589 151.905982 
L 835.72838 149.470058 
L 839.78017 152.306425 
L 843.831961 153.447754 
L 847.883752 154.250889 
L 851.935542 151.373465 
L 855.987333 151.501485 
L 860.039124 152.935703 
L 864.090914 151.788115 
L 868.142705 154.758809 
L 872.194496 152.692499 
L 876.246286 151.547254 
L 880.298077 152.157503 
L 884.349867 151.979839 
L 888.401658 149.662523 
L 892.453449 151.723544 
L 896.505239 151.995989 
L 900.55703 152.264096 
L 904.608821 151.252906 
L 908.660611 150.083015 
L 912.712402 151.087731 
L 916.764192 151.1053 
L 920.815983 151.413243 
L 924.867774 151.58192 
L 928.919564 151.751616 
L 932.971355 150.702363 
L 937.023146 150.384955 
L 941.074936 149.945585 
L 945.126727 149.891909 
L 949.178518 150.644119 
L 953.230308 149.311143 
L 957.282099 149.981214 
L 961.333889 150.205735 
L 965.38568 150.536042 
L 969.437471 150.125769 
L 973.489261 149.943277 
" clip-path="url(#p7badb82bd1)" style="fill: none; stroke: #ff4500; stroke-opacity: 0.4; stroke-width: 0.8; stroke-linecap: square"/>
   </g>
   <g id="line2d_58">
    <path d="M 572.361989 74.642834 
L 576.413779 107.641261 
L 580.46557 127.216534 
L 584.517361 139.259096 
L 588.569151 147.165743 
L 592.620942 168.726681 
L 596.672732 176.528521 
L 600.724523 178.764575 
L 604.776314 178.96258 
L 608.828104 179.545948 
L 612.879895 176.510571 
L 616.931686 174.419553 
L 620.983476 173.474123 
L 625.035267 170.903458 
L 629.087058 163.793121 
L 633.138848 155.97422 
L 637.190639 151.108051 
L 641.242429 147.716297 
L 645.29422 147.32464 
L 649.346011 150.11289 
L 653.397801 155.878097 
L 657.449592 156.140384 
L 661.501383 152.72365 
L 665.553173 146.891221 
L 669.604964 145.414707 
L 673.656754 144.353475 
L 677.708545 144.149419 
L 681.760336 148.724716 
L 685.812126 149.611638 
L 689.863917 149.441452 
L 693.915708 148.937813 
L 697.967498 148.633409 
L 702.019289 145.761781 
L 706.07108 148.716129 
L 710.12287 149.023799 
L 714.174661 148.245069 
L 718.226451 150.59937 
L 722.278242 152.279711 
L 726.330033 148.755178 
L 730.381823 146.864567 
L 734.433614 147.005293 
L 738.485405 145.447808 
L 742.537195 143.725958 
L 746.588986 148.284855 
L 750.640777 151.587564 
L 754.692567 152.758705 
L 758.744358 154.317206 
L 762.796148 156.417282 
L 766.847939 155.312083 
L 770.89973 153.481892 
L 774.95152 153.220854 
L 779.003311 152.040737 
L 783.055102 150.849371 
L 787.106892 150.038531 
L 791.158683 149.948675 
L 795.210473 149.643513 
L 799.262264 150.083848 
L 803.314055 150.813859 
L 807.365845 151.744493 
L 811.417636 151.581034 
L 815.469427 151.996958 
L 819.521217 150.927073 
L 823.573008 149.622606 
L 827.624799 149.38285 
L 831.676589 149.754737 
L 835.72838 149.430323 
L 839.78017 150.619541 
L 843.831961 151.557125 
L 847.883752 152.276222 
L 851.935542 152.169718 
L 855.987333 152.576004 
L 860.039124 152.701859 
L 864.090914 152.369931 
L 868.142705 152.471515 
L 872.194496 152.735322 
L 876.246286 152.744476 
L 880.298077 152.588836 
L 884.349867 152.627181 
L 888.401658 151.607924 
L 892.453449 151.414133 
L 896.505239 151.50388 
L 900.55703 151.525198 
L 904.608821 151.379811 
L 908.660611 151.46391 
L 912.712402 151.336747 
L 916.764192 151.158609 
L 920.815983 150.988439 
L 924.867774 151.054242 
L 928.919564 151.387962 
L 932.971355 151.310888 
L 937.023146 151.166819 
L 941.074936 150.873288 
L 945.126727 150.535286 
L 949.178518 150.313786 
L 953.230308 150.035542 
L 957.282099 149.954794 
L 961.333889 150.006824 
L 965.38568 150.13565 
L 969.437471 150.031981 
L 973.489261 150.158407 
" clip-path="url(#p7badb82bd1)" style="fill: none; stroke: #ff4500; stroke-width: 2.5; stroke-linecap: square"/>
   </g>
   <g id="patch_9">
    <path d="M 552.305625 317.877656 
L 552.305625 50.96 
" style="fill: none; stroke: #000000; stroke-width: 0.8; stroke-linejoin: miter; stroke-linecap: square"/>
   </g>
   <g id="patch_10">
    <path d="M 993.545625 317.877656 
L 993.545625 50.96 
" style="fill: none; stroke: #000000; stroke-width: 0.8; stroke-linejoin: miter; stroke-linecap: square"/>
   </g>
   <g id="patch_11">
    <path d="M 552.305625 317.877656 
L 993.545625 317.877656 
" style="fill: none; stroke: #000000; stroke-width: 0.8; stroke-linejoin: miter; stroke-linecap: square"/>
   </g>
   <g id="patch_12">
    <path d="M 552.305625 50.96 
L 993.545625 50.96 
" style="fill: none; stroke: #000000; stroke-width: 0.8; stroke-linejoin: miter; stroke-linecap: square"/>
   </g>
   <g id="text_33">
    <!-- Smoothed Loss Trend -->
    <g transform="translate(708.879375 44.96) scale(0.12 -0.12)">
     <defs>
      <path id="DejaVuSans-50" d="M 3328 2828 
Q 3544 3216 3844 3400 
Q 4144 3584 4550 3584 
Q 5097 3584 5394 3201 
Q 5691 2819 5691 2113 
L 5691 0 
L 5113 0 
L 5113 2094 
Q 5113 2597 4934 2840 
Q 4756 3084 4391 3084 
Q 3944 3084 3684 2787 
Q 3425 2491 3425 1978 
L 3425 0 
L 2847 0 
L 2847 2094 
Q 2847 2600 2669 2842 
Q 2491 3084 2119 3084 
Q 1678 3084 1418 2786 
Q 1159 2488 1159 1978 
L 1159 0 
L 581 0 
L 581 3500 
L 1159 3500 
L 1159 2956 
Q 1356 3278 1631 3431 
Q 1906 3584 2284 3584 
Q 2666 3584 2933 3390 
Q 3200 3197 3328 2828 
z
" transform="scale(0.015625)"/>
     </defs>
     <use xlink:href="#DejaVuSans-36"/>
     <use xlink:href="#DejaVuSans-50" transform="translate(63.484375 0)"/>
     <use xlink:href="#DejaVuSans-52" transform="translate(160.890625 0)"/>
     <use xlink:href="#DejaVuSans-52" transform="translate(222.078125 0)"/>
     <use xlink:href="#DejaVuSans-57" transform="translate(283.265625 0)"/>
     <use xlink:href="#DejaVuSans-4b" transform="translate(322.46875 0)"/>
     <use xlink:href="#DejaVuSans-48" transform="translate(385.84375 0)"/>
     <use xlink:href="#DejaVuSans-47" transform="translate(447.375 0)"/>
     <use xlink:href="#DejaVuSans-3" transform="translate(510.859375 0)"/>
     <use xlink:href="#DejaVuSans-2f" transform="translate(542.640625 0)"/>
     <use xlink:href="#DejaVuSans-52" transform="translate(596.609375 0)"/>
     <use xlink:href="#DejaVuSans-56" transform="translate(657.796875 0)"/>
     <use xlink:href="#DejaVuSans-56" transform="translate(709.890625 0)"/>
     <use xlink:href="#DejaVuSans-3" transform="translate(761.984375 0)"/>
     <use xlink:href="#DejaVuSans-37" transform="translate(793.765625 0)"/>
     <use xlink:href="#DejaVuSans-55" transform="translate(840.140625 0)"/>
     <use xlink:href="#DejaVuSans-48" transform="translate(879.046875 0)"/>
     <use xlink:href="#DejaVuSans-51" transform="translate(940.578125 0)"/>
     <use xlink:href="#DejaVuSans-47" transform="translate(1003.953125 0)"/>
    </g>
   </g>
   <g id="legend_2">
    <g id="patch_13">
     <path d="M 870.089531 85.161406 
L 987.245625 85.161406 
Q 989.045625 85.161406 989.045625 83.361406 
L 989.045625 57.26 
Q 989.045625 55.46 987.245625 55.46 
L 870.089531 55.46 
Q 868.289531 55.46 868.289531 57.26 
L 868.289531 83.361406 
Q 868.289531 85.161406 870.089531 85.161406 
z
" style="fill: #ffffff; opacity: 0.8; stroke: #cccccc; stroke-linejoin: miter"/>
    </g>
    <g id="line2d_59">
     <path d="M 871.889531 62.748594 
L 880.889531 62.748594 
L 889.889531 62.748594 
" style="fill: none; stroke: #4682b4; stroke-width: 2.5; stroke-linecap: square"/>
    </g>
    <g id="text_34">
     <!-- Train (5-ep smooth) -->
     <g transform="translate(897.089531 65.898594) scale(0.09 -0.09)">
      <use xlink:href="#DejaVuSans-37"/>
      <use xlink:href="#DejaVuSans-55" transform="translate(46.375 0)"/>
      <use xlink:href="#DejaVuSans-44" transform="translate(87.484375 0)"/>
      <use xlink:href="#DejaVuSans-4c" transform="translate(148.765625 0)"/>
      <use xlink:href="#DejaVuSans-51" transform="translate(176.546875 0)"/>
      <use xlink:href="#DejaVuSans-3" transform="translate(239.921875 0)"/>
      <use xlink:href="#DejaVuSans-b" transform="translate(271.703125 0)"/>
      <use xlink:href="#DejaVuSans-18" transform="translate(310.71875 0)"/>
      <use xlink:href="#DejaVuSans-10" transform="translate(374.34375 0)"/>
      <use xlink:href="#DejaVuSans-48" transform="translate(410.421875 0)"/>
      <use xlink:href="#DejaVuSans-53" transform="translate(471.953125 0)"/>
      <use xlink:href="#DejaVuSans-3" transform="translate(535.4375 0)"/>
      <use xlink:href="#DejaVuSans-56" transform="translate(567.21875 0)"/>
      <use xlink:href="#DejaVuSans-50" transform="translate(619.3125 0)"/>
      <use xlink:href="#DejaVuSans-52" transform="translate(716.71875 0)"/>
      <use xlink:href="#DejaVuSans-52" transform="translate(777.90625 0)"/>
      <use xlink:href="#DejaVuSans-57" transform="translate(839.09375 0)"/>
      <use xlink:href="#DejaVuSans-4b" transform="translate(878.296875 0)"/>
      <use xlink:href="#DejaVuSans-c" transform="translate(941.671875 0)"/>
     </g>
    </g>
    <g id="line2d_60">
     <path d="M 871.889531 76.249297 
L 880.889531 76.249297 
L 889.889531 76.249297 
" style="fill: none; stroke: #ff4500; stroke-width: 2.5; stroke-linecap: square"/>
    </g>
    <g id="text_35">
     <!-- Valid (5-ep smooth) -->
     <g transform="translate(897.089531 79.399297) scale(0.09 -0.09)">
      <use xlink:href="#DejaVuSans-39"/>
      <use xlink:href="#DejaVuSans-44" transform="translate(60.640625 0)"/>
      <use xlink:href="#DejaVuSans-4f" transform="translate(121.921875 0)"/>
      <use xlink:href="#DejaVuSans-4c" transform="translate(149.703125 0)"/>
      <use xlink:href="#DejaVuSans-47" transform="translate(177.484375 0)"/>
      <use xlink:href="#DejaVuSans-3" transform="translate(240.96875 0)"/>
      <use xlink:href="#DejaVuSans-b" transform="translate(272.75 0)"/>
      <use xlink:href="#DejaVuSans-18" transform="translate(311.765625 0)"/>
      <use xlink:href="#DejaVuSans-10" transform="translate(375.390625 0)"/>
      <use xlink:href="#DejaVuSans-48" transform="translate(411.46875 0)"/>
      <use xlink:href="#DejaVuSans-53" transform="translate(473 0)"/>
      <use xlink:href="#DejaVuSans-3" transform="translate(536.484375 0)"/>
      <use xlink:href="#DejaVuSans-56" transform="translate(568.265625 0)"/>
      <use xlink:href="#DejaVuSans-50" transform="translate(620.359375 0)"/>
      <use xlink:href="#DejaVuSans-52" transform="translate(717.765625 0)"/>
      <use xlink:href="#DejaVuSans-52" transform="translate(778.953125 0)"/>
      <use xlink:href="#DejaVuSans-57" transform="translate(840.140625 0)"/>
      <use xlink:href="#DejaVuSans-4b" transform="translate(879.34375 0)"/>
      <use xlink:href="#DejaVuSans-c" transform="translate(942.71875 0)"/>
     </g>
    </g>
   </g>
  </g>
  <g id="text_36">
   <!-- Training Loss -->
   <g transform="translate(448.34875 17.837812) scale(0.14 -0.14)">
    <defs>
     <path id="DejaVuSans-Bold-37" d="M 31 4666 
L 4331 4666 
L 4331 3756 
L 2784 3756 
L 2784 0 
L 1581 0 
L 1581 3756 
L 31 3756 
L 31 4666 
z
" transform="scale(0.015625)"/>
     <path id="DejaVuSans-Bold-55" d="M 3138 2547 
Q 2991 2616 2845 2648 
Q 2700 2681 2553 2681 
Q 2122 2681 1889 2404 
Q 1656 2128 1656 1613 
L 1656 0 
L 538 0 
L 538 3500 
L 1656 3500 
L 1656 2925 
Q 1872 3269 2151 3426 
Q 2431 3584 2822 3584 
Q 2878 3584 2943 3579 
Q 3009 3575 3134 3559 
L 3138 2547 
z
" transform="scale(0.015625)"/>
     <path id="DejaVuSans-Bold-44" d="M 2106 1575 
Q 1756 1575 1579 1456 
Q 1403 1338 1403 1106 
Q 1403 894 1545 773 
Q 1688 653 1941 653 
Q 2256 653 2472 879 
Q 2688 1106 2688 1447 
L 2688 1575 
L 2106 1575 
z
M 3816 1997 
L 3816 0 
L 2688 0 
L 2688 519 
Q 2463 200 2181 54 
Q 1900 -91 1497 -91 
Q 953 -91 614 226 
Q 275 544 275 1050 
Q 275 1666 698 1953 
Q 1122 2241 2028 2241 
L 2688 2241 
L 2688 2328 
Q 2688 2594 2478 2717 
Q 2269 2841 1825 2841 
Q 1466 2841 1156 2769 
Q 847 2697 581 2553 
L 581 3406 
Q 941 3494 1303 3539 
Q 1666 3584 2028 3584 
Q 2975 3584 3395 3211 
Q 3816 2838 3816 1997 
z
" transform="scale(0.015625)"/>
     <path id="DejaVuSans-Bold-4c" d="M 538 3500 
L 1656 3500 
L 1656 0 
L 538 0 
L 538 3500 
z
M 538 4863 
L 1656 4863 
L 1656 3950 
L 538 3950 
L 538 4863 
z
" transform="scale(0.015625)"/>
     <path id="DejaVuSans-Bold-51" d="M 4056 2131 
L 4056 0 
L 2931 0 
L 2931 347 
L 2931 1631 
Q 2931 2084 2911 2256 
Q 2891 2428 2841 2509 
Q 2775 2619 2662 2680 
Q 2550 2741 2406 2741 
Q 2056 2741 1856 2470 
Q 1656 2200 1656 1722 
L 1656 0 
L 538 0 
L 538 3500 
L 1656 3500 
L 1656 2988 
Q 1909 3294 2193 3439 
Q 2478 3584 2822 3584 
Q 3428 3584 3742 3212 
Q 4056 2841 4056 2131 
z
" transform="scale(0.015625)"/>
     <path id="DejaVuSans-Bold-4a" d="M 2919 594 
Q 2688 288 2409 144 
Q 2131 0 1766 0 
Q 1125 0 706 504 
Q 288 1009 288 1791 
Q 288 2575 706 3076 
Q 1125 3578 1766 3578 
Q 2131 3578 2409 3434 
Q 2688 3291 2919 2981 
L 2919 3500 
L 4044 3500 
L 4044 353 
Q 4044 -491 3511 -936 
Q 2978 -1381 1966 -1381 
Q 1638 -1381 1331 -1331 
Q 1025 -1281 716 -1178 
L 716 -306 
Q 1009 -475 1290 -558 
Q 1572 -641 1856 -641 
Q 2406 -641 2662 -400 
Q 2919 -159 2919 353 
L 2919 594 
z
M 2181 2772 
Q 1834 2772 1640 2515 
Q 1447 2259 1447 1791 
Q 1447 1309 1634 1061 
Q 1822 813 2181 813 
Q 2531 813 2725 1069 
Q 2919 1325 2919 1791 
Q 2919 2259 2725 2515 
Q 2531 2772 2181 2772 
z
" transform="scale(0.015625)"/>
     <path id="DejaVuSans-Bold-3" transform="scale(0.015625)"/>
     <path id="DejaVuSans-Bold-2f" d="M 588 4666 
L 1791 4666 
L 1791 909 
L 3903 909 
L 3903 0 
L 588 0 
L 588 4666 
z
" transform="scale(0.015625)"/>
     <path id="DejaVuSans-Bold-52" d="M 2203 2784 
Q 1831 2784 1636 2517 
Q 1441 2250 1441 1747 
Q 1441 1244 1636 976 
Q 1831 709 2203 709 
Q 2569 709 2762 976 
Q 2956 1244 2956 1747 
Q 2956 2250 2762 2517 
Q 2569 2784 2203 2784 
z
M 2203 3584 
Q 3106 3584 3614 3096 
Q 4122 2609 4122 1747 
Q 4122 884 3614 396 
Q 3106 -91 2203 -91 
Q 1297 -91 786 396 
Q 275 884 275 1747 
Q 275 2609 786 3096 
Q 1297 3584 2203 3584 
z
" transform="scale(0.015625)"/>
     <path id="DejaVuSans-Bold-56" d="M 3272 3391 
L 3272 2541 
Q 2913 2691 2578 2766 
Q 2244 2841 1947 2841 
Q 1628 2841 1473 2761 
Q 1319 2681 1319 2516 
Q 1319 2381 1436 2309 
Q 1553 2238 1856 2203 
L 2053 2175 
Q 2913 2066 3209 1816 
Q 3506 1566 3506 1031 
Q 3506 472 3093 190 
Q 2681 -91 1863 -91 
Q 1516 -91 1145 -36 
Q 775 19 384 128 
L 384 978 
Q 719 816 1070 734 
Q 1422 653 1784 653 
Q 2113 653 2278 743 
Q 2444 834 2444 1013 
Q 2444 1163 2330 1236 
Q 2216 1309 1875 1350 
L 1678 1375 
Q 931 1469 631 1722 
Q 331 1975 331 2491 
Q 331 3047 712 3315 
Q 1094 3584 1881 3584 
Q 2191 3584 2531 3537 
Q 2872 3491 3272 3391 
z
" transform="scale(0.015625)"/>
    </defs>
    <use xlink:href="#DejaVuSans-Bold-37"/>
    <use xlink:href="#DejaVuSans-Bold-55" transform="translate(57.234375 0)"/>
    <use xlink:href="#DejaVuSans-Bold-44" transform="translate(106.546875 0)"/>
    <use xlink:href="#DejaVuSans-Bold-4c" transform="translate(174.03125 0)"/>
    <use xlink:href="#DejaVuSans-Bold-51" transform="translate(208.3125 0)"/>
    <use xlink:href="#DejaVuSans-Bold-4c" transform="translate(279.5 0)"/>
    <use xlink:href="#DejaVuSans-Bold-51" transform="translate(313.78125 0)"/>
    <use xlink:href="#DejaVuSans-Bold-4a" transform="translate(384.96875 0)"/>
    <use xlink:href="#DejaVuSans-Bold-3" transform="translate(456.546875 0)"/>
    <use xlink:href="#DejaVuSans-Bold-2f" transform="translate(491.359375 0)"/>
    <use xlink:href="#DejaVuSans-Bold-52" transform="translate(555.078125 0)"/>
    <use xlink:href="#DejaVuSans-Bold-56" transform="translate(623.78125 0)"/>
    <use xlink:href="#DejaVuSans-Bold-56" transform="translate(683.296875 0)"/>
   </g>
  </g>
 </g>
 <defs>
  <clipPath id="p2d106c7698">
   <rect x="50.465625" y="50.96" width="441.24" height="266.917656"/>
  </clipPath>
  <clipPath id="p7badb82bd1">
   <rect x="552.305625" y="50.96" width="441.24" height="266.917656"/>
  </clipPath>
 </defs>
</svg>
